<svg xmlns="http://www.w3.org/2000/svg" viewBox="0 0 3290.25 1075.14"><defs><style>.cls-1,.cls-2,.cls-3{fill:none;}.cls-1,.cls-2,.cls-3,.cls-4,.cls-5{stroke:#1f98cc;}.cls-1,.cls-4{stroke-miterlimit:10;}.cls-2,.cls-3,.cls-5{stroke-linecap:round;stroke-linejoin:round;stroke-width:5px;}.cls-3,.cls-6{opacity:0;}.cls-4,.cls-5{fill:#fff;}</style></defs><title>Asset 1</title><g id="Layer_2" data-name="Layer 2"><g id="Layer_3" data-name="Layer 3"><path class="cls-1" d="M215.71,905.94v13.19a2.26,2.26,0,0,1,0,.26h0a2.48,2.48,0,0,1-1.73,2.54A150.79,150.79,0,0,1,195.53,926V933a2.51,2.51,0,0,1-.75,1.79c-4.16,4-11,6.62-21.27,8.25l.41,15.65h14.91a2.5,2.5,0,0,1,2.5,2.5v10.22a2.5,2.5,0,0,1-2.5,2.5H174.32l.74,28.3h2.3a2.5,2.5,0,0,1,0,5h-2.17l1.7,64.69a2.51,2.51,0,0,1-2.5,2.57H152.31a2.51,2.51,0,0,1-2.5-2.58l2-64.68h-2.45a2.5,2.5,0,0,1,0-5h2.6l.87-28.3H63.22l.74,28.3h2.61a2.5,2.5,0,0,1,0,5H64.09l1.7,64.69a2.51,2.51,0,0,1-2.5,2.57H41.83a2.51,2.51,0,0,1-2.5-2.57L41,1007.18H38.55a2.5,2.5,0,0,1,0-5h2.6l.74-28.3H28.48a2.5,2.5,0,0,1-2.5-2.5V961.16a2.5,2.5,0,0,1,2.5-2.5H42.29L42.7,943c-10.26-1.63-17.11-4.2-21.27-8.25a2.52,2.52,0,0,1-.76-1.79V926a150.86,150.86,0,0,1-18.43-4.09A2.5,2.5,0,0,1,.51,919.4h0a2.26,2.26,0,0,1,0-.26V905.94a2.5,2.5,0,0,1,3.26-2.38c.32.1,32.58,10.09,104.35,10.09s104-10,104.34-10.09a2.49,2.49,0,0,1,3.26,2.38Z"/><line class="cls-2" x1="45.25" y1="941.26" x2="44.73" y2="961.16"/><polyline class="cls-2" points="60.65 971.38 63.29 1071.94 41.83 1071.94 44.46 971.38"/><line class="cls-2" x1="60.39" y1="961.16" x2="59.9" y2="942.39"/><line class="cls-2" x1="171.48" y1="961.16" x2="170.96" y2="941.26"/><polyline class="cls-2" points="171.75 971.38 174.39 1071.94 152.31 1071.94 155.39 971.38"/><line class="cls-2" x1="156.27" y1="942.39" x2="155.7" y2="961.16"/><path class="cls-2" d="M23.17,926.15V933c8.93,8.7,33.93,10,74.81,10.2"/><path class="cls-2" d="M193,926.15V933c-8.93,8.7-33.91,10-74.8,10.2"/><path class="cls-2" d="M213.21,919.13V905.94s-32,10.22-105.1,10.22S3,905.94,3,905.94v13.19"/><path class="cls-2" d="M213.21,919.56s-32,10.22-105.1,10.22S3,919.56,3,919.56"/><polyline class="cls-2" points="171.8 971.38 178.92 971.38 188.83 971.38 188.83 961.16 177.16 961.16 171.52 961.16"/><polyline class="cls-2" points="178.92 971.38 171.8 971.38 171.75 971.38 155.39 971.38 60.65 971.38 44.46 971.38 44.41 971.38 42.87 971.38"/><polyline class="cls-2" points="177.16 961.16 171.52 961.16 171.49 961.16 155.7 961.16 114.2 961.16 102 961.16 60.39 961.16 44.73 961.16 44.7 961.16 36.59 961.16"/><polyline class="cls-2" points="44.41 971.38 42.87 971.38 28.48 971.38 28.48 961.16 36.59 961.16 44.7 961.16"/><polyline class="cls-2" points="97.98 961.16 97.98 937.92 118.23 937.92"/><line class="cls-2" x1="118.23" y1="937.92" x2="118.23" y2="961.16"/><line class="cls-2" x1="38.55" y1="1004.68" x2="66.57" y2="1004.68"/><line class="cls-2" x1="149.34" y1="1004.68" x2="177.36" y2="1004.68"/><rect class="cls-2" x="2135.5" y="469.01" width="79.1" height="17.56"/><rect class="cls-2" x="2151.5" y="404.16" width="47.09" height="64.85"/><rect class="cls-2" x="2161.88" y="377.83" width="26.33" height="26.33"/><line class="cls-2" x1="2175.05" y1="312.88" x2="2175.05" y2="377.83"/><polyline class="cls-2" points="2127.79 868.75 2105.86 1070.6 2191.36 1070.6"/><polyline class="cls-2" points="2216.52 868.75 2220.7 907.35 2222.6 924.72 2224.48 942.09 2226.37 959.45 2228.26 976.83 2230.16 994.3 2232.03 1011.57 2238.45 1070.6 2232.25 1070.6 2191.36 1070.6 2185.17 1070.6 2152.95 1070.6"/><circle class="cls-2" cx="2172.31" cy="868.75" r="11.87"/><polyline class="cls-2" points="2171.15 550.27 2217.5 550.27 2228.18 486.57 2171.15 486.57 2174.82 486.57 2117.79 486.57 2128.46 550.27 2174.82 550.27"/><line class="cls-2" x1="2153.16" y1="499.61" x2="2194.15" y2="499.61"/><line class="cls-2" x1="2141.89" y1="499.61" x2="2130.3" y2="499.61"/><line class="cls-2" x1="2217.01" y1="499.61" x2="2205.42" y2="499.61"/><line class="cls-2" x1="2168.22" y1="516.98" x2="2194.15" y2="516.98"/><line class="cls-2" x1="2141.33" y1="516.98" x2="2133.49" y2="516.98"/><line class="cls-2" x1="2153.16" y1="534.35" x2="2194.15" y2="534.35"/><line class="cls-2" x1="2141.89" y1="534.35" x2="2137.41" y2="534.35"/><line class="cls-2" x1="2210" y1="534.35" x2="2205.42" y2="534.35"/><polyline class="cls-2" points="2171.15 613.97 2217.5 613.97 2228.18 550.27 2171.15 550.27 2174.82 550.27 2117.79 550.27 2128.46 613.97 2174.82 613.97"/><line class="cls-2" x1="2180.55" y1="563.3" x2="2194.15" y2="563.3"/><line class="cls-2" x1="2153.16" y1="563.3" x2="2165.89" y2="563.3"/><line class="cls-2" x1="2141.89" y1="563.3" x2="2130.3" y2="563.3"/><line class="cls-2" x1="2217.01" y1="563.3" x2="2205.42" y2="563.3"/><line class="cls-2" x1="2153.16" y1="580.67" x2="2178.01" y2="580.67"/><line class="cls-2" x1="2213.25" y1="580.67" x2="2205.42" y2="580.67"/><line class="cls-2" x1="2153.16" y1="598.04" x2="2194.15" y2="598.04"/><line class="cls-2" x1="2141.89" y1="598.04" x2="2137.41" y2="598.04"/><line class="cls-2" x1="2210" y1="598.04" x2="2205.42" y2="598.04"/><polyline class="cls-2" points="2171.15 677.66 2217.5 677.66 2228.18 613.97 2171.15 613.97 2174.82 613.97 2117.79 613.97 2128.46 677.66 2174.82 677.66"/><line class="cls-2" x1="2153.16" y1="627" x2="2194.15" y2="627"/><line class="cls-2" x1="2141.89" y1="627" x2="2130.3" y2="627"/><line class="cls-2" x1="2217.01" y1="627" x2="2205.42" y2="627"/><line class="cls-2" x1="2153.16" y1="644.37" x2="2194.15" y2="644.37"/><line class="cls-2" x1="2213.25" y1="644.37" x2="2205.42" y2="644.37"/><line class="cls-2" x1="2141.33" y1="644.37" x2="2133.49" y2="644.37"/><line class="cls-2" x1="2185.55" y1="661.74" x2="2194.15" y2="661.74"/><line class="cls-2" x1="2153.16" y1="661.74" x2="2172.98" y2="661.74"/><line class="cls-2" x1="2141.89" y1="661.74" x2="2137.41" y2="661.74"/><polyline class="cls-2" points="2171.15 741.36 2217.5 741.36 2228.18 677.66 2171.15 677.66 2174.82 677.66 2117.79 677.66 2128.46 741.36 2174.82 741.36"/><line class="cls-2" x1="2153.16" y1="690.69" x2="2194.15" y2="690.69"/><line class="cls-2" x1="2141.89" y1="690.69" x2="2130.3" y2="690.69"/><line class="cls-2" x1="2217.01" y1="690.69" x2="2205.42" y2="690.69"/><line class="cls-2" x1="2153.16" y1="708.06" x2="2194.15" y2="708.06"/><line class="cls-2" x1="2213.25" y1="708.06" x2="2205.42" y2="708.06"/><line class="cls-2" x1="2141.33" y1="708.06" x2="2133.49" y2="708.06"/><line class="cls-2" x1="2184.22" y1="725.44" x2="2194.15" y2="725.44"/><line class="cls-2" x1="2153.16" y1="725.44" x2="2171.22" y2="725.44"/><line class="cls-2" x1="2141.89" y1="725.44" x2="2137.41" y2="725.44"/><line class="cls-2" x1="2210" y1="725.44" x2="2205.42" y2="725.44"/><polyline class="cls-2" points="2171.15 805.05 2217.5 805.05 2228.18 741.36 2171.15 741.36 2174.82 741.36 2117.79 741.36 2128.46 805.05 2174.82 805.05"/><line class="cls-2" x1="2153.16" y1="754.39" x2="2194.15" y2="754.39"/><line class="cls-2" x1="2141.89" y1="754.39" x2="2130.3" y2="754.39"/><line class="cls-2" x1="2217.01" y1="754.39" x2="2205.42" y2="754.39"/><line class="cls-2" x1="2175.89" y1="771.76" x2="2194.15" y2="771.76"/><line class="cls-2" x1="2153.16" y1="771.76" x2="2159.55" y2="771.76"/><line class="cls-2" x1="2141.33" y1="771.76" x2="2133.49" y2="771.76"/><line class="cls-2" x1="2153.16" y1="789.13" x2="2181.22" y2="789.13"/><line class="cls-2" x1="2141.89" y1="789.13" x2="2137.41" y2="789.13"/><line class="cls-2" x1="2210" y1="789.13" x2="2205.42" y2="789.13"/><polyline class="cls-2" points="2184.19 868.75 2216.52 868.75 2217.51 868.75 2228.18 805.06 2174.82 805.06 2117.8 805.06 2128.47 868.75 2160.43 868.75"/><line class="cls-2" x1="2153.16" y1="818.09" x2="2194.15" y2="818.09"/><line class="cls-2" x1="2141.89" y1="818.09" x2="2130.3" y2="818.09"/><line class="cls-2" x1="2217.01" y1="818.09" x2="2205.42" y2="818.09"/><line class="cls-2" x1="2172.31" y1="835.46" x2="2194.15" y2="835.46"/><line class="cls-2" x1="2213.25" y1="835.46" x2="2205.42" y2="835.46"/><line class="cls-2" x1="2141.33" y1="835.46" x2="2133.49" y2="835.46"/><line class="cls-3" x1="2153.16" y1="852.83" x2="2194.15" y2="852.83"/><line class="cls-2" x1="2141.89" y1="852.83" x2="2137.41" y2="852.83"/><line class="cls-2" x1="2210" y1="852.83" x2="2205.42" y2="852.83"/><line class="cls-2" x1="2151.81" y1="889.98" x2="2192.81" y2="889.98"/><line class="cls-3" x1="2208.91" y1="889.98" x2="2204.08" y2="889.98"/><line class="cls-2" x1="2151.81" y1="907.35" x2="2192.81" y2="907.35"/><line class="cls-3" x1="2210.79" y1="907.35" x2="2204.08" y2="907.35"/><line class="cls-2" x1="2151.81" y1="924.72" x2="2192.81" y2="924.72"/><line class="cls-2" x1="2212.69" y1="924.72" x2="2204.08" y2="924.72"/><line class="cls-2" x1="2151.81" y1="942.09" x2="2192.81" y2="942.09"/><line class="cls-3" x1="2214.57" y1="942.09" x2="2204.08" y2="942.09"/><line class="cls-3" x1="2151.81" y1="959.46" x2="2192.81" y2="959.46"/><line class="cls-2" x1="2216.45" y1="959.45" x2="2204.08" y2="959.45"/><line class="cls-3" x1="2151.81" y1="976.83" x2="2192.81" y2="976.83"/><line class="cls-3" x1="2218.35" y1="976.83" x2="2204.08" y2="976.83"/><line class="cls-2" x1="2151.81" y1="994.2" x2="2192.81" y2="994.2"/><line class="cls-2" x1="2220.25" y1="994.3" x2="2204.08" y2="994.3"/><line class="cls-3" x1="2151.81" y1="1011.57" x2="2192.81" y2="1011.57"/><line class="cls-2" x1="2222.12" y1="1011.57" x2="2204.08" y2="1011.57"/><line class="cls-3" x1="2151.81" y1="1028.94" x2="2192.81" y2="1028.94"/><line class="cls-3" x1="2224" y1="1028.94" x2="2204.08" y2="1028.94"/><line class="cls-2" x1="2151.81" y1="1046.31" x2="2192.81" y2="1046.31"/><line class="cls-3" x1="2225.89" y1="1046.31" x2="2204.08" y2="1046.31"/><line class="cls-2" x1="2140.55" y1="889.98" x2="2135.71" y2="889.98"/><line class="cls-2" x1="2140.55" y1="907.35" x2="2133.83" y2="907.35"/><line class="cls-2" x1="2140.55" y1="924.72" x2="2131.93" y2="924.72"/><line class="cls-2" x1="2140.55" y1="942.09" x2="2130.05" y2="942.09"/><line class="cls-2" x1="2140.55" y1="959.45" x2="2128.17" y2="959.45"/><line class="cls-2" x1="2140.55" y1="976.83" x2="2126.27" y2="976.83"/><line class="cls-2" x1="2140.55" y1="994.3" x2="2124.38" y2="994.3"/><line class="cls-2" x1="2140.55" y1="1011.57" x2="2122.5" y2="1011.57"/><line class="cls-2" x1="2140.55" y1="1028.94" x2="2120.62" y2="1028.94"/><line class="cls-2" x1="2118.73" y1="1046.31" x2="2140.54" y2="1046.31"/><path class="cls-4" d="M2485.19,1071.9a2.49,2.49,0,0,1-.61,1.63,1.76,1.76,0,0,1-.19.2,2.39,2.39,0,0,1-.84.51.62.62,0,0,1-.18.06,2.14,2.14,0,0,1-.68.1h-83.92a2.5,2.5,0,0,1-2.5-2.5c0-48.15-29-87.32-64.69-87.32s-64.69,39.17-64.69,87.32a2.5,2.5,0,0,1-2.5,2.5h-83.92a2.4,2.4,0,0,1-1-.2l-.22-.1a2.57,2.57,0,0,1-.74-.61,2.68,2.68,0,0,1-.27-.39h0a2.24,2.24,0,0,1-.19-.45,2.57,2.57,0,0,1-.09-.54c0-.06,0-.11,0-.16s0,0,0,0a3,3,0,0,1,.14-.78,2.5,2.5,0,0,1,.09-.24,2.44,2.44,0,0,1,.16-.29l.14-.19a2.38,2.38,0,0,1,.14-.2c34.85-37.35,59.76-74.33,78.16-116.12h-4.05a2.5,2.5,0,0,1-2.5-2.5V925.28a2.5,2.5,0,0,1,2.5-2.5H2269c8.63-24.92,15.41-51.72,20.68-81.78h-5.5a2.49,2.49,0,0,1-2.5-2.5V812.21a2.5,2.5,0,0,1,2.5-2.5h10.27c6.33-48.17,9.45-105.74,9.52-175.82H2299a2.5,2.5,0,0,1-2.5-2.5V605.1a2.5,2.5,0,0,1,2.5-2.5h5.57c3.42-11.74,13.11-20,24.54-21.1V545.39a2.5,2.5,0,0,1,5,0V581.5c11.44,1.06,21.12,9.36,24.54,21.1h5.59a2.5,2.5,0,0,1,2.5,2.5v26.29a2.5,2.5,0,0,1-2.5,2.5h-5c.07,70.08,3.19,127.65,9.52,175.82h10.27a2.5,2.5,0,0,1,2.5,2.5V838.5a2.49,2.49,0,0,1-2.5,2.5h-5.5c5.27,30.06,12,56.86,20.68,81.78h16.3a2.5,2.5,0,0,1,2.5,2.5v26.29a2.5,2.5,0,0,1-2.5,2.5h-4.05c18.38,41.76,43.28,78.73,78.09,116.06a2.72,2.72,0,0,1,.43.58,1.45,1.45,0,0,1,.1.22,1.56,1.56,0,0,1,.09.23l.06.24A2.73,2.73,0,0,1,2485.19,1071.9Z"/><path class="cls-5" d="M2243.47,1072.07c4.5-49.6,41-88.48,85.81-89.78h.41c.64,0,1.29,0,1.94,0s1.3,0,1.94,0h.41c44.78,1.3,81.3,40.18,85.8,89.78"/><path class="cls-2" d="M2260.65,951.75c-19.29,44.95-45.5,83.19-80.15,120.32"/><path class="cls-2" d="M2296.71,812.38c6.86-51.07,9.84-110.27,9.84-180.82"/><path class="cls-2" d="M2270.87,925.45c9.21-26.26,16.41-54.87,21.86-86.77"/><path class="cls-2" d="M2482.73,1072.07c-34.65-37.13-60.86-75.38-80.14-120.32"/><path class="cls-2" d="M2356.69,631.56c0,70.55,3,129.75,9.84,180.82"/><path class="cls-2" d="M2370.51,838.68c5.45,31.9,12.65,60.51,21.86,86.77"/><line class="cls-5" x1="2482.73" y1="1072.07" x2="2398.81" y2="1072.07"/><line class="cls-5" x1="2264.43" y1="1072.07" x2="2180.51" y2="1072.07"/><path class="cls-5" d="M2264.43,1072.07c0-49.61,30.09-89.82,67.19-89.82s67.19,40.21,67.19,89.82"/><path class="cls-5" d="M2306.5,605.28c2.75-12.18,12.94-21.22,25.11-21.22s22.36,9,25.11,21.22"/><rect class="cls-5" x="2252.78" y="925.46" width="157.68" height="26.29"/><rect class="cls-5" x="2284.26" y="812.39" width="94.72" height="26.29"/><rect class="cls-5" x="2299" y="605.28" width="65.24" height="26.29"/><line class="cls-5" x1="2331.61" y1="584.05" x2="2331.61" y2="545.56"/><path class="cls-5" d="M2350.71,925.45c-8.1-26.18-14.39-54.73-19.09-86.46v0c0-.1,0-.19,0-.29"/><path class="cls-5" d="M2312.53,925.45c8.1-26.18,14.39-54.73,19.09-86.46v0c0-.09,0-.2,0-.29"/><line class="cls-5" x1="2264.43" y1="933.63" x2="2264.43" y2="943.49"/><line class="cls-5" x1="2281.23" y1="933.63" x2="2281.23" y2="943.49"/><line class="cls-5" x1="2298.02" y1="933.63" x2="2298.02" y2="943.49"/><line class="cls-5" x1="2314.82" y1="933.63" x2="2314.82" y2="943.49"/><line class="cls-5" x1="2331.62" y1="933.63" x2="2331.62" y2="943.49"/><line class="cls-5" x1="2348.42" y1="933.63" x2="2348.42" y2="943.49"/><line class="cls-5" x1="2365.21" y1="933.63" x2="2365.21" y2="943.49"/><line class="cls-5" x1="2382.01" y1="933.63" x2="2382.01" y2="943.49"/><line class="cls-5" x1="2398.81" y1="933.63" x2="2398.81" y2="943.49"/><line class="cls-5" x1="2297.98" y1="820.6" x2="2297.98" y2="830.46"/><line class="cls-5" x1="2314.78" y1="820.6" x2="2314.78" y2="830.46"/><line class="cls-5" x1="2331.58" y1="820.6" x2="2331.58" y2="830.46"/><line class="cls-5" x1="2348.37" y1="820.6" x2="2348.37" y2="830.46"/><line class="cls-5" x1="2365.17" y1="820.6" x2="2365.17" y2="830.46"/><line class="cls-5" x1="2314.78" y1="613.49" x2="2314.78" y2="623.35"/><line class="cls-5" x1="2331.58" y1="613.49" x2="2331.58" y2="623.35"/><line class="cls-5" x1="2348.37" y1="613.49" x2="2348.37" y2="623.35"/><line class="cls-5" x1="2306.55" y1="650.18" x2="2356.69" y2="650.18"/><line class="cls-5" x1="2331.58" y1="801.63" x2="2331.58" y2="763.11"/><line class="cls-2" x1="1566.77" y1="985.25" x2="1525.68" y2="985.25"/><polyline class="cls-2" points="1578.36 985.25 1605.78 985.25 1637.79 985.25 1669.77 985.25 1701.75 985.25 1788.33 985.25"/><line class="cls-2" x1="1566.77" y1="1007.87" x2="1525.68" y2="1007.87"/><polyline class="cls-2" points="1578.36 1007.87 1607.2 1007.87 1627.18 1007.87 1662.16 1007.87 1685.7 1007.87 1765.75 1007.87"/><line class="cls-2" x1="1514.09" y1="1007.87" x2="1326.7" y2="1007.87"/><path class="cls-2" d="M1326.7,960.53c132.84,0,168.06-121.89,187.39-165.63"/><line class="cls-2" x1="1525.68" y1="909.82" x2="1525.68" y2="860.62"/><polyline class="cls-2" points="1525.68 921.04 1525.68 985.25 1525.68 1007.87 1525.68 1072.07 1514.09 1072.07 1514.09 1007.87 1514.09 985.25 1514.09 794.89 1514.09 762.31 1525.68 762.31 1525.68 789.29"/><line class="cls-2" x1="1525.68" y1="849.4" x2="1525.68" y2="800.5"/><line class="cls-2" x1="1486.67" y1="856.83" x2="1486.67" y2="985.25"/><line class="cls-2" x1="1454.66" y1="904.16" x2="1454.66" y2="985.25"/><line class="cls-2" x1="1422.68" y1="932.62" x2="1422.68" y2="985.25"/><line class="cls-2" x1="1390.7" y1="949.36" x2="1390.7" y2="985.25"/><line class="cls-2" x1="1358.69" y1="957.97" x2="1358.69" y2="985.25"/><path class="cls-2" d="M1578.36,794.9c19.32,43.74,54.55,165.63,187.39,165.63"/><line class="cls-2" x1="1566.77" y1="909.82" x2="1566.77" y2="860.62"/><polyline class="cls-2" points="1566.77 921.04 1566.77 985.25 1566.77 1007.87 1566.77 1072.07 1578.36 1072.07 1578.36 1007.87 1578.36 985.25 1578.36 794.89 1578.36 762.31 1566.77 762.31 1566.77 789.29"/><line class="cls-2" x1="1566.77" y1="849.4" x2="1566.77" y2="800.5"/><line class="cls-2" x1="1605.78" y1="985.25" x2="1605.78" y2="856.83"/><line class="cls-2" x1="1637.79" y1="985.25" x2="1637.79" y2="904.16"/><line class="cls-2" x1="1669.77" y1="985.25" x2="1669.77" y2="932.62"/><line class="cls-2" x1="1701.75" y1="985.25" x2="1701.75" y2="949.36"/><line class="cls-2" x1="1733.76" y1="985.25" x2="1733.76" y2="957.97"/><line class="cls-2" x1="1566.77" y1="921.04" x2="1525.68" y2="921.04"/><line class="cls-2" x1="1566.77" y1="909.82" x2="1525.68" y2="909.82"/><line class="cls-2" x1="1566.77" y1="849.4" x2="1525.68" y2="849.4"/><line class="cls-2" x1="1566.77" y1="860.62" x2="1525.68" y2="860.62"/><line class="cls-2" x1="1566.77" y1="789.29" x2="1525.68" y2="789.29"/><line class="cls-2" x1="1566.77" y1="800.5" x2="1525.68" y2="800.5"/><line class="cls-2" x1="1809.29" y1="985.25" x2="1833.59" y2="985.25"/><polyline class="cls-2" points="1304.12 985.26 1390.7 985.26 1422.67 985.26 1454.65 985.26 1486.67 985.26 1514.09 985.26"/><line class="cls-2" x1="1283.15" y1="985.25" x2="1258.85" y2="985.25"/><line class="cls-2" x1="1503.72" y1="1072.07" x2="1534.22" y2="1072.07"/><line class="cls-2" x1="1557.31" y1="1072.05" x2="1587.81" y2="1072.05"/><line class="cls-2" x1="1491.97" y1="1072.07" x2="1484.97" y2="1072.07"/><line class="cls-2" x1="1608.47" y1="1072.05" x2="1601.47" y2="1072.05"/><rect class="cls-2" x="3024.76" y="920.13" width="105.26" height="151.88"/><rect class="cls-2" x="3024.76" y="903.31" width="105.26" height="16.82"/><path class="cls-2" d="M3077.39,825.44a147.83,147.83,0,0,1-29.48,22.65c-21.55,13.3-32.79,30.06-23,56"/><path class="cls-2" d="M3129.89,904.09c9.77-25.93-1.47-42.7-23-56a147.83,147.83,0,0,1-29.48-22.65v-27"/><rect class="cls-2" x="3130.02" y="945.12" width="45.6" height="126.89" transform="translate(6305.64 2017.13) rotate(180)"/><rect class="cls-2" x="3130.02" y="920.13" width="45.6" height="24.99" transform="translate(6305.64 1865.25) rotate(180)"/><polyline class="cls-2" points="3159.86 981.72 3159.86 1006.66 3145.78 1006.66 3145.78 981.72"/><path class="cls-2" d="M3145.78,981.72a7,7,0,0,1,14.08,0"/><polyline class="cls-2" points="3159.86 1047.07 3159.86 1072.01 3145.78 1072.01 3145.78 1047.07"/><path class="cls-2" d="M3145.78,1047.07a7,7,0,1,1,14.08,0"/><polygon class="cls-2" points="3175.62 1072.01 3221.22 1072.01 3221.22 952.33 3175.62 945.12 3175.62 1072.01"/><polyline class="cls-2" points="3205.46 981.72 3205.46 1006.66 3191.38 1006.66 3191.38 981.72"/><path class="cls-2" d="M3191.38,981.72a7,7,0,0,1,14.08,0"/><polyline class="cls-2" points="3205.46 1047.07 3205.46 1072.01 3191.38 1072.01 3191.38 1047.07"/><path class="cls-2" d="M3191.38,1047.07a7,7,0,1,1,14.08,0"/><polyline class="cls-2" points="3084.43 1047.07 3084.43 1072.01 3070.35 1072.01 3070.35 1047.07"/><path class="cls-2" d="M3070.35,1047.07a7,7,0,1,1,14.08,0"/><polyline class="cls-2" points="3084.43 981.72 3084.43 1006.66 3070.35 1006.66 3070.35 981.72"/><path class="cls-2" d="M3070.35,981.72a7,7,0,1,1,14.08,0"/><path class="cls-2" d="M3077.39,944s-37.67,10.34-37.67,40.57V1072"/><path class="cls-2" d="M3077.39,944s37.67,10.34,37.67,40.57V1072"/><line class="cls-2" x1="3115.06" y1="1006.58" x2="3039.72" y2="1006.58"/><path class="cls-2" d="M3152.82,892.82s22.8,6.9,22.8,27.3"/><path class="cls-2" d="M3130,920.13c0-20.41,22.8-27.3,22.8-27.3V880.48"/><polyline class="cls-2" points="3260.88 1072.01 3236.07 1072.01 3249.59 883.12 3256.8 883.12"/><polyline class="cls-2" points="3254.09 1072.01 3270.16 1072.01 3278.9 1072.01 3265.39 883.12 3255.47 883.12"/><line class="cls-2" x1="3243.55" y1="906.48" x2="3271.42" y2="906.48"/><line class="cls-2" x1="3246.33" y1="883.12" x2="3268.65" y2="883.12"/><line class="cls-3" x1="3242.23" y1="945.12" x2="3272.75" y2="945.12"/><line class="cls-2" x1="3237.99" y1="1006.66" x2="3276.98" y2="1006.66"/><path class="cls-2" d="M3249.09,881.88s-1.68-8.56,8.4-13"/><path class="cls-2" d="M3265.88,881.88s1.68-8.56-8.4-13V860"/><rect class="cls-2" x="2979.16" y="945.12" width="45.6" height="126.89"/><rect class="cls-2" x="2979.16" y="920.13" width="45.6" height="24.99"/><polyline class="cls-2" points="3009 981.72 3009 1006.66 2994.92 1006.66 2994.92 981.72"/><path class="cls-2" d="M2994.92,981.72a7,7,0,0,1,14.08,0"/><polyline class="cls-2" points="3009 1047.07 3009 1072.01 2994.92 1072.01 2994.92 1047.07"/><path class="cls-2" d="M2994.92,1047.07a7,7,0,1,1,14.08,0"/><polygon class="cls-2" points="2979.16 1072.01 2933.56 1072.01 2933.56 952.33 2979.16 945.12 2979.16 1072.01"/><polyline class="cls-2" points="2963.4 981.72 2963.4 1006.66 2949.32 1006.66 2949.32 981.72"/><path class="cls-2" d="M2949.32,981.72a7,7,0,0,1,14.08,0"/><polyline class="cls-2" points="2963.4 1047.07 2963.4 1072.01 2949.32 1072.01 2949.32 1047.07"/><path class="cls-2" d="M2949.32,1047.07a7,7,0,1,1,14.08,0"/><path class="cls-2" d="M3002,892.82s-22.8,6.9-22.8,27.3"/><path class="cls-2" d="M3024.76,920.13c0-20.41-22.8-27.3-22.8-27.3V880.48"/><polyline class="cls-2" points="2893.9 1072.01 2918.71 1072.01 2905.19 883.12 2897.98 883.12"/><polyline class="cls-2" points="2900.69 1072.01 2875.88 1072.01 2889.39 883.12 2899.31 883.12"/><line class="cls-2" x1="2911.23" y1="906.48" x2="2883.35" y2="906.48"/><line class="cls-2" x1="2908.45" y1="883.12" x2="2886.13" y2="883.12"/><line class="cls-3" x1="2912.55" y1="945.12" x2="2882.03" y2="945.12"/><line class="cls-2" x1="2916.79" y1="1006.66" x2="2877.8" y2="1006.66"/><path class="cls-2" d="M2905.69,881.88s1.68-8.56-8.4-13"/><path class="cls-2" d="M2888.9,881.88s-1.68-8.56,8.4-13V860"/><line class="cls-2" x1="3056.51" y1="842.62" x2="3098.26" y2="842.62"/><path class="cls-4" d="M3045.32,746.93h-29.75l-48.73,0-24.7-16.84a2.47,2.47,0,0,0-1.41-.44h-15V707.23a20.21,20.21,0,0,0-40.41,0v22.44h-15a2.43,2.43,0,0,0-1.41.44L2844.27,747l-48.73,0h-29.75a2.5,2.5,0,0,0-2.5,2.5,2.27,2.27,0,0,0,0,.26,17.82,17.82,0,0,0,17.57,17.56h14.74l3.23,9.42a2.5,2.5,0,0,0,1.78,1.62l60.18,14.44-5.17,54.84a2.51,2.51,0,0,0,1.13,2.34l7.81,5-8.84,129.46h-8.35a2.5,2.5,0,0,0-2.5,2.5v15.49h-4.8a2.5,2.5,0,0,0-2.5,2.5v67.16a2.5,2.5,0,0,0,2.5,2.5h131a2.5,2.5,0,0,0,2.5-2.5v-67.16a2.5,2.5,0,0,0-2.5-2.5h-4.81V986.92a2.5,2.5,0,0,0-2.5-2.5h-10l-7-103.31L2940.78,795l69.71-16.72a2.5,2.5,0,0,0,1.79-1.62l3.23-9.42h14.74a17.83,17.83,0,0,0,17.56-17.56,2.27,2.27,0,0,0,0-.26A2.5,2.5,0,0,0,3045.32,746.93Z"/><path class="cls-1" d="M3047.82,749.43a2.24,2.24,0,0,1,0,.26,17.83,17.83,0,0,1-17.56,17.56h-14.74l-3.23,9.42a2.5,2.5,0,0,1-1.79,1.62L2940.78,795l5.87,86.09,7,103.31h10a2.5,2.5,0,0,1,2.5,2.5v15.49H2971a2.5,2.5,0,0,1,2.5,2.5v67.16a2.5,2.5,0,0,1-2.5,2.5h-131a2.5,2.5,0,0,1-2.5-2.5v-67.16a2.5,2.5,0,0,1,2.5-2.5h4.8V986.92a2.5,2.5,0,0,1,2.5-2.5h8.35L2864.57,855l-7.81-5a2.51,2.51,0,0,1-1.13-2.34l5.17-54.84-60.18-14.44a2.51,2.51,0,0,1-1.78-1.62l-3.23-9.42h-14.74a17.82,17.82,0,0,1-17.57-17.56,2.26,2.26,0,0,1,0-.26,2.5,2.5,0,0,1,2.5-2.5h29.75l48.73,0,24.7-16.84a2.43,2.43,0,0,1,1.41-.44h15V707.23a20.21,20.21,0,0,1,40.41,0v22.44h15a2.47,2.47,0,0,1,1.41.44l24.7,16.84,48.73,0h29.75A2.5,2.5,0,0,1,3047.82,749.43Z"/><polyline class="cls-2" points="2865.28 771.88 2858.12 847.82 2918.63 886.86 2945.45 904.16"/><polyline class="cls-2" points="2910.9 986.93 2898.53 986.93 2858.06 986.93 2872.48 775.79"/><polyline class="cls-2" points="2936.75 772.79 2951.36 986.93 2910.9 986.93 2898.53 986.93"/><rect class="cls-2" x="2847.39" y="986.93" width="116.35" height="17.98"/><polygon class="cls-2" points="2971.04 1004.91 2840.08 1004.91 2840.08 1072.08 2849.26 1072.08 2854.41 1072.08 2971.04 1072.08 2971.04 1004.91"/><path class="cls-2" d="M2923.26,732.17V707.24h0a17.7,17.7,0,1,0-35.41,0h0v24.94"/><polyline class="cls-2" points="2938.95 792.89 3009.91 775.87 3018.98 749.43 2966.07 749.46 2940.73 732.17 2872.02 732.17"/><line class="cls-2" x1="3015.6" y1="749.43" x2="3045.32" y2="749.43"/><path class="cls-2" d="M3045.32,749.43A15.33,15.33,0,0,1,3030,764.76"/><line class="cls-2" x1="3029.99" y1="764.76" x2="3013.73" y2="764.76"/><polyline class="cls-2" points="2939.09 732.17 2872.02 732.17 2870.38 732.17 2845.04 749.46 2795.51 749.43 2792.14 749.43 2797.39 764.76 2801.2 775.87 2863.54 790.83"/><line class="cls-2" x1="2795.51" y1="749.43" x2="2765.79" y2="749.43"/><path class="cls-2" d="M2765.79,749.43a15.33,15.33,0,0,0,15.33,15.33"/><line class="cls-2" x1="2797.39" y1="764.76" x2="2781.13" y2="764.76"/><path class="cls-2" d="M2845,749.46l1.44,2.53a57.13,57.13,0,0,0,30.08,25.47l17.38,6.35"/><line class="cls-2" x1="2921.49" y1="947.57" x2="2922.26" y2="966.69"/><line class="cls-2" x1="2919.08" y1="887.15" x2="2920.93" y2="933.54"/><polyline class="cls-2" points="2914.18 764.76 2917.78 854.83 2944.16 881.36"/><line class="cls-2" x1="2889.93" y1="939.98" x2="2889.32" y2="955.16"/><line class="cls-2" x1="2892.72" y1="870.14" x2="2890.78" y2="918.64"/><path class="cls-2" d="M768.95,316.69s4.39,20.42,10.88,53.67c2.19,11.26,4.64,24,7.22,37.93q1.63,8.71,3.32,18c1.06,5.85,2.14,11.88,3.24,18q1.57,8.82,3.16,18,1.53,8.86,3.07,18,1.51,8.9,3,18,1.47,8.9,2.91,18,1.43,8.94,2.82,18t2.72,18q1.33,9,2.61,18t2.5,18q1.22,9,2.39,18t2.26,18q1.1,9,2.12,18t2,18q1,9.06,1.81,18l.49,5.17c.39,4.31.78,8.61,1.13,12.87q.78,9.1,1.43,18,.65,9.12,1.17,18,.55,9.16.91,18,.39,9.18.59,18c.15,6,.22,11.86.22,17.59V979"/><line class="cls-2" x1="881.96" y1="332.97" x2="783.81" y2="332.97"/><line class="cls-2" x1="870.64" y1="390.26" x2="795.14" y2="390.26"/><path class="cls-2" d="M783.81,333c2.82,13.75,6.76,33.37,11.33,57.29"/><path class="cls-2" d="M870.64,390.26c4.57-23.93,8.51-43.54,11.33-57.29"/><line class="cls-2" x1="867.84" y1="408.29" x2="797.94" y2="408.29"/><line class="cls-2" x1="864.52" y1="426.32" x2="801.26" y2="426.32"/><line class="cls-2" x1="822.72" y1="444.36" x2="804.49" y2="444.36"/><line class="cls-2" x1="861.28" y1="444.36" x2="838.49" y2="444.36"/><line class="cls-2" x1="885.94" y1="444.36" x2="883.05" y2="444.36"/><line class="cls-2" x1="782.73" y1="444.36" x2="779.83" y2="444.36"/><line class="cls-2" x1="885.94" y1="462.38" x2="879.89" y2="462.38"/><line class="cls-2" x1="841" y1="462.38" x2="807.65" y2="462.38"/><line class="cls-2" x1="785.88" y1="462.38" x2="779.83" y2="462.38"/><line class="cls-2" x1="788.96" y1="480.41" x2="779.83" y2="480.41"/><line class="cls-2" x1="885.94" y1="480.41" x2="876.82" y2="480.41"/><line class="cls-2" x1="827.28" y1="480.41" x2="810.72" y2="480.41"/><line class="cls-2" x1="855.05" y1="480.41" x2="838.49" y2="480.41"/><line class="cls-2" x1="852.06" y1="498.45" x2="813.72" y2="498.45"/><line class="cls-2" x1="885.94" y1="498.45" x2="873.82" y2="498.45"/><line class="cls-2" x1="791.95" y1="498.45" x2="779.83" y2="498.45"/><line class="cls-2" x1="885.94" y1="516.47" x2="870.91" y2="516.47"/><line class="cls-2" x1="849.14" y1="516.47" x2="824.78" y2="516.47"/><line class="cls-2" x1="794.86" y1="516.47" x2="779.83" y2="516.47"/><line class="cls-2" x1="846.33" y1="534.5" x2="819.45" y2="534.5"/><polyline class="cls-2" points="885.94 534.5 876.82 534.5 868.1 534.5"/><line class="cls-2" x1="797.68" y1="534.5" x2="779.83" y2="534.5"/><line class="cls-2" x1="885.94" y1="552.54" x2="865.37" y2="552.54"/><line class="cls-2" x1="843.61" y1="552.54" x2="822.17" y2="552.54"/><line class="cls-2" x1="790.11" y1="552.54" x2="779.83" y2="552.54"/><line class="cls-2" x1="840.99" y1="570.56" x2="824.78" y2="570.56"/><line class="cls-2" x1="803.01" y1="570.56" x2="779.83" y2="570.56"/><line class="cls-2" x1="885.94" y1="570.56" x2="862.76" y2="570.56"/><line class="cls-2" x1="885.94" y1="588.59" x2="868.72" y2="588.59"/><line class="cls-2" x1="805.51" y1="588.59" x2="790.11" y2="588.59"/><line class="cls-2" x1="838.49" y1="588.59" x2="827.28" y2="588.59"/><line class="cls-2" x1="878.43" y1="606.63" x2="857.86" y2="606.63"/><line class="cls-2" x1="807.91" y1="606.63" x2="779.83" y2="606.63"/><line class="cls-2" x1="836.1" y1="606.63" x2="829.68" y2="606.63"/><line class="cls-2" x1="885.94" y1="624.66" x2="855.61" y2="624.66"/><line class="cls-2" x1="810.17" y1="624.66" x2="779.83" y2="624.66"/><line class="cls-2" x1="833.84" y1="624.66" x2="831.93" y2="624.66"/><line class="cls-2" x1="803.01" y1="642.69" x2="779.83" y2="642.69"/><line class="cls-2" x1="867.01" y1="642.69" x2="853.48" y2="642.69"/><line class="cls-2" x1="885.94" y1="642.69" x2="878.43" y2="642.69"/><line class="cls-2" x1="814.26" y1="660.72" x2="779.83" y2="660.72"/><line class="cls-2" x1="871.18" y1="660.72" x2="851.5" y2="660.72"/><line class="cls-2" x1="790.11" y1="678.75" x2="779.83" y2="678.75"/><line class="cls-2" x1="816.07" y1="678.75" x2="800.4" y2="678.75"/><line class="cls-2" x1="857.86" y1="678.75" x2="849.7" y2="678.75"/><line class="cls-3" x1="885.94" y1="678.75" x2="868.72" y2="678.75"/><line class="cls-2" x1="885.94" y1="696.79" x2="848.07" y2="696.79"/><line class="cls-2" x1="817.7" y1="696.79" x2="779.83" y2="696.79"/><line class="cls-2" x1="819.12" y1="714.81" x2="779.83" y2="714.81"/><line class="cls-2" x1="864.86" y1="714.81" x2="846.65" y2="714.81"/><line class="cls-2" x1="885.94" y1="714.81" x2="878.22" y2="714.81"/><line class="cls-2" x1="795" y1="732.84" x2="779.83" y2="732.84"/><polyline class="cls-2" points="823.72 732.84 820.3 732.84 808.88 732.84"/><polyline class="cls-2" points="864 732.84 843.76 732.84 842.06 732.84"/><polyline class="cls-2" points="822.81 750.88 821.21 750.88 779.83 750.88"/><polyline class="cls-2" points="885.94 750.88 844.57 750.88 842.97 750.88"/><line class="cls-2" x1="821.8" y1="768.9" x2="822.22" y2="768.9"/><line class="cls-2" x1="779.83" y1="768.9" x2="805.22" y2="768.9"/><polyline class="cls-2" points="843.55 768.9 843.97 768.9 861.25 768.9"/><line class="cls-3" x1="885.94" y1="786.93" x2="843.77" y2="786.93"/><line class="cls-2" x1="791.48" y1="786.93" x2="779.83" y2="786.93"/><line class="cls-2" x1="822" y1="786.93" x2="804.89" y2="786.93"/><line class="cls-3" x1="885.94" y1="804.97" x2="843.77" y2="804.97"/><line class="cls-2" x1="822" y1="804.97" x2="799.47" y2="804.97"/><line class="cls-3" x1="822" y1="822.99" x2="779.83" y2="822.99"/><line class="cls-3" x1="885.94" y1="822.99" x2="843.77" y2="822.99"/><line class="cls-3" x1="822" y1="841.02" x2="779.83" y2="841.02"/><line class="cls-3" x1="885.94" y1="841.02" x2="843.77" y2="841.02"/><line class="cls-3" x1="822" y1="859.06" x2="779.83" y2="859.06"/><line class="cls-3" x1="885.94" y1="859.06" x2="843.77" y2="859.06"/><line class="cls-3" x1="822" y1="877.09" x2="779.83" y2="877.09"/><line class="cls-2" x1="885.94" y1="877.09" x2="843.77" y2="877.09"/><line class="cls-2" x1="822" y1="895.11" x2="779.83" y2="895.11"/><line class="cls-2" x1="885.94" y1="895.11" x2="843.77" y2="895.11"/><line class="cls-2" x1="885.94" y1="913.15" x2="843.77" y2="913.15"/><line class="cls-2" x1="822" y1="913.15" x2="779.83" y2="913.15"/><line class="cls-2" x1="822" y1="931.18" x2="779.83" y2="931.18"/><line class="cls-2" x1="885.94" y1="931.18" x2="843.77" y2="931.18"/><line class="cls-2" x1="822" y1="949.2" x2="779.83" y2="949.2"/><line class="cls-2" x1="885.94" y1="949.2" x2="843.77" y2="949.2"/><line class="cls-2" x1="822" y1="967.24" x2="779.83" y2="967.24"/><line class="cls-2" x1="885.94" y1="967.24" x2="843.77" y2="967.24"/><polyline class="cls-2" points="896.83 967.24 896.83 949.2 896.83 931.18 896.83 913.15 896.83 895.11 896.83 877.09 896.83 859.06 896.83 841.02 896.83 823 896.83 804.97 896.83 786.93 896.83 768.9 896.83 750.88 896.83 732.84 896.83 714.81 896.83 696.79 896.83 678.75 896.83 660.72 896.83 642.7 896.83 624.65 896.83 606.63 896.83 588.59 896.83 570.56 896.83 552.54 896.83 534.5 896.83 516.47 896.83 498.45 896.83 480.41 896.83 462.38 896.83 444.36 896.83 426.32 896.83 408.29 896.83 370.36 896.83 353.19"/><polyline class="cls-2" points="896.83 979 896.83 967.24 896.83 949.2 896.83 931.18 896.83 913.15 896.83 895.11 896.83 877.09 896.83 859.06 896.83 841.02 896.83 823 896.83 804.97 896.83 786.93 896.83 768.9 896.83 750.88 896.83 732.84 896.83 714.81 896.83 696.79 896.83 678.75 896.83 660.72 896.83 642.7 896.83 624.65 896.83 606.63 896.83 588.59 896.83 570.56 896.83 552.54 896.83 534.5 896.83 516.47 896.83 498.45 896.83 480.41 896.83 462.38 896.83 444.36 896.83 426.32 896.83 408.29 896.83 370.36 896.83 353.19 896.83 316.69 885.94 316.69 779.83 316.69 768.95 316.69 768.95 370.36 768.95 408.29 768.95 426.32 768.95 444.36 768.95 462.38 768.95 480.41 768.95 498.45 768.95 516.47 768.95 534.5 768.95 552.54 768.95 570.56 768.95 588.59 768.95 606.63 768.95 624.65 768.95 642.7 768.95 660.72 768.95 678.75 768.95 696.79 768.95 714.81 768.95 732.84 768.95 750.88 768.95 768.9 768.95 786.93 768.95 804.97 768.95 823 768.95 841.02 768.95 859.06 768.95 877.09 768.95 895.11 768.95 913.15 768.95 931.18 768.95 949.2 768.95 967.24 768.95 979"/><path class="cls-2" d="M832.89,979V786.49c0-5.73.07-11.6.22-17.59s.33-11.9.59-18q.37-8.88.91-18,.51-8.9,1.17-18,.65-8.92,1.43-18c.35-4.26.73-8.56,1.13-12.87l.49-5.17q.84-9,1.81-18t2-18q1-9,2.12-18t2.26-18q1.16-9,2.39-18t2.5-18q1.29-9.06,2.61-18t2.72-18q1.39-9.08,2.82-18,1.45-9.12,2.91-18,1.49-9.14,3-18,1.53-9.16,3.07-18,1.59-9.2,3.16-18c1.1-6.16,2.18-12.19,3.24-18q1.69-9.31,3.32-18c2.58-13.92,5-26.66,7.22-37.93,6.49-33.25,10.88-53.67,10.88-53.67"/><polyline class="cls-2" points="1017.7 174 1037.86 174 1037.86 339.48"/><polyline class="cls-2" points="997.54 539.94 997.54 282.92 1017.7 282.92"/><line class="cls-2" x1="997.54" y1="586.2" x2="997.54" y2="564.44"/><polyline class="cls-2" points="937.06 1064.39 937.06 781.97 957.22 781.97"/><line class="cls-2" x1="957.22" y1="781.97" x2="957.22" y2="586.2"/><rect class="cls-2" x="1098.34" y="834.12" width="20.16" height="230.27"/><line class="cls-2" x1="937.06" y1="939.23" x2="937.06" y2="1064.39"/><polyline class="cls-2" points="957.22 1064.39 957.22 586.2 977.38 586.2"/><polyline class="cls-2" points="977.38 619.12 977.38 586.2 977.38 361.55 997.54 361.55"/><line class="cls-2" x1="977.38" y1="705.91" x2="977.38" y2="637.96"/><line class="cls-2" x1="977.38" y1="790.97" x2="977.38" y2="740.27"/><line class="cls-2" x1="997.54" y1="808.78" x2="997.54" y2="1064.39"/><line class="cls-2" x1="997.54" y1="690.63" x2="997.54" y2="781.96"/><line class="cls-2" x1="997.54" y1="586.2" x2="997.54" y2="665.94"/><line class="cls-2" x1="1017.7" y1="704.01" x2="1017.7" y2="985.54"/><line class="cls-2" x1="1017.7" y1="637.95" x2="1017.7" y2="719.15"/><line class="cls-2" x1="1017.7" y1="521.83" x2="1017.7" y2="619.11"/><line class="cls-2" x1="1017.7" y1="473.4" x2="1017.7" y2="496.11"/><polyline class="cls-2" points="1017.7 2.5 1017.7 319.11 1017.7 339.48 1017.7 437.44"/><line class="cls-2" x1="1037.86" y1="863.99" x2="1037.86" y2="913.15"/><line class="cls-2" x1="1037.86" y1="674.41" x2="1037.86" y2="843.29"/><polyline class="cls-2" points="1037.86 380.11 1037.86 501.1 1037.86 586.2 1037.86 655.44"/><polyline class="cls-2" points="1058.02 558.44 1058.02 339.48 1058.02 501.1 1058.02 339.48 1037.86 339.48 1037.86 361.55"/><line class="cls-2" x1="1058.02" y1="726.44" x2="1058.02" y2="595.43"/><line class="cls-2" x1="1058.02" y1="788.76" x2="1058.02" y2="748.29"/><line class="cls-2" x1="1058.02" y1="891.11" x2="1058.02" y2="813.52"/><polyline class="cls-2" points="1078.18 678.55 1078.18 637.95 1098.34 637.95 1098.34 834.12"/><polyline class="cls-2" points="1078.18 808.78 1078.18 768.22 1078.18 696.78"/><line class="cls-2" x1="1078.18" y1="1064.39" x2="1078.18" y2="834.12"/><line class="cls-2" x1="1098.34" y1="834.12" x2="1098.34" y2="1064.39"/><line class="cls-2" x1="937.06" y1="1064.39" x2="1108.42" y2="1064.39"/><rect class="cls-2" x="916.9" y="939.23" width="20.16" height="125.16"/><polyline class="cls-2" points="1078.18 637.95 1078.18 449 1058.55 449"/><rect class="cls-2" x="2624.39" y="337.12" width="40.8" height="734.01"/><polyline class="cls-2" points="2665.19 368.94 2686.29 368.94 2686.29 337.13 2665.19 337.13 2624.39 337.13 2603.29 337.13 2603.29 368.94 2624.39 368.94"/><rect class="cls-2" x="2608.83" y="311.31" width="71.93" height="25.82"/><polyline class="cls-2" points="2645.21 311.31 2625.99 311.31 2635.6 208.49 2645.35 208.49"/><path class="cls-2" d="M2645.21,102.44s-1.68,208.86-.84,208.86h19.22L2654,208.49h-9.75"/><polyline class="cls-2" points="2624.39 368.94 2603.29 368.94 2591.36 368.94 2591.36 485.13 2624.39 485.13 2665.19 485.13 2698.22 485.13 2698.22 368.94 2686.29 368.94 2665.19 368.94"/><polyline class="cls-2" points="2665.19 846.6 2709.23 846.6 2709.23 485.13 2698.22 485.13 2665.19 485.13 2624.39 485.13 2591.36 485.13 2580.35 485.13 2580.35 846.6 2624.39 846.6"/><polyline class="cls-2" points="2624.39 846.6 2580.35 846.6 2558.33 846.6 2558.33 1071.13 2624.39 1071.13 2665.19 1071.13 2731.18 1071.13 2731.18 846.6 2709.23 846.6 2665.19 846.6"/><polyline class="cls-2" points="2731.44 925.9 2754.81 925.9 2754.81 1071.13 2731.44 1071.13 2665.19 1071.13 2624.39 1071.13 2558.08 1071.13 2534.71 1071.13 2534.71 925.9 2558.08 925.9"/><line class="cls-2" x1="2591.36" y1="766.96" x2="2591.36" y2="832.31"/><line class="cls-2" x1="2591.36" y1="669.18" x2="2591.36" y2="747.12"/><line class="cls-2" x1="2591.36" y1="560.38" x2="2591.36" y2="643.64"/><line class="cls-2" x1="2591.36" y1="498.84" x2="2591.36" y2="538.91"/><line class="cls-2" x1="2602.37" y1="804.42" x2="2602.37" y2="832.31"/><line class="cls-2" x1="2602.37" y1="656.95" x2="2602.37" y2="786.49"/><line class="cls-2" x1="2602.37" y1="498.84" x2="2602.37" y2="609.64"/><line class="cls-2" x1="2613.38" y1="786.49" x2="2613.38" y2="832.31"/><line class="cls-2" x1="2613.38" y1="708.15" x2="2613.38" y2="772.29"/><line class="cls-2" x1="2613.38" y1="565.96" x2="2613.38" y2="686.12"/><line class="cls-2" x1="2613.38" y1="498.84" x2="2613.38" y2="550.11"/><line class="cls-2" x1="2637.55" y1="498.84" x2="2637.55" y2="790.12"/><line class="cls-2" x1="2651.33" y1="498.84" x2="2651.33" y2="790.12"/><line class="cls-2" x1="2602.37" y1="416.11" x2="2602.37" y2="380.23"/><line class="cls-2" x1="2602.37" y1="473.14" x2="2602.37" y2="434.12"/><line class="cls-2" x1="2613.38" y1="391.77" x2="2613.38" y2="380.23"/><line class="cls-2" x1="2613.38" y1="445.77" x2="2613.38" y2="407.12"/><line class="cls-2" x1="2613.38" y1="473.14" x2="2613.38" y2="462.12"/><polyline class="cls-2" points="2637.55 473.14 2637.55 442.45 2637.55 409.74 2637.55 346.35"/><polyline class="cls-2" points="2651.33 473.14 2651.33 458.77 2651.33 445.11 2651.33 396.44 2651.33 374.44 2651.33 346.35"/><line class="cls-2" x1="2613.38" y1="347.04" x2="2613.38" y2="359.6"/><line class="cls-2" x1="2591.36" y1="881.72" x2="2591.36" y2="862.74"/><line class="cls-2" x1="2602.37" y1="871.4" x2="2602.37" y2="862.74"/><line class="cls-2" x1="2602.37" y1="1059.15" x2="2602.37" y2="893.2"/><line class="cls-2" x1="2580.35" y1="876.55" x2="2580.35" y2="862.74"/><line class="cls-2" x1="2569.34" y1="1059.15" x2="2569.34" y2="862.74"/><line class="cls-2" x1="2546" y1="1059.15" x2="2546" y2="936.39"/><line class="cls-2" x1="2613.38" y1="906.19" x2="2613.38" y2="862.74"/><line class="cls-2" x1="2624.39" y1="801.88" x2="2665.19" y2="801.88"/><line class="cls-2" x1="2637.55" y1="896.94" x2="2637.55" y2="816.4"/><line class="cls-2" x1="2651.33" y1="835.44" x2="2651.33" y2="816.4"/><line class="cls-2" x1="2651.33" y1="883.19" x2="2651.33" y2="852.19"/><line class="cls-2" x1="2697.52" y1="721.72" x2="2697.52" y2="832.31"/><line class="cls-2" x1="2697.52" y1="637.34" x2="2697.52" y2="689.7"/><line class="cls-2" x1="2697.52" y1="569.47" x2="2697.52" y2="617.55"/><line class="cls-2" x1="2697.52" y1="498.84" x2="2697.52" y2="554.24"/><line class="cls-2" x1="2686.51" y1="689.7" x2="2686.51" y2="832.31"/><line class="cls-2" x1="2686.51" y1="626.05" x2="2686.51" y2="673.05"/><line class="cls-2" x1="2686.51" y1="536.07" x2="2686.51" y2="609.64"/><line class="cls-2" x1="2686.51" y1="498.84" x2="2686.51" y2="524.48"/><line class="cls-2" x1="2675.5" y1="777.13" x2="2675.5" y2="832.31"/><line class="cls-2" x1="2675.5" y1="704.13" x2="2675.5" y2="744.7"/><line class="cls-2" x1="2675.5" y1="599.96" x2="2675.5" y2="689.7"/><line class="cls-2" x1="2675.5" y1="498.84" x2="2675.5" y2="579.02"/><line class="cls-2" x1="2686.51" y1="403.45" x2="2686.51" y2="380.23"/><line class="cls-2" x1="2686.51" y1="473.14" x2="2686.51" y2="428.77"/><line class="cls-2" x1="2675.5" y1="430.12" x2="2675.5" y2="380.23"/><line class="cls-2" x1="2675.5" y1="473.14" x2="2675.5" y2="448.44"/><line class="cls-2" x1="2675.5" y1="347.04" x2="2675.5" y2="359.6"/><line class="cls-2" x1="2697.52" y1="1059.15" x2="2697.52" y2="862.74"/><line class="cls-2" x1="2686.51" y1="1059.15" x2="2686.51" y2="862.74"/><line class="cls-2" x1="2708.53" y1="1059.15" x2="2708.53" y2="862.74"/><line class="cls-2" x1="2719.54" y1="1059.15" x2="2719.54" y2="862.74"/><line class="cls-2" x1="2742.88" y1="1059.15" x2="2742.88" y2="936.39"/><line class="cls-2" x1="2675.5" y1="1059.15" x2="2675.5" y2="862.74"/><path class="cls-4" d="M1384.3,1072.07a2.5,2.5,0,0,1-2.5,2.5H1208.12a2.5,2.5,0,0,1,0-5h15.14V625.67a2.34,2.34,0,0,1,0-.38c.15-25.67.27-60.9,0-63.65a2.5,2.5,0,0,1,4.86-1.14c.35,1.19.39,22.68.13,63.88,6.23,4.38,36.69,26.81,68.52,67.81a401,401,0,0,1,35.1,53.59h26.69a2.5,2.5,0,0,1,1.85,4.18l-17,18.7q2.58,5.52,5,11.14a408.87,408.87,0,0,1,24,75.44v0a2.5,2.5,0,0,1,.19.86,433.16,433.16,0,0,1,7.45,48.63c.09.82,9.75,86.83-15.59,164.82h17.29A2.5,2.5,0,0,1,1384.3,1072.07Z"/><path class="cls-5" d="M1361.05,1072.07c26.83-79.22,16.55-167.08,16.55-167.08C1359.34,714,1225.76,625.68,1225.76,625.68v446.39"/><path class="cls-5" d="M1225.76,561.19c.44,1.52,0,68.48,0,68.48"/><line class="cls-5" x1="1225.95" y1="856.21" x2="1370.15" y2="856.21"/><line class="cls-5" x1="1225.95" y1="964.14" x2="1378.61" y2="964.14"/><line class="cls-5" x1="1344.73" y1="984.27" x2="1360.82" y2="984.27"/><line class="cls-5" x1="1241.93" y1="984.27" x2="1329.32" y2="984.27"/><line class="cls-5" x1="1342.27" y1="1006.83" x2="1356.75" y2="1006.83"/><line class="cls-5" x1="1278.88" y1="1006.83" x2="1328.81" y2="1006.83"/><line class="cls-5" x1="1241.93" y1="1006.83" x2="1263.47" y2="1006.83"/><line class="cls-5" x1="1286.83" y1="1029.38" x2="1353.41" y2="1029.38"/><line class="cls-5" x1="1241.93" y1="1029.38" x2="1269.9" y2="1029.38"/><line class="cls-5" x1="1241.93" y1="1051.94" x2="1349.06" y2="1051.94"/><line class="cls-5" x1="1241.93" y1="876.34" x2="1356.03" y2="876.34"/><line class="cls-5" x1="1342.4" y1="898.9" x2="1358.69" y2="898.9"/><line class="cls-5" x1="1241.93" y1="898.9" x2="1325" y2="898.9"/><line class="cls-5" x1="1288.44" y1="921.45" x2="1361.71" y2="921.45"/><line class="cls-5" x1="1241.93" y1="921.45" x2="1265.33" y2="921.45"/><line class="cls-5" x1="1241.93" y1="944.01" x2="1362.08" y2="944.01"/><line class="cls-5" x1="1306.72" y1="768.41" x2="1321.28" y2="768.41"/><line class="cls-5" x1="1241.08" y1="768.41" x2="1292.54" y2="768.41"/><line class="cls-5" x1="1241.93" y1="790.97" x2="1332.89" y2="790.97"/><line class="cls-5" x1="1322.97" y1="813.53" x2="1341.27" y2="813.53"/><line class="cls-5" x1="1241.93" y1="813.53" x2="1308.33" y2="813.53"/><line class="cls-5" x1="1301.05" y1="836.08" x2="1348.3" y2="836.08"/><line class="cls-5" x1="1267.53" y1="836.08" x2="1283.28" y2="836.08"/><line class="cls-5" x1="1241.93" y1="836.08" x2="1254.33" y2="836.08"/><line class="cls-5" x1="1381.8" y1="1072.07" x2="1208.12" y2="1072.07"/><polyline class="cls-5" points="1225.76 748.28 1358.6 748.28 1340.51 768.22"/><line class="cls-2" x1="2520.82" y1="1063.42" x2="2414.21" y2="1063.42"/><rect class="cls-2" x="2450.02" y="564.12" width="53.55" height="10.34" transform="translate(4953.6 1138.59) rotate(180)"/><polygon class="cls-2" points="2430.79 521.22 2522.8 521.22 2514.87 564.12 2438.73 564.12 2430.79 521.22"/><line class="cls-2" x1="2519.78" y1="537.55" x2="2433.81" y2="537.55"/><rect class="cls-2" x="2450.02" y="508.24" width="53.55" height="12.98" transform="translate(4953.6 1029.46) rotate(180)"/><polygon class="cls-2" points="2462.72 508.24 2490.88 508.24 2490.88 425.51 2476.8 425.51 2462.72 425.51 2462.72 508.24"/><line class="cls-2" x1="2476.8" y1="236.95" x2="2476.8" y2="355.32"/><line class="cls-2" x1="2496.63" y1="574.46" x2="2509.14" y2="1062.04"/><line class="cls-2" x1="2456.96" y1="575.84" x2="2444.46" y2="1063.42"/><polygon class="cls-2" points="2470.63 355.32 2482.97 355.32 2482.97 425.51 2476.8 425.51 2470.63 425.51 2470.63 355.32"/><line class="cls-2" x1="2490.93" y1="968.45" x2="2492.79" y2="1063.42"/><line class="cls-2" x1="2487.38" y1="786.11" x2="2490.14" y2="927.78"/><line class="cls-2" x1="2483.28" y1="575.84" x2="2486.96" y2="764.46"/><line class="cls-2" x1="2463.94" y1="902.76" x2="2460.81" y2="1063.42"/><line class="cls-2" x1="2470.32" y1="575.84" x2="2464.94" y2="851.75"/><rect class="cls-2" x="580.64" y="748.91" width="20.85" height="73.47" transform="translate(1376.72 194.58) rotate(90)"/><rect class="cls-2" x="473.94" y="561.44" width="55.91" height="52.45"/><polyline class="cls-2" points="484.62 561.44 484.62 518.78 501.9 482.21 519.17 518.78 519.17 561.44"/><line class="cls-2" x1="501.9" y1="482.21" x2="501.9" y2="434.56"/><line class="cls-2" x1="501.9" y1="613.89" x2="501.9" y2="518.78"/><line class="cls-2" x1="533.48" y1="817.98" x2="533.48" y2="886.13"/><line class="cls-2" x1="533.48" y1="749.28" x2="533.48" y2="798.03"/><polyline class="cls-2" points="519.78 613.89 537.06 613.89 537.06 699.49"/><line class="cls-2" x1="512.63" y1="820.19" x2="512.63" y2="740.27"/><line class="cls-2" x1="512.63" y1="901.64" x2="512.63" y2="841.82"/><line class="cls-2" x1="470.92" y1="820.19" x2="470.92" y2="763.18"/><line class="cls-2" x1="470.92" y1="891.67" x2="470.92" y2="834.6"/><line class="cls-2" x1="470.92" y1="930.45" x2="470.92" y2="906.07"/><line class="cls-2" x1="491.77" y1="884.46" x2="491.77" y2="946.52"/><line class="cls-2" x1="491.77" y1="759.69" x2="491.77" y2="861.75"/><polyline class="cls-2" points="467.34 699.49 467.34 613.89 484.62 613.89"/><line class="cls-2" x1="464.92" y1="699.49" x2="545.69" y2="699.49"/><polyline class="cls-2" points="537.06 699.49 554.33 699.49 554.33 1072.07 537.06 1072.07 542.28 1072.07 461.51 1072.07 467.34 1072.07 450.07 1072.07 450.07 699.49 467.34 699.49"/><line class="cls-2" x1="554.33" y1="729.87" x2="554.33" y2="750.67"/><line class="cls-2" x1="491.77" y1="746.59" x2="491.77" y2="699.49"/><line class="cls-2" x1="470.92" y1="742.56" x2="470.92" y2="699.49"/><line class="cls-2" x1="512.63" y1="719.14" x2="512.63" y2="699.49"/><line class="cls-2" x1="533.48" y1="735.75" x2="533.48" y2="699.49"/><line class="cls-2" x1="470.92" y1="942.48" x2="470.92" y2="1072.07"/><line class="cls-2" x1="512.63" y1="915.49" x2="512.63" y2="1072.07"/><line class="cls-2" x1="533.48" y1="901.64" x2="533.48" y2="1072.07"/><line class="cls-2" x1="491.77" y1="961.67" x2="491.77" y2="1072.07"/><line class="cls-2" x1="484.62" y1="518.78" x2="519.17" y2="518.78"/><line class="cls-2" x1="491.77" y1="641.4" x2="491.77" y2="675"/><line class="cls-2" x1="512.63" y1="664.49" x2="512.63" y2="700.5"/><line class="cls-2" x1="491.77" y1="627.65" x2="491.77" y2="613.89"/><line class="cls-2" x1="512.63" y1="648.94" x2="512.63" y2="613.89"/><rect class="cls-2" x="651.98" y="561.44" width="55.91" height="52.45"/><polyline class="cls-2" points="662.66 561.44 662.66 518.78 679.94 482.21 697.22 518.78 697.22 561.44"/><line class="cls-2" x1="679.94" y1="482.21" x2="679.94" y2="434.56"/><line class="cls-2" x1="679.94" y1="613.89" x2="679.94" y2="518.78"/><line class="cls-2" x1="711.52" y1="809.84" x2="711.52" y2="869.92"/><line class="cls-2" x1="711.52" y1="749.28" x2="711.52" y2="792.26"/><polyline class="cls-2" points="697.82 613.89 715.1 613.89 715.1 699.49"/><line class="cls-2" x1="690.67" y1="820.19" x2="690.67" y2="778.07"/><line class="cls-2" x1="690.67" y1="763.18" x2="690.67" y2="707.16"/><line class="cls-2" x1="690.67" y1="901.64" x2="690.67" y2="841.82"/><line class="cls-2" x1="648.96" y1="780.67" x2="648.96" y2="728.55"/><line class="cls-2" x1="648.96" y1="867.25" x2="648.96" y2="800.42"/><line class="cls-2" x1="648.96" y1="913.97" x2="648.96" y2="883.95"/><line class="cls-2" x1="669.82" y1="893.53" x2="669.82" y2="946.52"/><line class="cls-2" x1="669.82" y1="787" x2="669.82" y2="874.14"/><polyline class="cls-2" points="645.39 699.49 645.39 613.89 662.66 613.89"/><line class="cls-2" x1="642.97" y1="699.49" x2="723.74" y2="699.49"/><polyline class="cls-2" points="715.1 699.49 732.38 699.49 732.38 1072.07 715.1 1072.07 720.33 1072.07 639.55 1072.07 645.39 1072.07 628.11 1072.07 628.11 699.49 645.39 699.49"/><line class="cls-2" x1="628.11" y1="733.73" x2="628.11" y2="754.54"/><line class="cls-2" x1="732.38" y1="729.87" x2="732.38" y2="750.67"/><line class="cls-2" x1="669.82" y1="746.59" x2="669.82" y2="699.49"/><line class="cls-2" x1="648.96" y1="742.56" x2="648.96" y2="699.49"/><line class="cls-2" x1="690.67" y1="719.14" x2="690.67" y2="699.49"/><line class="cls-2" x1="711.52" y1="735.75" x2="711.52" y2="699.49"/><line class="cls-2" x1="648.96" y1="935.86" x2="648.96" y2="1072.07"/><line class="cls-2" x1="690.67" y1="915.49" x2="690.67" y2="1072.07"/><line class="cls-2" x1="711.52" y1="890.08" x2="711.52" y2="946.52"/><line class="cls-2" x1="669.82" y1="961.67" x2="669.82" y2="1072.07"/><line class="cls-2" x1="662.66" y1="518.78" x2="697.22" y2="518.78"/><line class="cls-2" x1="669.82" y1="679.89" x2="669.82" y2="703.21"/><line class="cls-2" x1="690.67" y1="679.89" x2="690.67" y2="700.5"/><line class="cls-2" x1="669.82" y1="648.94" x2="669.82" y2="613.89"/><line class="cls-2" x1="690.67" y1="660.31" x2="690.67" y2="613.89"/><path class="cls-4" d="M522.83,1072a2.35,2.35,0,0,1-2.35,2.35H166.37a2.33,2.33,0,0,1-1,0h-6.83a2.35,2.35,0,1,1,0-4.69h5v-50.86h-5.63a2.45,2.45,0,0,1,.42-4.86h5.21V963.14h-6.06a2.35,2.35,0,0,1,0-4.69h6.06V907.53H157a2.35,2.35,0,0,1,0-4.69h6.5V840.08h-5.63a2.35,2.35,0,0,1,0-4.69H269.17l.23,0,.23.06a2.1,2.1,0,0,1,.62.3,1.26,1.26,0,0,1,.18.13,2.27,2.27,0,0,1,.54.65l0,.06L309.3,904l.08.13,14.07,24.74c0,.08.08.16.12.23l6.37,11.2a.41.41,0,0,1,0,.07l10.94,19.24.08.15L349.68,975H401l-15.32-27-.09-.16a1.86,1.86,0,0,1-.12-.23l0-.07a2.33,2.33,0,0,1-.08-.27,1.6,1.6,0,0,1-.06-.29c0-.1,0-.2,0-.29v0a2.64,2.64,0,0,1,0-.27,2.32,2.32,0,0,1,.17-.62,2,2,0,0,1,.12-.24,1.29,1.29,0,0,1,.23-.33l.15-.17a1.22,1.22,0,0,1,.17-.15l.18-.13a.86.86,0,0,1,.15-.1l0,0a.59.59,0,0,1,.21-.09,1.5,1.5,0,0,1,.22-.08,2.42,2.42,0,0,1,.45-.09H519.84a2.35,2.35,0,1,1,0,4.69h-4.36v64.84h4.79a2.45,2.45,0,0,1-.43,4.86h-4.36v50.86h5A2.34,2.34,0,0,1,522.83,1072Z"/><line class="cls-5" x1="158.52" y1="1071.97" x2="520.48" y2="1071.97"/><line class="cls-5" x1="158.3" y1="1016.25" x2="520.26" y2="1016.25"/><line class="cls-5" x1="157.88" y1="1016.41" x2="519.83" y2="1016.41"/><polyline class="cls-5" points="387.67 946.71 513.13 946.71 519.83 946.71"/><line class="cls-5" x1="338.91" y1="960.79" x2="157.45" y2="960.79"/><line class="cls-5" x1="307.28" y1="905.18" x2="157.01" y2="905.18"/><line class="cls-5" x1="268.92" y1="837.73" x2="157.88" y2="837.73"/><line class="cls-5" x1="165.86" y1="1071.68" x2="165.86" y2="837.74"/><line class="cls-5" x1="513.13" y1="1071.97" x2="513.13" y2="946.71"/><line class="cls-5" x1="178.2" y1="1071.03" x2="178.2" y2="1047.76"/><line class="cls-5" x1="189.59" y1="1069.08" x2="189.59" y2="1047.76"/><path class="cls-5" d="M178.2,1047.76c0-3.63,2.55-6.58,5.7-6.58s5.7,2.95,5.7,6.58"/><line class="cls-5" x1="212.78" y1="1071.03" x2="212.78" y2="1047.76"/><line class="cls-5" x1="224.17" y1="1069.08" x2="224.17" y2="1047.76"/><path class="cls-5" d="M212.78,1047.76c0-3.63,2.55-6.58,5.7-6.58s5.7,2.95,5.7,6.58"/><line class="cls-5" x1="247.36" y1="1071.03" x2="247.36" y2="1047.76"/><line class="cls-5" x1="258.74" y1="1069.08" x2="258.74" y2="1047.76"/><path class="cls-5" d="M247.36,1047.76c0-3.63,2.55-6.58,5.7-6.58s5.7,2.95,5.7,6.58"/><line class="cls-5" x1="281.94" y1="1071.03" x2="281.94" y2="1047.76"/><line class="cls-5" x1="293.32" y1="1069.08" x2="293.32" y2="1047.76"/><path class="cls-5" d="M281.93,1047.76c0-3.63,2.55-6.58,5.7-6.58s5.7,2.95,5.7,6.58"/><line class="cls-5" x1="316.51" y1="1071.03" x2="316.51" y2="1047.76"/><line class="cls-5" x1="327.9" y1="1069.08" x2="327.9" y2="1047.76"/><path class="cls-5" d="M316.51,1047.76c0-3.63,2.55-6.58,5.7-6.58s5.7,2.95,5.7,6.58"/><line class="cls-5" x1="351.09" y1="1071.03" x2="351.09" y2="1047.76"/><line class="cls-5" x1="362.48" y1="1069.08" x2="362.48" y2="1047.76"/><path class="cls-5" d="M351.09,1047.76c0-3.63,2.55-6.58,5.7-6.58s5.7,2.95,5.7,6.58"/><line class="cls-5" x1="385.67" y1="1071.03" x2="385.67" y2="1047.76"/><line class="cls-5" x1="397.05" y1="1069.08" x2="397.05" y2="1063.04"/><path class="cls-5" d="M386.47,1044.42a7.26,7.26,0,0,0-.8,3.34"/><line class="cls-5" x1="420.25" y1="1071.35" x2="420.25" y2="1048.08"/><line class="cls-5" x1="431.64" y1="1069.4" x2="431.64" y2="1048.08"/><path class="cls-5" d="M420.25,1048.08c0-3.63,2.55-6.58,5.7-6.58s5.7,2.95,5.7,6.58"/><line class="cls-5" x1="454.83" y1="1064.82" x2="454.83" y2="1048.08"/><line class="cls-5" x1="466.22" y1="1069.4" x2="466.22" y2="1048.08"/><path class="cls-5" d="M454.83,1048.08c0-3.63,2.55-6.58,5.7-6.58s5.7,2.95,5.7,6.58"/><line class="cls-5" x1="489.41" y1="1071.97" x2="489.41" y2="1048.7"/><line class="cls-5" x1="500.8" y1="1070.02" x2="500.8" y2="1048.7"/><path class="cls-5" d="M489.41,1048.7c0-3.63,2.55-6.58,5.7-6.58s5.7,2.95,5.7,6.58"/><line class="cls-5" x1="178.2" y1="1015.44" x2="178.2" y2="992.17"/><line class="cls-5" x1="189.59" y1="1013.49" x2="189.59" y2="992.17"/><path class="cls-5" d="M178.2,992.17c0-3.63,2.55-6.58,5.7-6.58s5.7,2.95,5.7,6.58"/><line class="cls-5" x1="212.78" y1="1015.44" x2="212.78" y2="992.17"/><line class="cls-5" x1="224.17" y1="1013.49" x2="224.17" y2="992.17"/><path class="cls-5" d="M212.78,992.17c0-3.63,2.55-6.58,5.7-6.58s5.7,2.95,5.7,6.58"/><line class="cls-5" x1="247.36" y1="1015.44" x2="247.36" y2="992.17"/><line class="cls-5" x1="258.74" y1="1013.49" x2="258.74" y2="992.17"/><path class="cls-5" d="M247.36,992.17c0-3.63,2.55-6.58,5.7-6.58s5.7,2.95,5.7,6.58"/><line class="cls-5" x1="281.94" y1="1015.44" x2="281.94" y2="992.17"/><line class="cls-5" x1="293.32" y1="1013.49" x2="293.32" y2="992.17"/><path class="cls-5" d="M281.93,992.17c0-3.63,2.55-6.58,5.7-6.58s5.7,2.95,5.7,6.58"/><line class="cls-5" x1="316.51" y1="1015.44" x2="316.51" y2="992.17"/><line class="cls-5" x1="327.9" y1="1013.49" x2="327.9" y2="992.17"/><path class="cls-5" d="M316.51,992.17c0-3.63,2.55-6.58,5.7-6.58s5.7,2.95,5.7,6.58"/><line class="cls-5" x1="351.09" y1="1015.44" x2="351.09" y2="992.17"/><line class="cls-5" x1="362.48" y1="1013.49" x2="362.48" y2="1002.24"/><path class="cls-5" d="M351.09,992.17a6.9,6.9,0,0,1,2.54-5.47"/><line class="cls-5" x1="385.67" y1="1015.44" x2="385.67" y2="992.17"/><line class="cls-5" x1="397.06" y1="1013.49" x2="397.06" y2="992.17"/><path class="cls-5" d="M385.67,992.17c0-3.63,2.55-6.58,5.7-6.58s5.7,2.95,5.7,6.58"/><polyline class="cls-5" points="420.25 992.49 420.25 992.5 420.25 1004"/><line class="cls-5" x1="431.64" y1="1013.81" x2="431.64" y2="992.49"/><path class="cls-5" d="M420.25,992.49c0-3.63,2.55-6.58,5.7-6.58s5.7,2.95,5.7,6.58"/><line class="cls-5" x1="454.83" y1="1015.76" x2="454.83" y2="992.49"/><line class="cls-5" x1="466.22" y1="1013.81" x2="466.22" y2="992.49"/><path class="cls-5" d="M454.83,992.49c0-3.63,2.55-6.58,5.7-6.58s5.7,2.95,5.7,6.58"/><line class="cls-5" x1="489.41" y1="1016.38" x2="489.41" y2="993.11"/><line class="cls-5" x1="500.8" y1="1014.43" x2="500.8" y2="993.11"/><path class="cls-5" d="M489.41,993.11c0-3.63,2.55-6.58,5.7-6.58s5.7,2.95,5.7,6.58"/><polyline class="cls-5" points="268.92 837.73 288.38 871.95 307.28 905.18 321.44 930.07 327.91 941.45 338.91 960.79 348.31 977.33 353.64 986.69 362.48 1002.24 370.45 1016.25 370.54 1016.41 386.46 1044.42 397.05 1063.04 402.13 1071.97"/><polyline class="cls-5" points="387.67 946.71 395.67 960.79 410.88 987.54 420.96 1005.26 427.22 1016.25 427.31 1016.41 446.21 1049.65 458.9 1071.97"/><line class="cls-5" x1="183.89" y1="874.36" x2="183.89" y2="865.04"/><line class="cls-5" x1="218.47" y1="874.36" x2="218.47" y2="865.04"/><line class="cls-5" x1="253.05" y1="874.36" x2="253.05" y2="865.04"/><line class="cls-5" x1="348.17" y1="977.33" x2="404.94" y2="977.33"/><line class="cls-5" x1="178.2" y1="959.85" x2="178.2" y2="936.58"/><line class="cls-5" x1="189.59" y1="957.9" x2="189.59" y2="936.58"/><path class="cls-5" d="M178.2,936.58c0-3.63,2.55-6.58,5.7-6.58s5.7,2.95,5.7,6.58"/><line class="cls-5" x1="212.78" y1="959.85" x2="212.78" y2="936.58"/><line class="cls-5" x1="224.17" y1="957.9" x2="224.17" y2="936.58"/><path class="cls-5" d="M212.78,936.58c0-3.63,2.55-6.58,5.7-6.58s5.7,2.95,5.7,6.58"/><line class="cls-5" x1="247.36" y1="959.85" x2="247.36" y2="936.58"/><line class="cls-5" x1="258.74" y1="957.9" x2="258.74" y2="936.58"/><path class="cls-5" d="M247.36,936.58c0-3.63,2.55-6.58,5.7-6.58s5.7,2.95,5.7,6.58"/><line class="cls-5" x1="281.94" y1="959.85" x2="281.94" y2="936.58"/><line class="cls-5" x1="293.32" y1="957.9" x2="293.32" y2="936.58"/><path class="cls-5" d="M281.93,936.58c0-3.63,2.55-6.58,5.7-6.58s5.7,2.95,5.7,6.58"/><line class="cls-5" x1="316.51" y1="959.85" x2="316.51" y2="936.58"/><line class="cls-5" x1="327.91" y1="957.9" x2="327.91" y2="941.45"/><path class="cls-5" d="M316.51,936.58c0-3.33,2.15-6.08,4.93-6.52"/><line class="cls-5" x1="425.95" y1="964.81" x2="425.95" y2="959.66"/><line class="cls-5" x1="460.52" y1="964.81" x2="460.52" y2="959.66"/><line class="cls-5" x1="495.1" y1="964.81" x2="495.1" y2="959.66"/><path class="cls-4" d="M1993.22,1072a2.5,2.5,0,0,1-2.5,2.5H1886.16l-.16,0h-.22a2.07,2.07,0,0,1-.35,0h-70.77a2.18,2.18,0,0,1-.36,0h-.22l-.16,0H1709.24a2.5,2.5,0,0,1,0-5h10.37V859.63c0-14.88,3.71-82.79,9.78-149.1v0a.17.17,0,0,1,0-.07c3.3-36.07,8.51-84.71,14.79-114.15a13.22,13.22,0,1,1,11.45-.21c8.44,39.54,15.87,118.57,20.46,184.91,3.48-62.25,12.18-174.16,23-224.83a13.21,13.21,0,1,1,11.4-.17c10.1,49.13,18.25,160.11,22.36,224.92l8.43-3.84a2.34,2.34,0,0,1,1.24-.2l6.34-25.43a2.5,2.5,0,0,1,2.42-1.9h.05a2.5,2.5,0,0,1,2.4,2l5.29,25.62,7.44,3.39c3.26-57.6,11.91-172.79,23-224.63a13.22,13.22,0,1,1,11.46.19c10.81,50.78,19.49,162.62,23,224.82,4.61-66.43,12-145.49,20.47-184.89a13.21,13.21,0,1,1,11.44.2c6.28,29.44,11.49,78.09,14.79,114.15a.17.17,0,0,1,0,.07v0c6.06,66.31,9.77,134.22,9.77,149.1v210h10.39A2.5,2.5,0,0,1,1993.22,1072Z"/><line class="cls-5" x1="1709.24" y1="1072.05" x2="1990.71" y2="1072.05"/><circle class="cls-5" cx="1804.59" cy="544.16" r="10.72"/><path class="cls-5" d="M1802,554.61c-13,58.89-23,208.29-24.71,254.39-.16,4.6-.25,8.18-.25,10.52v18.23"/><path class="cls-5" d="M1807.61,554.52c10.62,49.55,19.2,170.31,23,230.18,1.33,21.25,2.07,34.82,2.07,34.82v66.23"/><line class="cls-5" x1="1786.61" y1="685.3" x2="1823.02" y2="685.3"/><line class="cls-5" x1="1767.91" y1="710.74" x2="1731.88" y2="710.74"/><circle class="cls-5" cx="1749.71" cy="584.28" r="10.72"/><path class="cls-5" d="M1747.08,594.74c-5.84,26.34-11.06,70.79-15.2,116-6,65.94-9.77,133.52-9.77,148.89V1072"/><path class="cls-5" d="M1777.75,921.18V859.64c0-4-.25-11.65-.75-21.89v-.1c-.37-7.87-.89-17.31-1.53-27.84-3.86-63.86-12.3-168.3-22.69-215.17"/><line class="cls-5" x1="1842.3" y1="779.35" x2="1723.31" y2="833.57"/><polyline class="cls-5" points="1745.11 1072.05 1777.75 921.18 1798.78 1020.66"/><polyline class="cls-2" points="1786.66 1072.05 1850.57 813.84 1913.03 1072.05"/><path class="cls-5" d="M1759.64,1069.92c2-23.55,11.73-43.41,11.73-43.41s2.53-5.62,5.66-5.62"/><path class="cls-5" d="M1777,1020.9c3.12,0,5.66,5.62,5.66,5.62a135.75,135.75,0,0,1,8.55,24.6"/><circle class="cls-5" cx="1895.36" cy="544.11" r="10.72"/><path class="cls-5" d="M1922.95,837.7V819.47c0-2.35-.09-5.93-.25-10.52-1.69-46.1-11.65-195.5-24.7-254.39"/><path class="cls-5" d="M1892.31,554.46c-11.26,50.67-20.21,168.7-23.57,229.9-.92,16.92-1.41,29.5-1.41,35.11V882.9"/><line class="cls-5" x1="1913.34" y1="685.25" x2="1876.93" y2="685.25"/><line class="cls-5" x1="1968.07" y1="710.69" x2="1932.04" y2="710.69"/><circle class="cls-5" cx="1950.25" cy="584.24" r="10.72"/><path class="cls-5" d="M1952.87,594.69c5.84,26.34,11.06,70.79,15.2,116,6,65.94,9.77,133.52,9.77,148.89V1072"/><path class="cls-5" d="M1947.19,594.59c-10.41,46.87-18.84,151.31-22.71,215.17-1.47,24.27-2.27,42.68-2.27,49.83v61.55"/><line class="cls-5" x1="1976.64" y1="833.53" x2="1857.66" y2="779.3"/><polyline class="cls-5" points="1901.17 1020.61 1922.2 921.14 1954.84 1072"/><path class="cls-2" d="M1885.79,1072.07c-4.13-48.41-24.12-89.23-24.12-89.23s-5.2-11.55-11.63-11.55"/><path class="cls-2" d="M1814.3,1072.07c4.13-48.41,24.12-89.23,24.12-89.23s5.2-11.55,11.63-11.55"/><path class="cls-5" d="M1940.31,1069.87c-2-23.55-11.73-43.41-11.73-43.41s-2.53-5.62-5.66-5.62"/><path class="cls-5" d="M1908.71,1051.07a135.75,135.75,0,0,1,8.55-24.6s2.53-5.62,5.66-5.62"/><path class="cls-5" d="M1839.68,798.55a9.63,9.63,0,0,0-1.26,4.76c0,5.82,5.21,10.54,11.62,10.54s11.62-4.72,11.62-10.54a9.82,9.82,0,0,0-.35-2.57l0-.06"/><polyline class="cls-5" points="1861.32 800.74 1851.26 752.05 1839.67 798.55"/><line class="cls-5" x1="1737.91" y1="799.29" x2="1737.91" y2="811.12"/><line class="cls-5" x1="1749.84" y1="792.03" x2="1749.84" y2="803.86"/><line class="cls-5" x1="1749.84" y1="768.22" x2="1749.84" y2="780.05"/><line class="cls-5" x1="1749.84" y1="744.42" x2="1749.84" y2="756.25"/><line class="cls-5" x1="1762.14" y1="785.98" x2="1762.14" y2="797.81"/><line class="cls-5" x1="1762.14" y1="762.18" x2="1762.14" y2="774.01"/><line class="cls-5" x1="1762.14" y1="738.37" x2="1762.14" y2="750.2"/><line class="cls-5" x1="1737.65" y1="775.48" x2="1737.65" y2="787.31"/><line class="cls-5" x1="1737.65" y1="751.68" x2="1737.65" y2="763.5"/><line class="cls-5" x1="1749.84" y1="840.41" x2="1749.84" y2="894.6"/><line class="cls-5" x1="1762.14" y1="834.36" x2="1762.14" y2="888.56"/><line class="cls-5" x1="1737.65" y1="847.66" x2="1737.65" y2="901.86"/><line class="cls-5" x1="1792.83" y1="774.8" x2="1792.83" y2="786.63"/><line class="cls-5" x1="1804.76" y1="767.54" x2="1804.76" y2="779.37"/><line class="cls-5" x1="1804.76" y1="743.73" x2="1804.76" y2="755.56"/><line class="cls-5" x1="1804.76" y1="719.93" x2="1804.76" y2="731.76"/><line class="cls-5" x1="1817.06" y1="761.49" x2="1817.06" y2="773.32"/><line class="cls-5" x1="1817.06" y1="737.69" x2="1817.06" y2="749.52"/><line class="cls-5" x1="1817.06" y1="713.88" x2="1817.06" y2="725.71"/><line class="cls-5" x1="1792.57" y1="750.99" x2="1792.57" y2="762.82"/><line class="cls-5" x1="1792.57" y1="727.18" x2="1792.57" y2="739.01"/><line class="cls-5" x1="1804.76" y1="815.92" x2="1804.76" y2="870.11"/><line class="cls-5" x1="1817.06" y1="809.87" x2="1817.06" y2="864.07"/><line class="cls-5" x1="1792.57" y1="823.17" x2="1792.57" y2="877.37"/><line class="cls-5" x1="1962.39" y1="799.29" x2="1962.39" y2="811.12"/><line class="cls-5" x1="1950.46" y1="792.03" x2="1950.46" y2="803.86"/><line class="cls-5" x1="1950.46" y1="768.22" x2="1950.46" y2="780.05"/><line class="cls-5" x1="1950.46" y1="744.42" x2="1950.46" y2="756.25"/><line class="cls-5" x1="1938.16" y1="785.98" x2="1938.16" y2="797.81"/><line class="cls-5" x1="1938.16" y1="762.18" x2="1938.16" y2="774.01"/><line class="cls-5" x1="1938.16" y1="738.37" x2="1938.16" y2="750.2"/><line class="cls-5" x1="1962.65" y1="775.48" x2="1962.65" y2="787.31"/><line class="cls-5" x1="1962.65" y1="751.68" x2="1962.65" y2="763.5"/><line class="cls-5" x1="1950.46" y1="840.41" x2="1950.46" y2="894.6"/><line class="cls-5" x1="1938.16" y1="834.36" x2="1938.16" y2="888.56"/><line class="cls-5" x1="1962.65" y1="847.66" x2="1962.65" y2="901.86"/><line class="cls-5" x1="1907.47" y1="774.8" x2="1907.47" y2="786.63"/><line class="cls-5" x1="1895.54" y1="767.54" x2="1895.54" y2="779.37"/><line class="cls-5" x1="1895.54" y1="743.73" x2="1895.54" y2="755.56"/><line class="cls-5" x1="1895.54" y1="719.93" x2="1895.54" y2="731.76"/><line class="cls-5" x1="1883.24" y1="761.49" x2="1883.24" y2="773.32"/><line class="cls-5" x1="1883.24" y1="737.69" x2="1883.24" y2="749.52"/><line class="cls-5" x1="1883.24" y1="713.88" x2="1883.24" y2="725.71"/><line class="cls-5" x1="1907.73" y1="750.99" x2="1907.73" y2="762.82"/><line class="cls-5" x1="1907.73" y1="727.18" x2="1907.73" y2="739.01"/><line class="cls-5" x1="1895.54" y1="815.92" x2="1895.54" y2="870.11"/><line class="cls-5" x1="1883.24" y1="809.87" x2="1883.24" y2="864.07"/><line class="cls-5" x1="1907.73" y1="823.17" x2="1907.73" y2="877.37"/><path class="cls-4" d="M2207.94,1061.5v10.57a2.5,2.5,0,0,1-2.5,2.5H1928.68a2.37,2.37,0,0,1-1.18-.3,2.19,2.19,0,0,1-.58-.43,2.47,2.47,0,0,1-.74-1.77V1061.5a2.5,2.5,0,0,1,2.5-2.5h6.14v-8.06a2.5,2.5,0,0,1,2.5-2.5h10V930.57h-9.7a2.51,2.51,0,0,1-2.5-2.51V904.28h-4.69a2.5,2.5,0,0,1-2.5-2.5v-9.25a2.22,2.22,0,0,1,0-.37.94.94,0,0,1,.05-.23c0-.08.05-.16.07-.23h0a2.14,2.14,0,0,1,.15-.35,2.39,2.39,0,0,1,.13-.21l0-.06,0,0a1.05,1.05,0,0,1,.14-.17.28.28,0,0,1,.09-.1,1.75,1.75,0,0,1,.29-.25l.08-.06.09-.05h0l.2-.1.17-.07a1.82,1.82,0,0,1,.18-.08l.12,0,136.53-42.82h0l.26-.06.2,0h.6a.57.57,0,0,1,.18,0l.24.06h0l136.58,42.84.08,0,.21.08,0,0a.78.78,0,0,1,.16.08l.22.13a.58.58,0,0,1,.15.11l0,0,.18.16.08.1a.7.7,0,0,1,.14.17.62.62,0,0,1,.15.22.24.24,0,0,1,.06.09l.06.13a.36.36,0,0,1,0,.09.31.31,0,0,1,0,.12s0,0,0,0a1.69,1.69,0,0,1,.07.24.11.11,0,0,1,0,.08.93.93,0,0,1,0,.24.55.55,0,0,1,0,.18.28.28,0,0,1,0,.09v9.24a2.47,2.47,0,0,1-.74,1.77,2.51,2.51,0,0,1-.58.43,2.15,2.15,0,0,1-.44.19,2.62,2.62,0,0,1-.75.11h-4.68v23.78a2.51,2.51,0,0,1-2.5,2.51h-9.71v117.87h10a2.5,2.5,0,0,1,2.5,2.5V1059h6.13a2.47,2.47,0,0,1,1.77.74,2.62,2.62,0,0,1,.62,1A2.55,2.55,0,0,1,2207.94,1061.5Z"/><path class="cls-4" d="M1926.19,1061.51v10.56a2.49,2.49,0,0,0,2.5,2.5h276.75a2.5,2.5,0,0,0,2.5-2.5v-10.56a2.5,2.5,0,0,0-2.5-2.5h-6.13v-8.07a2.5,2.5,0,0,0-2.5-2.5h-10V930.57h9.71a2.5,2.5,0,0,0,2.5-2.5V904.28h4.69a2.5,2.5,0,0,0,2.5-2.5v-9.24s0-.06,0-.09l0-.31c0-.07,0-.13,0-.19a2.75,2.75,0,0,0-.08-.27c0-.07-.05-.13-.08-.19a1.38,1.38,0,0,0-.13-.24l-.11-.18-.18-.21-.14-.14-.21-.18-.18-.12a1.19,1.19,0,0,0-.22-.12l-.23-.1-.11,0-136.68-42.86h0a1.61,1.61,0,0,0-.32-.06l-.16,0h-.49l-.16,0a1.61,1.61,0,0,0-.32.06h0l-136.68,42.86a.31.31,0,0,0-.1,0l-.25.1-.21.11-.19.14-.19.16-.17.16-.15.19-.13.2a2.13,2.13,0,0,0-.11.21,1.57,1.57,0,0,0-.1.23c0,.07,0,.15-.07.23a1.86,1.86,0,0,0,0,.23,1.24,1.24,0,0,0,0,.27s0,.07,0,.11v9.24a2.5,2.5,0,0,0,2.5,2.5h4.69v23.79a2.5,2.5,0,0,0,2.5,2.5h9.71v117.87h-10a2.5,2.5,0,0,0-2.5,2.5V1059h-6.13A2.49,2.49,0,0,0,1926.19,1061.51Z"/><rect class="cls-5" x="2168.87" y="928.07" width="15.47" height="122.87" transform="translate(4353.21 1979.01) rotate(180)"/><rect class="cls-5" x="2125.05" y="928.07" width="15.47" height="122.87" transform="translate(4265.58 1979.01) rotate(180)"/><rect class="cls-5" x="2081.24" y="928.07" width="15.47" height="122.87" transform="translate(4177.94 1979.01) rotate(180)"/><rect class="cls-5" x="2037.42" y="928.07" width="15.47" height="122.87" transform="translate(4090.31 1979.01) rotate(180)"/><rect class="cls-5" x="1993.6" y="928.07" width="15.47" height="122.87" transform="translate(4002.67 1979.01) rotate(180)"/><rect class="cls-5" x="1949.78" y="928.07" width="15.47" height="122.87" transform="translate(3915.04 1979.01) rotate(180)"/><line class="cls-5" x1="2078.66" y1="928.07" x2="2055.46" y2="928.07"/><rect class="cls-5" x="1937.58" y="917.51" width="258.97" height="10.56" transform="translate(4134.12 1845.57) rotate(180)"/><polyline class="cls-5" points="2203.74 892.54 2203.74 901.78 2196.55 901.78 1937.57 901.78 1930.39 901.78 1930.39 892.54"/><line class="cls-5" x1="1963.67" y1="892.54" x2="2170.45" y2="892.54"/><rect class="cls-5" x="1937.32" y="1050.94" width="259.49" height="10.56" transform="translate(4134.12 2112.45) rotate(180)"/><rect class="cls-5" x="1928.68" y="1061.51" width="276.76" height="10.56" transform="translate(4134.12 2133.58) rotate(180)"/><rect class="cls-5" x="1937.58" y="901.78" width="258.97" height="15.72" transform="translate(4134.12 1819.29) rotate(180)"/><line class="cls-5" x1="2203.74" y1="892.54" x2="2067.06" y2="849.67"/><line class="cls-5" x1="1930.39" y1="892.54" x2="2067.06" y2="849.67"/><line class="cls-5" x1="2067.06" y1="860.11" x2="2170.45" y2="892.54"/><line class="cls-5" x1="1963.67" y1="892.54" x2="2067.06" y2="860.11"/><rect class="cls-5" x="2050.48" y="875.06" width="35.63" height="17.48" transform="translate(4136.6 1767.6) rotate(180)"/><path class="cls-4" d="M2809.76,708.89V815.24A2.71,2.71,0,0,1,2807,818h-5.36v248.34A2.72,2.72,0,0,1,2799,1069h-92.66a2.72,2.72,0,0,1-2.71-2.71V818h-5.36a2.7,2.7,0,0,1-2.71-2.71V708.89a2.71,2.71,0,0,1,2.71-2.71h5.36V687.74a2.64,2.64,0,0,1,.24-1.11l.09-.19,21.13-47.21V626.15c0-.11,0-.22,0-.33a1.73,1.73,0,0,1,.07-.33c0-.1.05-.2.09-.29a2.31,2.31,0,0,1,.15-.34l0-.08,24.5-45.82V561.41a2.71,2.71,0,1,1,5.43,0v17.54l24.51,45.85,0,.08a2.5,2.5,0,0,1,.22.53c0,.05,0,.12.05.18l0,.23a3.08,3.08,0,0,1,0,.31v13.11l21.13,47.21.09.19a2.64,2.64,0,0,1,.24,1.11v18.44H2807A2.72,2.72,0,0,1,2809.76,708.89Z"/><rect class="cls-5" x="2706.31" y="815.25" width="92.66" height="251.04"/><rect class="cls-5" x="2698.23" y="708.89" width="108.82" height="106.35"/><rect class="cls-5" x="2706.31" y="687.74" width="92.66" height="21.15"/><polygon class="cls-5" points="2798.97 687.74 2706.31 687.74 2727.86 639.62 2777.42 639.62 2798.97 687.74"/><rect class="cls-5" x="2727.76" y="626.15" width="49.74" height="13.47"/><circle class="cls-5" cx="2752.64" cy="762.07" r="38.79"/><polyline class="cls-5" points="2752.64 734.3 2752.64 762.07 2767.71 746.99"/><rect class="cls-5" x="2706.31" y="898.93" width="92.66" height="83.68"/><polygon class="cls-5" points="2777.51 626.15 2727.76 626.15 2752.64 579.64 2752.64 579.64 2777.51 626.15"/><line class="cls-5" x1="2752.64" y1="561.41" x2="2752.64" y2="580.88"/><g class="cls-6"><line class="cls-5" x1="2723.54" y1="999.4" x2="2723.54" y2="1051.38"/><line class="cls-5" x1="2742.94" y1="999.4" x2="2742.94" y2="1051.38"/><line class="cls-5" x1="2762.33" y1="999.4" x2="2762.33" y2="1051.38"/><line class="cls-5" x1="2781.73" y1="999.4" x2="2781.73" y2="1051.38"/></g><line class="cls-5" x1="2723.54" y1="914.78" x2="2723.54" y2="966.76"/><line class="cls-5" x1="2742.94" y1="914.78" x2="2742.94" y2="966.76"/><line class="cls-5" x1="2762.33" y1="914.78" x2="2762.33" y2="966.76"/><line class="cls-5" x1="2781.73" y1="914.78" x2="2781.73" y2="966.76"/><line class="cls-5" x1="2723.54" y1="830.16" x2="2723.54" y2="882.14"/><line class="cls-5" x1="2742.94" y1="830.16" x2="2742.94" y2="882.14"/><line class="cls-5" x1="2762.33" y1="830.16" x2="2762.33" y2="882.14"/><line class="cls-5" x1="2781.73" y1="830.16" x2="2781.73" y2="882.14"/><path class="cls-4" d="M2548.7,945.85s0,0,0,0l7.52,11.24,95.35-155.77a1,1,0,0,1,.12-.16l.11-.15a3.09,3.09,0,0,1,.41-.4h0a2.67,2.67,0,0,1,.52-.29l.16,0a2.79,2.79,0,0,1,.48-.11l.09,0h0a2.6,2.6,0,0,1,.62,0l.08,0a3,3,0,0,1,.5.17l.13.06.14.07a1.8,1.8,0,0,1,.31.24l.07,0a2.44,2.44,0,0,1,.39.46l0,0,171,269.43a2.53,2.53,0,0,1,.08,2.54,2.5,2.5,0,0,1-2.19,1.3H2374.81a2.5,2.5,0,0,1-.61-.08l-.15-.05a1.58,1.58,0,0,1-.42-.18.6.6,0,0,1-.14-.07,2.77,2.77,0,0,1-.46-.37l-.06-.06a3.27,3.27,0,0,1-.31-.42s0,0,0-.07a.41.41,0,0,0,0-.08,3.42,3.42,0,0,1-.18-.48l0-.09a2.5,2.5,0,0,1-.06-.55.11.11,0,0,1,0-.05s0-.1,0-.14a2.44,2.44,0,0,1,.08-.47,1.42,1.42,0,0,1,.05-.16,2.86,2.86,0,0,1,.22-.47l0-.06,125.37-194.22s.08-.09.11-.14l.12-.15a2.82,2.82,0,0,1,.36-.33l.08-.07a2.48,2.48,0,0,1,.51-.27l.16,0a2.31,2.31,0,0,1,.44-.1l.11,0h.06a3,3,0,0,1,.6,0h0a3.18,3.18,0,0,1,.52.17l.17.09a.92.92,0,0,1,.17.09,1.22,1.22,0,0,1,.18.14l.15.11a2.71,2.71,0,0,1,.39.45,0,0,0,0,0,0,0"/><polyline class="cls-5" points="2574.75 989.28 2653.72 802.65 2824.72 1072.07 2630.17 1072.07 2551.88 1072.07 2539.73 1072.07"/><line class="cls-5" x1="2489.95" y1="1072.07" x2="2488.81" y2="1072.07"/><line class="cls-5" x1="2653.72" y1="802.65" x2="2556.33" y2="961.75"/><line class="cls-5" x1="2488.81" y1="1072.07" x2="2551.89" y2="1072.07"/><polygon class="cls-5" points="2413.52 1072.07 2630.17 1072.07 2500.18 877.85 2413.52 1072.07"/><polyline class="cls-5" points="2500.18 877.85 2374.81 1072.07 2375.68 1072.07"/><line class="cls-5" x1="2374.81" y1="1072.07" x2="2422.76" y2="1072.07"/><line class="cls-5" x1="2426.18" y1="1072.07" x2="2495.27" y2="1072.07"/><line class="cls-5" x1="2427.82" y1="1040.87" x2="2495.27" y2="1040.87"/><line class="cls-5" x1="2442.83" y1="1009.67" x2="2586.28" y2="1009.67"/><line class="cls-5" x1="2455.75" y1="978.47" x2="2475.7" y2="978.47"/><line class="cls-5" x1="2526.43" y1="1040.87" x2="2546.38" y2="1040.87"/><line class="cls-5" x1="2570.39" y1="1040.87" x2="2609.43" y2="1040.87"/><line class="cls-5" x1="2504.58" y1="978.47" x2="2567.47" y2="978.47"/><line class="cls-5" x1="2469.47" y1="947.27" x2="2501.06" y2="947.27"/><line class="cls-5" x1="2518.63" y1="947.27" x2="2546.64" y2="947.27"/><line class="cls-5" x1="2483.96" y1="916.06" x2="2505.62" y2="916.06"/><line class="cls-5" x1="2808.76" y1="1048.09" x2="2742.17" y2="1048.09"/><line class="cls-5" x1="2794.32" y1="1026.81" x2="2720.6" y2="1026.81"/><line class="cls-5" x1="2782.07" y1="1005.53" x2="2585.82" y2="1005.53"/><line class="cls-5" x1="2767.82" y1="984.25" x2="2720.6" y2="984.25"/><line class="cls-5" x1="2755.07" y1="962.97" x2="2686.78" y2="962.97"/><line class="cls-5" x1="2714.66" y1="941.69" x2="2691.22" y2="941.69"/><line class="cls-5" x1="2604.07" y1="920.41" x2="2635.49" y2="920.41"/><line class="cls-5" x1="2699.66" y1="899.13" x2="2613.32" y2="899.13"/><line class="cls-5" x1="2648.93" y1="877.85" x2="2673.66" y2="877.85"/><line class="cls-5" x1="2615.16" y1="1048.09" x2="2652.4" y2="1048.09"/><line class="cls-5" x1="2690.58" y1="984.25" x2="2668.64" y2="984.25"/><line class="cls-5" x1="2679.61" y1="1026.81" x2="2657.67" y2="1026.81"/><line class="cls-5" x1="2630.17" y1="962.97" x2="2649.83" y2="962.97"/><line class="cls-5" x1="2663.46" y1="920.41" x2="2727.32" y2="920.41"/><line class="cls-5" x1="2650.57" y1="856.57" x2="2631.32" y2="856.57"/><line class="cls-5" x1="2635.49" y1="1048.09" x2="2711.1" y2="1048.09"/><line class="cls-5" x1="2580.31" y1="984.25" x2="2648.69" y2="984.25"/><line class="cls-5" x1="2600.82" y1="1026.81" x2="2627.13" y2="1026.81"/><path class="cls-4" d="M998.07,925.45v61.29a2.26,2.26,0,0,1,0,.26v85.07a2.49,2.49,0,0,1-2.5,2.5h-274a2.5,2.5,0,0,1-2.5-2.5V984.79a3,3,0,0,1,.05-.52l4.72-22.36L740,885.13a2.48,2.48,0,0,1,2.44-2h0a2.49,2.49,0,0,1,2.43,2l13.3,72.21V898l-6.31-17.23a23.16,23.16,0,0,1-9.59-19.31c0-12.44,7.45-22.17,18-34.57a.9.9,0,0,1,.1-.1c9.44-10,13.74-20.71,13.74-26.5V773.89a2.5,2.5,0,1,1,5,0V799c0,5.79,4.3,16.56,13.74,26.51l.09.1c7.52,8.86,13.47,16.37,16.25,24.47A31,31,0,0,1,818,837c9.91-8.52,14.52-17.08,14.52-26.94V788.76a2.5,2.5,0,0,1,5,0v21.33c0,9.86,4.62,18.42,14.52,26.94a26.34,26.34,0,0,1,2.15,2.06l32.12-118.32V693.49a2.22,2.22,0,0,1-.61-.32A11,11,0,0,1,881,683.9c0-5.63,3.21-9.84,7.75-15.19l.09-.1c3.86-4.07,5.26-8.15,5.26-9.91V647.84a2.5,2.5,0,0,1,5,0v10.34c0,1.75,1.4,5.84,5.26,9.9l.09.1c4.54,5.35,7.75,9.57,7.75,15.2a10.85,10.85,0,0,1-3.91,8.61,2.5,2.5,0,0,1-1.42,1.48v26.88l32.62,120.18a30.27,30.27,0,0,1,7.62-11.72c8.83-8.28,13-16.62,13-26.23V782.15a2.5,2.5,0,0,1,5,0v20.43c0,9.61,4.12,17.95,12.95,26.23a31.29,31.29,0,0,1,9.55,22.28c.06,6.9-2.22,13.05-6.44,17.39v28.06l16.55,27.33a2.45,2.45,0,0,1,.36,1.29v0A2.26,2.26,0,0,1,998.07,925.45Z"/><polyline class="cls-5" points="995.57 986.74 995.57 1072.07 721.52 1072.07 721.52 1037.52"/><path class="cls-5" d="M835.07,810.09c0,9.54-3.87,18.93-15.39,28.84s-13.4,28.24-2.91,37.55"/><path class="cls-5" d="M853.37,876.49c10.49-9.31,8.61-27.64-2.91-37.55s-15.39-19.3-15.39-28.84V788.76"/><path class="cls-5" d="M962.59,802.58c0,9.28-3.45,18.41-13.74,28.06s-12,27.47-2.6,36.53"/><path class="cls-5" d="M978.93,867.17c9.37-9.06,7.69-26.89-2.6-36.53s-13.74-18.78-13.74-28.06V782.15"/><path class="cls-5" d="M776.59,800.25c0,6.59-4.73,18-14.43,28.22-10.57,12.45-17.37,21.5-17.37,33a20.71,20.71,0,0,0,9,17.6"/><path class="cls-5" d="M776.59,799c0,6.59,4.73,18,14.43,28.22,10.57,12.45,17.37,21.5,17.37,33,0,8.44-5.47,15.16-10.52,18.88"/><polyline class="cls-5" points="797.86 879.03 753.91 879.03 760.69 897.52 781.52 897.52"/><line class="cls-5" x1="776.59" y1="773.89" x2="776.59" y2="800.25"/><path class="cls-5" d="M896.63,658.7c0,2.72-1.95,7.42-5.94,11.63-4.35,5.13-7.15,8.86-7.15,13.57a8.53,8.53,0,0,0,3.69,7.25"/><path class="cls-5" d="M896.63,658.18c0,2.72,1.95,7.42,5.94,11.63,4.35,5.13,7.15,8.86,7.15,13.57a8.53,8.53,0,0,1-3.69,7.25"/><line class="cls-5" x1="905.97" y1="691.16" x2="887.29" y2="691.16"/><line class="cls-5" x1="896.63" y1="647.84" x2="896.63" y2="658.7"/><rect class="cls-5" x="888.86" y="691.16" width="15.54" height="29.52"/><polyline class="cls-5" points="904.4 720.67 939.72 850.82 904.4 850.82 860.27 850.82"/><line class="cls-5" x1="888.98" y1="720.67" x2="855.37" y2="844.47"/><polyline class="cls-5" points="858.6 850.82 860.26 850.82 888.98 850.82 933.11 850.82"/><rect class="cls-5" x="816.78" y="876.49" width="36.73" height="38.45"/><path class="cls-5" d="M800.11,883.63c0,5.2-2.11,10.33-8.4,15.73s-7.31,15.41-1.59,20.49"/><path class="cls-5" d="M800.11,883.63c0,5.2,2.11,10.33,8.4,15.73s7.31,15.41,1.59,20.49"/><polyline class="cls-5" points="790.14 947.99 790.14 920.38 810.08 920.38"/><rect class="cls-5" x="946.54" y="867.17" width="32.11" height="30.34"/><line class="cls-5" x1="883.54" y1="791.66" x2="922.94" y2="791.66"/><rect class="cls-5" x="808.03" y="930.86" width="54.22" height="55.88"/><line class="cls-5" x1="791.14" y1="1037.52" x2="884.79" y2="1037.52"/><polyline class="cls-5" points="901.12 1008.07 721.52 1008.07 721.52 1022.8 721.52 1037.52 757.64 1037.52"/><polyline class="cls-5" points="931.44 1008.07 959.05 1008.07 995.57 1008.07"/><line class="cls-5" x1="995.56" y1="1037.52" x2="945.94" y2="1037.52"/><line class="cls-5" x1="791.14" y1="1037.52" x2="884.79" y2="1037.52"/><polyline class="cls-5" points="818.59 1022.8 721.52 1022.8 721.52 1037.52 757.64 1037.52"/><line class="cls-5" x1="873.08" y1="1022.8" x2="834.04" y2="1022.8"/><line class="cls-5" x1="995.56" y1="1022.8" x2="964.74" y2="1022.8"/><line class="cls-5" x1="995.56" y1="1037.52" x2="950.26" y2="1037.52"/><rect class="cls-5" x="808.03" y="986.74" width="54.22" height="21.33"/><rect class="cls-5" x="760.69" y="947.99" width="29.45" height="60.09"/><line class="cls-5" x1="995.56" y1="986.76" x2="922.43" y2="986.76"/><line class="cls-5" x1="910.74" y1="986.75" x2="860.97" y2="986.75"/><line class="cls-5" x1="853.51" y1="914.94" x2="862.25" y2="930.86"/><line class="cls-5" x1="816.78" y1="914.94" x2="808.03" y2="931.62"/><rect class="cls-5" x="929.62" y="925.46" width="65.95" height="61.29"/><line class="cls-5" x1="978.65" y1="897.23" x2="995.57" y2="925.17"/><line class="cls-5" x1="946.81" y1="897.23" x2="929.89" y2="925.17"/><line class="cls-5" x1="760.69" y1="897.52" x2="760.69" y2="947.99"/><polyline class="cls-5" points="937.66 1022.8 931.44 1008.08 916.77 973.38 894.47 1022.8 894.47 1022.8 894.47 1037.52 894.47 1072.06 937.66 1072.06 937.66 1037.52 937.66 1022.8"/><line class="cls-5" x1="828.26" y1="890.69" x2="828.26" y2="904.34"/><line class="cls-5" x1="841.89" y1="890.69" x2="841.89" y2="904.34"/><line class="cls-5" x1="955.78" y1="876.31" x2="955.78" y2="886.87"/><line class="cls-5" x1="969.4" y1="876.31" x2="969.4" y2="886.87"/><path class="cls-5" d="M907.45,864c0,7.27-2.95,14.42-11.73,22s-10.21,21.52-2.22,28.62"/><path class="cls-5" d="M907.45,864c0,7.27,2.95,14.42,11.73,22s10.21,21.52,2.22,28.62"/><rect class="cls-5" x="893.53" y="915.32" width="27.85" height="24.56"/><line class="cls-5" x1="893.53" y1="939.28" x2="885.86" y2="985.54"/><line class="cls-5" x1="921.38" y1="939.88" x2="929.04" y2="986.14"/><line class="cls-5" x1="907.45" y1="924.95" x2="907.45" y2="930.24"/><polygon class="cls-5" points="760.69 984.79 721.52 984.79 742.43 885.65 760.69 984.79"/><line class="cls-5" x1="721.52" y1="984.79" x2="721.52" y2="1008.07"/><polyline class="cls-2" points="929.04 986.74 945.98 949.12 962.3 986.74"/><polyline class="cls-2" points="963.52 986.74 980.46 949.12 996.78 986.74"/><line class="cls-5" x1="726.24" y1="962.41" x2="744.73" y2="962.41"/><rect class="cls-5" x="905.17" y="1037.52" width="23.21" height="34.55"/><path class="cls-4" d="M1289.31,1040.25v31.82a2.49,2.49,0,0,1-2.5,2.5H958.51a2.5,2.5,0,0,1-2.5-2.5v-31.82a2.5,2.5,0,0,1,2.5-2.5h19.24v-26.67a2.5,2.5,0,0,1,2.5-2.5h18.19V983.8a2.5,2.5,0,0,1,2.5-2.5h16.19V958.92a2.49,2.49,0,0,1,2.5-2.5h15.68V934a2.49,2.49,0,0,1,2.5-2.5H1052V913.71a2.5,2.5,0,0,1,2.5-2.5h14.67V896.36a2.5,2.5,0,0,1,2.5-2.5h13.43V858.37a2.5,2.5,0,0,1,2.5-2.5h70.18a2.5,2.5,0,0,1,2.5,2.5v35.49h13.44a2.5,2.5,0,0,1,2.5,2.5v14.85h14.67a2.5,2.5,0,0,1,2.5,2.5v17.83h14.16a2.49,2.49,0,0,1,2.5,2.5v22.38h15.67a2.49,2.49,0,0,1,2.5,2.5V981.3h16.18a2.5,2.5,0,0,1,2.5,2.5v24.78h18.21a2.5,2.5,0,0,1,2.5,2.5v26.67h19.23A2.49,2.49,0,0,1,1289.31,1040.25Z"/><line class="cls-5" x1="1165.99" y1="1029.56" x2="1079.33" y2="1029.56"/><line class="cls-5" x1="1164.88" y1="1009.68" x2="1080.44" y2="1009.68"/><line class="cls-5" x1="1163.08" y1="989.79" x2="1082.24" y2="989.79"/><line class="cls-5" x1="1160.4" y1="969.9" x2="1084.92" y2="969.9"/><line class="cls-5" x1="1153.81" y1="930.12" x2="1091.51" y2="930.12"/><line class="cls-5" x1="1158.35" y1="950.01" x2="1086.97" y2="950.01"/><path class="cls-5" d="M1092.11,910.23"/><path class="cls-5" d="M1153.22,910.23"/><rect class="cls-5" x="1087.57" y="858.38" width="70.18" height="37.98"/><polyline class="cls-5" points="1188.03 1040.25 1265.08 1040.25 1265.08 1011.09 1244.37 1011.09 1181.87 1011.09"/><polyline class="cls-5" points="1181.87 1011.09 1244.37 1011.09 1244.37 983.81 1225.69 983.81 1176.1 983.81"/><polygon class="cls-5" points="1225.69 958.92 1225.69 983.8 1176.1 983.8 1170.85 958.92 1225.69 958.92"/><polyline class="cls-5" points="1170.85 958.92 1207.52 958.92 1207.52 934.04 1190.86 934.04 1165.6 934.04"/><polyline class="cls-5" points="1165.6 934.04 1190.86 934.04 1190.86 913.72 1173.69 913.72 1161.3 913.72"/><polyline class="cls-5" points="1057.18 1040.25 980.25 1040.25 958.51 1040.25 958.51 1072.08 1050.45 1072.08 1071.64 1072.08 1173.57 1072.08 1194.75 1072.08 1286.81 1072.08 1286.81 1040.25 1265.08 1040.25 1188.03 1040.25"/><polyline class="cls-5" points="1063.34 1011.09 1000.95 1011.09 980.25 1011.09 980.25 1040.25 1057.18 1040.25"/><polyline class="cls-5" points="1063.34 1011.09 1000.95 1011.09 1000.95 983.81 1019.63 983.81 1069.1 983.81"/><polygon class="cls-5" points="1074.36 958.92 1069.1 983.8 1019.63 983.8 1019.63 958.92 1074.36 958.92"/><polyline class="cls-5" points="1074.36 958.92 1037.81 958.92 1037.81 934.04 1054.47 934.04 1079.61 934.04"/><polyline class="cls-5" points="1083.91 913.72 1071.64 913.72 1054.47 913.72 1054.47 934.04 1079.61 934.04"/><polyline class="cls-5" points="1161.3 913.72 1173.69 913.72 1173.69 896.36 1157.75 896.36 1157.64 896.36 1151.58 896.36 1129.98 896.36 1115.97 896.36 1093.62 896.36 1087.57 896.36 1071.64 896.36 1071.64 913.72 1083.91 913.72"/><polyline class="cls-5" points="1093.62 896.36 1091.45 913.72 1088.91 934.04 1085.79 958.92 1082.68 983.81 1079.27 1011.09 1075.62 1040.25 1071.64 1072.08 1050.45 1072.08 1057.18 1040.25 1063.34 1011.09 1069.1 983.81 1074.36 958.92 1079.61 934.04 1083.91 913.72 1087.57 896.36"/><polyline class="cls-5" points="1151.58 896.36 1153.75 913.72 1156.29 934.04 1159.41 958.92 1162.52 983.81 1165.93 1011.09 1169.58 1040.25 1173.57 1072.08 1194.75 1072.08 1188.03 1040.25 1181.87 1011.09 1176.1 983.81 1170.85 958.92 1165.6 934.04 1161.3 913.72 1157.64 896.36"/><rect class="cls-5" x="1113.5" y="871.52" width="18.33" height="24.84"/><line class="cls-5" x1="1082.33" y1="858.38" x2="1162.99" y2="858.38"/><line class="cls-5" x1="1169.64" y1="1049.45" x2="1075.68" y2="1049.45"/><line class="cls-5" x1="1153.22" y1="910.23" x2="1092.11" y2="910.23"/><line class="cls-2" x1="1695.55" y1="1072.07" x2="1688.55" y2="1072.07"/><line class="cls-2" x1="1401.7" y1="1072.07" x2="1394.7" y2="1072.07"/><line class="cls-2" x1="93.72" y1="1071.94" x2="79.72" y2="1071.94"/><line class="cls-2" x1="46.07" y1="1071.94" x2="26.97" y2="1071.94"/><line class="cls-2" x1="2816.5" y1="1072.64" x2="2843.58" y2="1072.64"/><line class="cls-2" x1="2280.55" y1="1072.07" x2="2273.55" y2="1072.07"/><line class="cls-2" x1="3287.75" y1="1072.01" x2="3270.16" y2="1072.01"/><line class="cls-2" x1="566.75" y1="1072.07" x2="547" y2="1072.07"/><path class="cls-2" d="M1397,344.84l.07-.14a45.78,45.78,0,1,0-82.05-.06"/><path class="cls-2" d="M1356,395.92H1346s-21.18-30.06-31-51.28"/><path class="cls-2" d="M1356,396h10.06s21.18-30.06,31-51.28"/><path class="cls-2" d="M1370.87,344.84l0-.14a115.67,115.67,0,0,0,1.73-20.36c0-25.29-7.43-45.78-16.6-45.78s-16.6,20.5-16.6,45.78a115.69,115.69,0,0,0,1.72,20.3"/><path class="cls-2" d="M1356,395.92h-3.65s-7.68-30.06-11.23-51.28"/><path class="cls-2" d="M1356,396h3.65s7.68-30.06,11.23-51.28"/><line class="cls-2" x1="1345.97" y1="395.92" x2="1345.97" y2="409.72"/><line class="cls-2" x1="1366.06" y1="395.98" x2="1366.06" y2="409.72"/><polyline class="cls-2" points="1341.17 409.72 1370.87 409.72 1367.8 427.51 1352.61 427.51 1359.43 427.51 1344.24 427.51 1341.17 409.72 1370.87 409.72"/><line class="cls-2" x1="509.12" y1="205.47" x2="522.03" y2="205.47"/><line class="cls-2" x1="687.81" y1="205.47" x2="692.55" y2="205.47"/><polyline class="cls-2" points="536.43 205.47 571.04 205.47 572.76 205.47 610.66 205.47 623.16 205.47 642.31 205.47 646.82 205.47 676.92 205.47"/><path class="cls-2" d="M536.43,205.47A17.3,17.3,0,0,1,566.73,194"/><path class="cls-2" d="M603.08,165.15a14.35,14.35,0,0,1,28.65,1.11c0,.4,0,.8,0,1.19"/><path class="cls-2" d="M566.73,194a25.66,25.66,0,0,1,36.35-28.89"/><path class="cls-2" d="M631.68,167.45a20.19,20.19,0,0,1,3.32-.27,21,21,0,0,1,21,21c0,.13,0,.26,0,.39"/><path class="cls-2" d="M656,188.55a17.31,17.31,0,0,1,21,16.92h-30.1"/><line class="cls-5" x1="2881.21" y1="473.22" x2="2894.12" y2="473.22"/><line class="cls-5" x1="3059.89" y1="473.22" x2="3064.64" y2="473.22"/><polyline class="cls-5" points="2908.52 473.22 2943.13 473.22 2944.85 473.22 2982.75 473.22 2995.25 473.22 3014.4 473.22 3018.91 473.22 3049.01 473.22"/><path class="cls-5" d="M2908.52,473.22a17.3,17.3,0,0,1,30.3-11.43"/><path class="cls-5" d="M2975.16,432.9a14.35,14.35,0,0,1,28.65,1.11c0,.4,0,.8,0,1.19"/><path class="cls-5" d="M2938.82,461.79a25.66,25.66,0,0,1,36.35-28.89"/><path class="cls-5" d="M3003.76,435.2a20.19,20.19,0,0,1,3.32-.27,21,21,0,0,1,21,21c0,.13,0,.26,0,.39"/><path class="cls-5" d="M3028.05,456.3a17.31,17.31,0,0,1,21,16.92h-30.1"/><line class="cls-5" x1="1210.51" y1="454.29" x2="1223.42" y2="454.29"/><line class="cls-5" x1="1389.19" y1="454.29" x2="1393.93" y2="454.29"/><path class="cls-5" d="M1348.21,454.29h30.1a17.31,17.31,0,0,0-21-16.92h0c0-.13,0-.26,0-.39a21,21,0,0,0-21-21,20.18,20.18,0,0,0-3.32.27c0-.4,0-.8,0-1.19a14.35,14.35,0,0,0-28.65-1.11,25.4,25.4,0,0,0-11.37-2.66,25.67,25.67,0,0,0-25,31.55h0a17.3,17.3,0,0,0-30.3,11.43h140.49"/><line class="cls-2" x1="2051.14" y1="312.9" x2="2033.74" y2="312.9"/><line class="cls-2" x1="1810.29" y1="312.9" x2="1803.9" y2="312.9"/><polyline class="cls-2" points="1824.96 312.9 1865.53 312.9 1871.62 312.9 1897.42 312.9 1914.27 312.9 1965.36 312.9 1967.67 312.9 2014.33 312.9"/><path class="cls-2" d="M1979,292.91a23.33,23.33,0,0,1,35.35,20"/><path class="cls-2" d="M1865.54,312.9H1825a23.33,23.33,0,0,1,23.33-23.33,23.07,23.07,0,0,1,3.41.26"/><path class="cls-2" d="M1952.31,274.41A16.31,16.31,0,0,1,1981.06,285a16.1,16.1,0,0,1-2.08,8"/><path class="cls-2" d="M1851.71,289.83a23.46,23.46,0,0,1,35.21-20.55l.08.05"/><path class="cls-2" d="M1887,269.33a32.86,32.86,0,0,1,65.51,4.33"/><path class="cls-2" d="M2273.9,65.59l45.42,7.34a26.61,26.61,0,0,0,23.42-7.66l30.88-31.62-10.44-2.08a15.31,15.31,0,0,0-9.47,1.14l-30,16a13.91,13.91,0,0,1-9.81,1.24L2205.82,24.86c-31.21-6.84-48.19-6.14-50.08,3.36-2.67,13.37,29,20.25,29,20.25l45.25,9.2"/><polygon class="cls-2" points="2214.95 44.83 2276.28 95.61 2292.81 98.91 2268.14 55.44 2214.95 44.83"/><polyline class="cls-2" points="2245.87 33.46 2245.87 33.46 2291.47 19.46 2308 22.76 2282.74 42.4"/><line class="cls-2" x1="2368.31" y1="71.04" x2="2403.99" y2="78.76"/><line class="cls-2" x1="2354.11" y1="80.5" x2="2371.34" y2="84.23"/><line class="cls-2" x1="2418.65" y1="81.93" x2="2429.89" y2="84.37"/></g></g></svg>