<svg xmlns="http://www.w3.org/2000/svg" viewBox="0 0 300 150"><defs><style>.cls-1{fill:none;}.cls-2{fill:red;}</style></defs><title>Asset 6economist</title><g id="Layer_2" data-name="Layer 2"><g id="Layer_1-2" data-name="Layer 1"><path class="cls-1" d="M300,150H0V0H300ZM2.38,147.68H297.62V2.32H2.38Z"/><path class="cls-2" d="M79.66,108.25a10.8,10.8,0,0,0,3.64-2.36l.74-.76-.35-.85-.35-.85-.83.79A6,6,0,0,1,77,106c-2.8-.76-4.33-4.23-4.33-9.84s1.56-8.27,4.9-8.29c2,0,2.9.9,3.54,3.62.25,1,.33,1.17.75,1.06a4.63,4.63,0,0,1,1-.13c.49,0,.5-.05.5-2.65V87.1l-1.61-.38a16.8,16.8,0,0,0-7.05-.23c-4.68,1.2-7.33,5.19-7.34,11,0,4.9,1.87,8.57,5.23,10.22A9.51,9.51,0,0,0,79.66,108.25Z"/><path class="cls-2" d="M109.49,95.25c-1-5.62-5-9.07-10.6-9.07-6.42,0-10.45,4.37-10.44,11.31,0,5.23,2.31,9,6.47,10.56a12,12,0,0,0,7.29.2,8.79,8.79,0,0,0,4-2.15A11.88,11.88,0,0,0,109.49,95.25Zm-8.05,11.31a4.07,4.07,0,0,1-4,0c-2.33-1.4-3.52-4.92-3.54-10.46,0-3.6.38-5.32,1.49-6.67,2.19-2.66,6-1.53,7.65,2.3a15.84,15.84,0,0,1,1.24,6.82C104.3,102.77,103.34,105.48,101.44,106.56Z"/><path class="cls-2" d="M164.46,95.43c-.88-5.43-4.57-8.89-9.79-9.19-3.6-.21-6.36.75-8.42,2.94s-2.9,4.87-2.91,8.45c0,7.79,5.75,12.39,13.44,10.74a10.41,10.41,0,0,0,6.2-4.5A13.66,13.66,0,0,0,164.46,95.43Zm-7.83,11a4.4,4.4,0,0,1-4.13.18c-2.38-1.21-3.68-5-3.69-10.65,0-4.09.64-6.14,2.36-7.4a4.26,4.26,0,0,1,3.88-.19c2.63,1.34,4.1,4.91,4.14,10C159.21,102.49,158.35,105.2,156.63,106.43Z"/><path class="cls-2" d="M237.33,108.11a7.2,7.2,0,0,0,3.86-3.81,8.13,8.13,0,0,0,.14-4.28c-.62-1.66-2.14-3.08-6.49-6.06a9.85,9.85,0,0,1-2.17-1.9,3.07,3.07,0,0,1-.1-3,3.81,3.81,0,0,1,3.86-1.16c1,.28,1.47.82,2,2.52.26.79.49,1.14.74,1.13l1.14-.06.78,0v-2c0-1.4-.09-2.08-.31-2.29a8.59,8.59,0,0,0-2.44-.71c-6.29-1.18-9.92,1.08-9.91,6.2,0,2.84,1,4.21,5,7,3.41,2.34,4.56,4,3.82,5.5-.55,1.12-1.38,1.54-3.09,1.54-1.35,0-1.6-.07-2.1-.57a7,7,0,0,1-1.1-1.89c-.57-1.4-1-1.65-2.26-1.33-.51.13-.53.21-.53,2.21,0,1.4.09,2.15.28,2.29a8.65,8.65,0,0,0,1.72.61C233.31,108.91,235.14,108.92,237.33,108.11Z"/><path class="cls-2" d="M258.62,107.8c1.2-.5,1.31-.61,1.36-1.3s0-.73-.34-.59a9.78,9.78,0,0,1-1.73.3c-1.71.18-2.72-.27-3.37-1.52-.43-.81-.48-1.41-.68-8l-.22-7.16,2.43,0,2.43,0,.12-.64c.06-.35.18-.91.25-1.23l.13-.58-2.69.05-2.69.05-.06-2.89-.06-2.89-1.09,0-1.09,0-.13.87a8.87,8.87,0,0,1-2,4.12,5,5,0,0,1-2.84,1.11c-.45,0-.5.12-.48,1.12l0,1.11,1.31,0,1.31,0,.24,7.16c.26,7.74.38,8.52,1.57,10a6,6,0,0,0,1.77,1.31c1.1.53,1.34.56,3.2.42A10.47,10.47,0,0,0,258.62,107.8Z"/><path class="cls-2" d="M60.24,108.26l.8-.13.39-3c.21-1.67.44-3.31.51-3.64.12-.6.09-.61-.91-.61s-1,0-1,.63a5.19,5.19,0,0,1-1.46,3.35c-1,.91-2,1.13-5,1.13-3.9,0-3.62.51-3.7-6.79l-.07-5.94,3,.1c4,.14,4.54.44,5,2.9.13.76.2.83.85.83h.71l0-4.89,0-4.89h-.72c-.71,0-.73,0-1,1.38a4.3,4.3,0,0,1-.66,1.79c-.75.75-3.16,1-6,.68L49.78,91V79.73l2.72,0a19.38,19.38,0,0,1,3.61.28,3.07,3.07,0,0,1,2,2.83L58.27,84l.81-.07.81-.07V77.4H40V78c0,.51.12.58,1.34.82,2.77.53,2.65-.08,2.65,14.07,0,12.87,0,13-1.26,13.62a6.72,6.72,0,0,1-1.68.47c-.93.13-1.06.22-1.06.69v.54l6.94.06,9.72.11A32.4,32.4,0,0,0,60.24,108.26Z"/><path class="cls-2" d="M125.78,107.9c0-.48-.3-.73-1.22-1.08-1.34-.5-1.42-.92-1.43-7.73,0-6.51.07-7.08,1.29-8.5a3.88,3.88,0,0,1,3.26-1.52c3.1,0,3.81,2.22,3.61,11.41-.12,5.72-.22,6.06-1.8,6.46-.64.16-.81.31-.81.72v.52h11.14l-.07-.49c-.06-.39-.27-.53-1-.66-1.35-.23-2-.7-2.15-1.6-.08-.42-.16-3.69-.19-7.28,0-5.41-.11-6.71-.42-7.63a6.2,6.2,0,0,0-2.87-3.57c-1.07-.59-1.37-.65-3.29-.65a6.51,6.51,0,0,0-5.56,2.25l-1.33,1.27V88.71a14.45,14.45,0,0,0-.13-1.89l-.13-.8-1.41.3c-1.11.23-5.5.75-6.37.75-.09,0-.17.25-.17.56,0,.47.1.56.67.56a2.26,2.26,0,0,1,2.42,1.48c.34,1.23.3,15.05-.05,16.07a2.05,2.05,0,0,1-2.21,1.34c-.74,0-.83.07-.83.56v.56h5.56C124.52,108.18,125.78,108.11,125.78,107.9Z"/><path class="cls-2" d="M180.63,107.69c-.05-.34-.34-.57-1-.8a2.56,2.56,0,0,1-1.22-.8c-.2-.34-.3-2.28-.35-6.74-.07-6-.05-6.3.42-7.39a4.27,4.27,0,0,1,4.69-2.85c1.19.16,1.9.87,2.36,2.37.32,1,.38,2.21.38,7.68,0,4.72-.07,6.57-.28,6.93a2.56,2.56,0,0,1-1.22.8c-.68.22-1,.45-1,.8l-.07.48h10.25v-.55c0-.45-.14-.57-.76-.69-1.57-.29-1.56-.27-1.64-7.6l-.07-6.57.59-1.2a4,4,0,0,1,3.52-2.46,2.68,2.68,0,0,1,3.1,1.69c.46,1,.48,1.33.48,8.07,0,6.58,0,7.06-.42,7.5a2.43,2.43,0,0,1-1.17.6c-.6.11-.75.24-.75.67v.53h11l-.1-.53c-.08-.42-.28-.55-1-.65a2.26,2.26,0,0,1-2.18-1.66,63.58,63.58,0,0,1-.23-7.18c0-6.93-.1-7.67-1.29-9.54a5.49,5.49,0,0,0-5-2.33,5.71,5.71,0,0,0-3.28.63,12.45,12.45,0,0,0-2.58,1.89l-1.3,1.26-.79-1.26a5.43,5.43,0,0,0-1.86-1.89c-1-.58-1.27-.63-3.19-.63-2.55,0-3.56.41-5.57,2.27l-1.32,1.22V88.37a11.07,11.07,0,0,0-.13-1.88c-.12-.46-.17-.46-1.54-.17-1.11.23-5.51.75-6.38.75-.09,0-.17.25-.17.56,0,.46.11.56.63.56a2.4,2.4,0,0,1,2.39,1.25c.46,1.1.45,15.32,0,16.43-.35.85-1,1.21-2.25,1.21-.67,0-.76.07-.76.56v.56H180.7Z"/><path class="cls-2" d="M223.25,107.82a2,2,0,0,1-.13-.53c0-.1-.46-.23-1-.29-1.57-.18-1.9-.65-2.11-3-.09-1.08-.18-5.57-.19-10l0-8-1.61.28c-.89.15-2.76.39-4.16.53a25.26,25.26,0,0,0-2.63.34c-.26.26.27,1,.72,1a2.66,2.66,0,0,1,2.23,1.1c.41.8.66,9.21.4,13.52-.22,3.64-.39,4-2.08,4.21-1,.13-1.3.35-1.31.89,0,.22,1.35.28,6,.28C222.76,108.18,223.37,108.14,223.25,107.82Z"/><path class="cls-2" d="M218.47,81.61a3,3,0,0,0-.42-5.43c-3.26-1.14-5.39,3.53-2.43,5.34A2.91,2.91,0,0,0,218.47,81.61Z"/><path class="cls-2" d="M183.93,65.07l-1.08,1c-2.63,2.46-5.94,2.79-8,.81-1.27-1.21-2.35-4.25-2.36-6.65v-.94h12.27l-.16-1.61A8.42,8.42,0,0,0,183,53.13c-1.51-2.2-3.64-3.1-6.93-2.91-4.13.24-7.19,3.1-8.15,7.63a12.72,12.72,0,0,0,0,5.61,8.54,8.54,0,0,0,2.39,4.42c2.2,2.33,5.38,3.13,8.94,2.26a9.62,9.62,0,0,0,3.83-2.26c1.27-1.17,1.45-1.54,1.13-2.24Zm-11.6-8.36c.36-2.14.82-3.3,1.66-4.14a2.12,2.12,0,0,1,2.06-.84,3.21,3.21,0,0,1,2,.5,6.79,6.79,0,0,1,2.09,3.86l.14.91-.85.14c-.47.08-2.28.21-4,.29l-3.18.14Z"/><path class="cls-2" d="M136.45,69.45c0-.56-.07-.61-.83-.61a2.34,2.34,0,0,1-2.33-1.33c-.35-.71-.39-1.76-.39-12.07V44.14l2.5.16a16.21,16.21,0,0,1,3.32.48,2.68,2.68,0,0,1,1.52,2.71c0,.89,0,.91.78.91h.78V42.21H118.45v1.6c0,.88-.07,2.28-.14,3.11l-.14,1.52.87-.07c.86-.07.87-.07,1-1.18a5.48,5.48,0,0,1,.38-1.58c.42-.75,1.74-1.13,4.55-1.3l2.61-.16V55.61c0,12.87,0,12.58-1.5,13a11,11,0,0,1-1.39.29.59.59,0,0,0-.62.61l-.06.56h12.46Z"/><path class="cls-2" d="M152.45,69.56c0-.39-.16-.54-.67-.64a2.2,2.2,0,0,1-1.11-.69c-.41-.52-.44-.92-.44-6.31,0-4.69.06-5.91.34-6.58a3.81,3.81,0,0,1,3.69-2.55c2.07,0,2.73.91,3.1,4.32.29,2.65.15,10-.21,10.89a1.44,1.44,0,0,1-1.14.84c-.71.19-.9.35-.9.73v.49h10v-.5c0-.33-.13-.5-.39-.5a6.14,6.14,0,0,1-1.19-.22c-1.32-.37-1.38-.67-1.52-8-.12-6.29-.15-6.6-.65-7.61a5.76,5.76,0,0,0-3.12-2.8,9.94,9.94,0,0,0-2.28-.26,7.55,7.55,0,0,0-4.92,2.08l-.83.79V41.28l-.5.11a37.32,37.32,0,0,1-5.11.69c-1.35.1-2.16.25-2.16.41,0,.49.35.74,1.22.87,1.08.17,1.6.75,1.78,2,.07.51.11,5.74.07,11.61-.08,12.17,0,11.7-1.81,12-.9.14-1.42.57-1.17,1a44.45,44.45,0,0,0,5,.15h4.91Z"/></g></g></svg>