<svg xmlns="http://www.w3.org/2000/svg" viewBox="0 0 300 150"><defs><style>.cls-1{fill:#827f80;}.cls-2{fill:none;}</style></defs><title>Asset 2reuters</title><g id="Layer_2" data-name="Layer 2"><g id="Layer_1-2" data-name="Layer 1"><g id="g2868"><g id="g2874"><path id="path2876" class="cls-1" d="M174.93,82c0,3.69.13,3.79,3.48,3.79h11.15a.88.88,0,0,1,.87.88v2.81c0,.62-.22.84-.87.92A59.06,59.06,0,0,1,180,91c-7.32,0-11.19,0-11.19-9V68c0-9.07,3.87-9,11.19-9a60,60,0,0,1,9.52.61c.65.09.87.31.87.93v2.81a.89.89,0,0,1-.87.89H178.41c-3.34,0-3.48.1-3.48,3.78v4H189a.88.88,0,0,1,.88.88v3.18A.87.87,0,0,1,189,77H174.93v5ZM240,91a47.86,47.86,0,0,1-9.95-1.15,1,1,0,0,1-.83-.88V85.8a.84.84,0,0,1,.83-.84h.09a80.31,80.31,0,0,0,10,.79c3.91,0,5.11-1.4,5.11-4,0-3.3-7.88-5.13-11.73-6.71a7.89,7.89,0,0,1-5.19-7.7c0-4.84,3.9-8.37,12.08-8.37a42.88,42.88,0,0,1,9.54,1.16.88.88,0,0,1,.79.83v3.26a.75.75,0,0,1-.74.79h-.09a94.89,94.89,0,0,0-9.74-.79c-3.27,0-5.71,1.14-5.71,3.12,0,1.45,1.66,2.79,3.61,3.56s4.52,1.77,7.45,2.95c3.7,1.5,6.11,3.69,6.11,7.91,0,4.45-2.77,9.2-11.58,9.2M216.63,69c0-3.3-2.56-4.71-7-4.71-.92,0-4.92.09-5.72.17V74c.71,0,5,.13,5.72.13,4.54,0,7-.88,7-4.75Zm6.61,21.67h-5.38c-.48,0-.66-.44-.88-.88l-6.34-10.67h-1c-1.14,0-4.7-.13-5.72-.18V89.75a.84.84,0,0,1-.83.88h-4.4a.88.88,0,0,1-.88-.88V60.9c0-.89.52-1.19,1.4-1.33A90.65,90.65,0,0,1,209.65,59c6.79,0,13,2.42,13,10v.4c0,4.66-2.34,7.22-5.94,8.62l6.92,11.78a.58.58,0,0,1,.09.36.48.48,0,0,1-.52.52M163.45,64.46h-8.78V89.75a.89.89,0,0,1-.89.88h-4.35a.88.88,0,0,1-.88-.88V64.46h-8.79a.8.8,0,0,1-.88-.79V60.2a.85.85,0,0,1,.88-.84h23.7a.85.85,0,0,1,.88.84v3.48a.8.8,0,0,1-.88.79M121.31,91c-7.08,0-13.19-3.08-13.19-12.47V60.2a.85.85,0,0,1,.89-.84h4.35a.84.84,0,0,1,.88.84V78.52c0,5,2.32,7.4,7.07,7.4s7.07-2.38,7.07-7.4V60.2a.85.85,0,0,1,.88-.84h4.36a.85.85,0,0,1,.89.84V78.52c0,9.39-6.1,12.47-13.2,12.47M86,82c0,3.69.14,3.79,3.47,3.79h11.14a.88.88,0,0,1,.88.88v2.81c0,.62-.22.84-.88.92a58.83,58.83,0,0,1-9.51.61C83.84,91,80,91,80,82V68c0-9.07,3.88-9,11.18-9a59.82,59.82,0,0,1,9.51.61c.66.09.88.31.88.93v2.81a.89.89,0,0,1-.88.89H89.52c-3.33,0-3.47.1-3.47,3.78v4h14.09a.89.89,0,0,1,.88.88v3.18a.89.89,0,0,1-.88.88H86ZM67.18,69c0-3.3-2.56-4.71-7-4.71-.93,0-4.94.09-5.72.17V74c.7,0,5,.13,5.72.13,4.53,0,7-.88,7-4.75Zm6.61,21.67H68.4c-.48,0-.66-.44-.88-.88L61.18,79.08h-1c-1.15,0-4.71-.13-5.72-.18V89.75a.85.85,0,0,1-.84.88h-4.4a.88.88,0,0,1-.88-.88V60.9c0-.89.52-1.19,1.41-1.33A90.71,90.71,0,0,1,60.22,59c6.78,0,13,2.42,13,10v.4c0,4.66-2.33,7.22-5.94,8.62l6.91,11.78a.58.58,0,0,1,.09.36.49.49,0,0,1-.53.52"/></g></g><path class="cls-2" d="M300,150H0V0H300ZM2.38,147.68H297.62V2.32H2.38Z"/></g></g></svg>