<svg xmlns="http://www.w3.org/2000/svg" viewBox="0 0 300 150"><defs><style>.cls-1{fill:#231f20;}.cls-2{fill:none;}</style></defs><title>Asset 7atlantic</title><g id="Layer_2" data-name="Layer 2"><g id="Layer_1-2" data-name="Layer 1"><g id="layer1"><g id="g3523"><g id="g3411"><g id="g3413"><g id="g3419"><path id="path3421" class="cls-1" d="M215.26,70.8H201l2.76-11.65h-5.1L195.85,70.8h-4.68l-.21.91h4.68L189.47,97.5a19,19,0,0,0-.78,4.61c0,2,1.28,3.86,4.11,3.86,5.1,0,7.65-7.18,7.94-8l-.71-.3c-.5,1.21-2.48,5.9-4.89,5.9-1,0-1.42-.61-1.42-1.81a9.42,9.42,0,0,1,.35-2.35l6.59-27.68H210L203.78,97.5A19,19,0,0,0,203,102a3.81,3.81,0,0,0,4.18,4c5.1,0,7.65-7.18,7.94-8l-.71-.3c-.5,1.13-2.55,5.9-4.82,5.9-1.27,0-1.49-.76-1.49-1.89a8.91,8.91,0,0,1,.35-2.27Z"/></g><g id="g3423"><path id="path3425" class="cls-1" d="M181.18,103.55c-1.28,0-1.56-.76-1.56-1.74a10,10,0,0,1,.35-2.42l4.53-18.76a20.55,20.55,0,0,0,.85-5.29c0-2.27-1.42-5.14-5.46-5.14-4.61,0-7.09,4-8.08,5.75L173,70.8h-9.71l-.28.91h4.61l-8.08,33.58h5.1l5.53-22.77c1.27-5.14,4.25-10.44,7.65-10.44a2.52,2.52,0,0,1,2.69,2.8,18.61,18.61,0,0,1-.71,4l-4.46,18.6a24.52,24.52,0,0,0-.78,4.77c0,2,1.27,3.71,4.11,3.71,5.1,0,7.65-7.18,8-8l-.71-.3c-.71,1.51-2.62,5.9-4.82,5.9"/></g><g id="g3427"><path id="path3429" class="cls-1" d="M152.13,99.39,159,70.8h-5.1L153,74.51A5.16,5.16,0,0,0,147.66,70c-6,0-9,5.29-10.91,10.59-1.13,3.18-3.47,11.12-3.61,16.49-.21,5.75,2.41,8.85,6.52,8.85,3.9,0,6.38-4.16,7.3-6.28a14,14,0,0,0-.21,2.27,3.79,3.79,0,0,0,4.11,4c5.32,0,7.65-7.26,7.94-8l-.71-.3c-.5,1.21-2.41,5.9-4.89,5.9-1.06,0-1.49-.76-1.42-2a9.56,9.56,0,0,1,.35-2.12m-4-5c-1.63,5.52-4.18,9.76-7.23,9.76-2.13,0-3.12-1.36-3-4.39.21-6.73,3.9-18.76,4.75-21.4,1.42-4.46,3.4-7,6-7,2.34,0,3.47,2.19,3.4,4.69-.14,3.71-1.77,11.12-3.83,18.38"/></g><g id="g3431"><path id="path3433" class="cls-1" d="M125.34,103.55c-1.06,0-1.42-.61-1.42-1.82a9.66,9.66,0,0,1,.28-2.34l13.18-54.15h-9.85l-.21.91h4.61L119.6,97.5a20.86,20.86,0,0,0-.78,4.77c0,1.89,1.06,3.71,4,3.71,5.24,0,7.8-7,8.15-8l-.71-.3c-.5,1.29-2.62,5.9-4.89,5.9"/></g><g id="g3435"><path id="path3437" class="cls-1" d="M215.05,57.95c-1.7,0-2.91,1.44-2.91,3.48a2.78,2.78,0,0,0,2.62,3,3.11,3.11,0,0,0,2.9-3.4c0-1.74-1.06-3.1-2.62-3.1"/></g><g id="g3439"><path id="path3441" class="cls-1" d="M231.78,70c-6.09,0-9.28,4.61-11.13,10.51-1.2,3.78-3.12,9.91-3.12,16.71,0,3.48,1.49,8.7,7.94,8.7,6.73,0,9.64-9,10.06-10.06l-.92-.45c-.92,2.35-3.4,8.55-7.72,8.55-2.76,0-4.25-2.27-4.25-6.5,0-6.13,1.77-12.48,3.33-17.47,1.91-6.13,3.12-9,6-9,1.84,0,3,.91,3,2.12,0,1.74-1.06,2.57-1.06,4.16a2.34,2.34,0,0,0,2.27,2.5c1.56,0,2.55-1.36,2.55-3.56s-1.2-6.2-6.87-6.2"/></g><g id="g3443"><path id="path3445" class="cls-1" d="M110.81,103.55c-.92,0-1.49-.61-1.49-1.82a10.62,10.62,0,0,1,.35-2.34l6.66-27.68h5.46l.21-.91h-5.45l2.83-11.65h-5.1L111.45,70.8h-4.18l-.21.91h4.18L105.07,97.5a18.35,18.35,0,0,0-.78,4.77c0,1.82,1.06,3.71,4,3.71,5.39,0,7.72-7,8.15-8l-.71-.3c-.5,1.21-2.55,5.9-4.89,5.9"/></g><g id="g3447"><path id="path3449" class="cls-1" d="M67.16,63.47h-1.7l4-16.86h.71c1.84,0,2.27.23,1.7,3.63h.43l1-4.16H63.83l-1,4.16h.43c1.06-2.88,1.49-3.63,3.4-3.63h.85l-4,16.86H61.92l-.14.53H67Z"/></g><g id="g3451"><path id="path3453" class="cls-1" d="M71,64h1.77l1.84-7.56c.5-2,1.56-3.71,2.69-3.71a.86.86,0,0,1,.92.91,6.87,6.87,0,0,1-.28,1.59L76.52,61a8.61,8.61,0,0,0-.28,1.74,1.27,1.27,0,0,0,1.35,1.44c1.84,0,2.62-2.27,2.83-2.8l-.35-.15c-.21.53-.85,2-1.63,2-.28,0-.43-.15-.43-.61a8.65,8.65,0,0,1,.21-1.44l1.42-5.67a8,8,0,0,0,.28-1.89A1.75,1.75,0,0,0,78,51.82a3.66,3.66,0,0,0-2.76,1.89l1.84-7.64h-3L74,46.6h1.2Z"/></g><g id="g3455"><path id="path3457" class="cls-1" d="M84,64.22c2.34,0,3.47-2.87,3.69-3.48l-.43-.23c-.43,1.06-1.35,2.8-2.91,2.8-.92,0-1.42-.68-1.42-1.89a11.69,11.69,0,0,1,.28-2.35c2.2-.53,5.88-2.5,5.88-5.22a1.87,1.87,0,0,0-2.13-2c-2.76,0-5.74,4.76-5.74,9.3,0,1.66.64,3.1,2.76,3.1m3-11.87c.64,0,.85.3.85.91,0,2-1.91,4.46-4.46,5.22C84,55.3,85.66,52.35,87,52.35"/></g></g></g><g id="g3459"><path id="path3461" class="cls-1" d="M103.16,44,64.68,104.38H61.57l-.21.91H71l.21-.91H65.82L80.58,81.24H94.35l-2.45,23.14H87.36l-.21.91h14l.21-.91h-4L103.8,44ZM94.45,80.26H81.2L96.93,55.6h.14Z"/></g></g></g><path class="cls-2" d="M300,150H0V0H300ZM2.38,147.68H297.62V2.32H2.38Z"/></g></g></svg>