<svg xmlns="http://www.w3.org/2000/svg" viewBox="0 0 300 150"><defs><style>.cls-1{fill:none;}</style></defs><title>Asset 9nytimes</title><g id="Layer_2" data-name="Layer 2"><g id="Layer_1-2" data-name="Layer 1"><g id="layer1"><path id="path3698" d="M48.24,62.47c0-2.57-2.42-3.32-4.43-3.22v.4c1.21,0,2.14.43,2.14,1.24,0,.56-.4,1.27-1.61,1.27A18.25,18.25,0,0,1,40,61.1,15.41,15.41,0,0,0,35.53,60a4.3,4.3,0,0,0-4.46,4.21,3,3,0,0,0,2,2.82l.19-.31a1.36,1.36,0,0,1-.74-1.27A1.61,1.61,0,0,1,34.32,64a20.9,20.9,0,0,1,4.77,1.12,38.78,38.78,0,0,0,4.77,1.09v4l-2,1.64V72l2,1.74v5.55a6.46,6.46,0,0,1-3.22.74A6.5,6.5,0,0,1,35.53,78l5.33-2.57V66.53l-6.54,2.91a7.75,7.75,0,0,1,3.44-3.72l-.09-.31c-3.87,1.05-7.41,4.62-7.41,9a9.14,9.14,0,0,0,9.14,9.17A8.34,8.34,0,0,0,48,75.11l-.31,0a9,9,0,0,1-3.35,4.09V73.78l2.11-1.67,0-.19L44.3,70.25v-4a3.76,3.76,0,0,0,3.94-3.75ZM36.93,76.88l-1.58.77a7.87,7.87,0,0,1-1.49-5,9,9,0,0,1,.37-2.79L37,68.7Zm13.79,2.88L49,81.06l.22.25.84-.59,2.91,2.66,3.9-2.6-.19-.28-1,.65-1.27-1.27V71l1.05-.78L57.66,72v7.9c0,4.93-1.08,5.73-3.32,6.54v.34c3.69.15,7-1.09,7-7.41V70.87l1.18-.93-.22-.28-1,.8L58.09,67.7l-3.72,2.79V59.77h-.28l-4.62,3.1v.28a1.86,1.86,0,0,1,1.24,2Zm23.8-1.39-3.19,2.48L68,78.24V76.69l6.17-4.12v-.19l-3.07-4.71-6.72,3.6v8.55l-1.33,1,.22.28,1.21-1,4.4,3.19,5.89-4.65ZM68,76.23V69.84l.22-.16,2.85,4.49ZM99.43,61.29a3.65,3.65,0,0,0-.25-1.21h-.31c-.4,1.08-.9,1.67-2.17,1.67a3.47,3.47,0,0,1-2.45-1.18s-3.72,4.31-3.72,4.31l.31.28L91.9,64a4.37,4.37,0,0,0,3.19,1.24V76l-7.62-13.2c-.59-1-1.58-2.48-3.41-2.48-2,0-3.94,1.77-3.69,4.74h.37c.09-.81.5-1.67,1.39-1.67a2.26,2.26,0,0,1,1.7,1.3V69c-2.36,0-3.9,1.08-3.9,3a2.9,2.9,0,0,0,2.14,3l0-.28a1.19,1.19,0,0,1-.44-.9c0-.71.53-1.18,1.49-1.18a4.08,4.08,0,0,1,.68.06v5.52c-2.76,0-4.9,1.55-4.9,4.15s2.14,3.66,4.37,3.53l0-.31c-1.39-.16-2.14-.81-2.14-1.7A1.66,1.66,0,0,1,83,82.15a3.66,3.66,0,0,1,2.63,1.39l3.75-4.18-.31-.28-1,1.08a6.43,6.43,0,0,0-3.87-2v-13l10.5,18.32h.74V65.19a4,4,0,0,0,3.91-3.9Zm9.39,17.07-3.19,2.48-3.32-2.6V76.69l6.17-4.12v-.19l-3.07-4.71-6.72,3.6v8.55l-1.33,1,.22.28,1.21-1,4.4,3.19,5.89-4.65-.25-.34Zm-6.51-2.14V69.84l.22-.16,2.85,4.49Zm27.83-7.13-1,.71-2.48-2.11-2.88,2.6L125,71.42v9.82l-3.16-2v-8l1-.71-3-2.82L117,70.31l1.18,1.11v9.33l-.4.25L115,79V71.21c0-1.8-.87-2.32-2-3-1-.59-1.39-1.08-1.39-2,0-.74.74-1.18,1.12-1.39a1.22,1.22,0,0,1,0-.31c-1,0-3.75,1.05-3.81,3.56a3,3,0,0,0,1.24,2.48,3,3,0,0,1,1.24,2.29v7.53L110,81.43l.22.28,1.27-1,3.44,2.7,3.25-2.2,3.59,2.2,6.91-4V70.65l1.7-1.24-.22-.31Zm24.14-7.16L153,63.12l-2.91-2.54-4.25,3.16v-3h-.43l.09,21.1c-.43-.06-1.52-.31-2.51-.46l-.09-17.63a3.09,3.09,0,0,0-3.25-3.1,3.79,3.79,0,0,0-3.94,3.66h.37c.12-.77.53-1.46,1.3-1.46s1.49.5,1.49,2.23v5.08c-2.39.09-3.75,1.43-3.75,3.07a2.39,2.39,0,0,0,2.14,2.66l.06-.31a.94.94,0,0,1-.68-.9c0-.74.71-1.05,1.7-1.05h.46v8.06A3.72,3.72,0,0,0,136,85.34c0,2.17,1.74,3.81,4.28,3.81a21.77,21.77,0,0,0,5-.68,24.75,24.75,0,0,1,3.72-.59c1,0,1.43.46,1.43,1.18a1.24,1.24,0,0,1-.93,1.39l.06.31c2.14-.4,3.38-1.67,3.38-3.59s-1.89-3.16-4-3.16a27.11,27.11,0,0,0-4.83.71,25.08,25.08,0,0,1-4.18.59c-.9,0-2-.43-2-1.64s.9-2,3.13-2a18.55,18.55,0,0,1,4.06.53,21.7,21.7,0,0,0,4.34.78c1.89,0,3.59-.68,3.59-3.44V63.52l1.52-1.3Zm-5.33,8a2.18,2.18,0,0,1-1.55.74,2.38,2.38,0,0,1-1.58-.74V64.17l1.33-.9,1.8,1.64Zm0,3.87a2.26,2.26,0,0,0-1.55-.65,2.57,2.57,0,0,0-1.58.65V70.43a2.6,2.6,0,0,0,1.58.68,2.27,2.27,0,0,0,1.55-.68Zm0,6.07A2,2,0,0,1,146.87,82c-.22,0-.84,0-1.05-.06V74.31a2.43,2.43,0,0,1,1.58-.71,2.35,2.35,0,0,1,1.55.71Zm17.79-9.24-4.21-3L156.2,71.3v8.49l-1.3,1.05.19.28,1-.84,4.18,3.07,6.45-3.94Zm-6.91,8.21V69.6L163.11,72v9.3ZM179.16,68s-.25,0-.25,0a1.86,1.86,0,0,1-1.15.53,2.06,2.06,0,0,1-1.46-.71h-.25l-2.2,2.42-2.26-2.42-3.84,2.66.19.31,1-.68,1.33,1.43v8.21l-1.74,1.3.22.25.84-.59,3.13,2.66,4.06-2.7-.19-.28-1.15.68L174,79.72V70.58a3.36,3.36,0,0,0,2.32,1.33c1.74,0,2.7-1.92,2.88-3.9ZM194.81,80.5l-4.43,2.91-6-9.08,4.25-6.6.28,0a3.41,3.41,0,0,0,2.17,1,2.28,2.28,0,0,0,1.89-1s.25,0,.25,0c-.15,2.63-1.92,4.12-3.25,4.12a4.52,4.52,0,0,1-2.73-1.05l-.4.59L193.32,81l1.3-.81Zm-14.32-.74-1.74,1.3.22.25.84-.59,2.91,2.66,3.9-2.6-.22-.28-1,.65-1.27-1.27V59.77h-.28l-4.71,3.13v.28a1.83,1.83,0,0,1,1.33,2ZM216.4,62.47c0-2.57-2.42-3.32-4.43-3.22v.4c1.21,0,2.14.43,2.14,1.24,0,.56-.4,1.27-1.61,1.27a18.25,18.25,0,0,1-4.31-1.05A15.41,15.41,0,0,0,203.7,60a4.3,4.3,0,0,0-4.46,4.21,3,3,0,0,0,2,2.82l.19-.31a1.35,1.35,0,0,1-.74-1.27,1.61,1.61,0,0,1,1.8-1.46,20.9,20.9,0,0,1,4.77,1.12A38.77,38.77,0,0,0,212,66.22v4l-2,1.64V72l2,1.74v5.55A7.34,7.34,0,0,1,203.7,78L209,75.42V66.53l-6.54,2.91a7.76,7.76,0,0,1,3.44-3.72l-.09-.31c-3.87,1.05-7.41,4.62-7.41,9a9.14,9.14,0,0,0,9.14,9.17,8.34,8.34,0,0,0,8.55-8.49l-.31,0a9,9,0,0,1-3.35,4.09V73.78l2.11-1.67,0-.19-2.08-1.67v-4a3.76,3.76,0,0,0,3.94-3.75ZM205.09,76.88l-1.58.77a7.87,7.87,0,0,1-1.49-5,9,9,0,0,1,.37-2.79l2.73-1.21,0,8.18Zm15.77-15.62-.19,0-2.6,2.2v.19l2.2,2.48h.22l2.6-2.17,0-.16-2.2-2.51Zm4,19.24-1,.65-1.27-1.27v-9l1.24-.93-.25-.31-1,.74-2.26-2.7-3.72,2.6.22.34.93-.62,1.15,1.43v8.43l-1.67,1.27.19.25.87-.62,2.85,2.6,3.9-2.6Zm21.69-.16-.93.62L244.2,79.7V70.87l1.33-1-.22-.28-1.15.87-3-2.76-3.84,2.73-2.94-2.73-3.78,2.7-2.32-2.7-3.72,2.6.19.34.93-.62L227,71.42v8.43l-1,1,3,2.51,2.88-2.6-1.18-1.11v-8.8l1.12-.74,2,1.86v7.87l-1,1,3,2.51,2.82-2.6-1.18-1.11V70.8l1-.65L240.54,72v7.75l-.87.9,3,2.76,4-2.73Zm11.31-2-3.19,2.48-3.32-2.6V76.69l6.17-4.12v-.19l-3.07-4.71-6.72,3.6V80.1l4.49,3.25,5.89-4.65Zm-6.51-2.14V69.84l.22-.16,2.85,4.49ZM269.73,75l-2.51-1.89a6.61,6.61,0,0,0,2.32-4.74c0-.19,0-.53-.06-.84h-.31a1.75,1.75,0,0,1-1.77,1.27,3.12,3.12,0,0,1-2.32-1.24l-5.86,3.19v4.74l2.17,1.7c-2.2,2-2.6,3.32-2.6,4.31a2.63,2.63,0,0,0,1.7,2.66l.15-.28a1.1,1.1,0,0,1-.53-1c0-.43.53-1.05,1.52-1.05a3.24,3.24,0,0,1,2.45,1.33s5.64-3.38,5.64-3.38Zm-1.39-3.91a16,16,0,0,1-4,3.94l-1.43-1.12V69.31a3.93,3.93,0,0,0,3.41,2.29A3.89,3.89,0,0,0,268.34,71.11ZM266,81.46a4.24,4.24,0,0,0-3.72-2.51,4.59,4.59,0,0,0-2.45.62,14.52,14.52,0,0,1,4.56-4.18L266,76.63Z"/></g><path class="cls-1" d="M300,150H0V0H300ZM2.38,147.68H297.62V2.32H2.38Z"/></g></g></svg>