<svg xmlns="http://www.w3.org/2000/svg" viewBox="0 0 300 150"><defs><style>.cls-1,.cls-2{fill:#0a5787;}.cls-1{opacity:0.4;}.cls-3{fill:none;}</style></defs><title>Asset 4guardian</title><g id="Layer_2" data-name="Layer 2"><g id="Layer_1-2" data-name="Layer 1"><path id="path10468" class="cls-1" d="M45,81.23v-11h-3v-3l3-.41V63.07l6.57-.92v4.67H55.9v3.43H51.54V80.67c0,2,.55,3,2.47,3a12.85,12.85,0,0,0,2.1-.17V86a12.27,12.27,0,0,1-5.38,1.15c-3.92,0-5.75-1.73-5.75-5.93Zm43.8-12.66c1.65,0,2.54.29,2.54,6.12L85.8,75C85.87,69.73,86.67,68.57,88.77,68.57Zm-2.91,8.82H97.69c0-8.34-2.86-11-8.82-11s-9.8,3.81-9.8,10.35c0,6.75,3.52,10.49,10.34,10.49,3.67,0,6.63-1.64,7.55-2.89V82.41a16.91,16.91,0,0,1-5.34.69c-3.59,0-5.43-1.86-5.78-5.73ZM56.68,84.93l2.1-1V62.35l-2.21-1v-1.8l8.19-1.32h.56V69h.22a10.18,10.18,0,0,1,6.85-2.62c3.35,0,5,1.67,5,5.31V84l2.13,1v1.83H68.69V84.93l2.13-1V73.18c0-2-.88-2.77-2.67-2.77a7.3,7.3,0,0,0-2.72.5V84l2.13,1v1.83H56.69V84.93Z"/><path id="path10470" class="cls-2" d="M200.38,67.68v1.81l2.21,1V84l-2.11,1v1.84h10.82V85l-2.11-1V66.38h-.56l-8.26,1.32Zm22.44,15.23V77.55l-1.54.15a2.9,2.9,0,0,0-2.78,3.06c0,2.19,1.2,2.91,2.47,2.91a2.7,2.7,0,0,0,1.85-.76Zm-4.66-13.86-1.39,4.05h-3.42V67.9a22.27,22.27,0,0,1,7.58-1.51c5.3,0,8.48,1.57,8.48,6V84l2.1,1v1.5a8.75,8.75,0,0,1-3.71.79c-2.07,0-3.92-.66-4.23-2.81h-.2c-.88,1.76-3.23,2.84-5.7,2.84-3.52,0-5.75-2.28-5.75-5.58,0-4.06,2.67-4.72,7-5.63l3.79-.66V72.79c0-2.55-.78-3.82-3.3-3.82-.34,0-1,0-1.35.08Zm13.89,15.88,2.1-1V70.52l-2.21-1V67.7l8.19-1.3h.56V69h.22a10.17,10.17,0,0,1,6.85-2.62c3.35,0,5,1.66,5,5.31V84l2.13,1v1.84H244.07V85l2.13-1V73.18c0-2-.88-2.77-2.67-2.77a7.3,7.3,0,0,0-2.72.5V84l2.1,1v1.83H232.1V84.93ZM191.18,62.37l-2.21-1V59.55l8.26-1.32h.56V83.37l2.1,1.15v1.71l-7.83.91h-.54V85.08h-.22a6.28,6.28,0,0,1-5,2.15c-3.62,0-8-2.3-8-9.91,0-8,4.43-10.89,9.69-10.89a5.81,5.81,0,0,1,3.21.83V62.37Zm0,20.9V69.83a3.23,3.23,0,0,0-2.25-.72c-2.07,0-3.65,1.86-3.65,7.46,0,4.91,1.25,7,3.86,7a4.88,4.88,0,0,0,2-.39ZM109.26,93.38c-3.61,0-4.85-1.27-4.85-2.64a3.22,3.22,0,0,1,.76-2.23h7c1.63,0,2.37.49,2.37,1.52,0,2.06-1.14,3.35-5.27,3.35Zm.06-24.67c1.44,0,2.37.64,2.37,4.6s-.93,4.38-2.35,4.38S107,77.36,107,73.31s.91-4.6,2.34-4.6Zm4.38,13.78h-7.1a1.36,1.36,0,0,1-1.4-1.27,2,2,0,0,1,.88-1.47,10.56,10.56,0,0,0,3.28.42c5.11,0,8.61-2.32,8.61-6.66a5.09,5.09,0,0,0-2.08-4.16V69.2l3.28,1.15.44,0v-4h-.37l-5,1h-.28a14.15,14.15,0,0,0-4.6-1c-5.11,0-8.65,2.54-8.65,6.85a6.22,6.22,0,0,0,3.3,5.66v.21c-1.14.8-3.33,2.45-3.33,4.56a3.63,3.63,0,0,0,3.15,3.52v.21c-2.24.47-4.75,1.2-4.75,3.77s3.83,4.6,10.07,4.6c7.76,0,11.12-3,11.12-7.71,0-3.89-2.15-5.7-6.53-5.7ZM163.4,67.7v1.81l2.23,1V84l-2.1,1v1.84h11.4V85l-2.72-1V72.94a10.35,10.35,0,0,1,4.38-.72,7.57,7.57,0,0,1,1.67.18V66.6a3.82,3.82,0,0,0-1-.11c-2.18,0-4,1.4-5.12,4.06H172V66.36h-.56l-8,1.32ZM154.3,83V77.57l-1.52.15A2.91,2.91,0,0,0,150,80.8c0,2.2,1.2,2.91,2.47,2.91a2.72,2.72,0,0,0,1.85-.76Zm-4.67-13.88-1.4,4.06H144.8V67.9a22.46,22.46,0,0,1,7.59-1.51c5.31,0,8.49,1.57,8.49,6V84l2.1,1v1.5a8.67,8.67,0,0,1-3.7.79c-2.06,0-3.92-.66-4.21-2.81h-.2c-.88,1.76-3.23,2.84-5.69,2.84-3.52,0-5.73-2.28-5.73-5.58,0-4.06,2.68-4.72,7-5.63l3.81-.66V72.79c0-2.55-.77-3.82-3.3-3.82-.33,0-1,0-1.35.08Zm-27.26,1.44-2.2-1V67.7l8.27-1.3H129v14c0,2.26,1.11,2.67,2.78,2.67a5.41,5.41,0,0,0,2.37-.47V70.52l-2.23-1v-1.8l8.25-1.32h.54v17l2.2,1.15v1.72l-8,.88h-.58V84.46h-.22a7.63,7.63,0,0,1-6,2.72c-4,0-5.7-2.84-5.7-6.29V70.52Zm83.4-12.34a3.54,3.54,0,1,1-3.55,3.55,3.53,3.53,0,0,1,3.55-3.55Zm48.09,27.5h4.22"/><path class="cls-3" d="M300,150H0V0H300ZM2.38,147.68H297.62V2.32H2.38Z"/></g></g></svg>