<svg xmlns="http://www.w3.org/2000/svg" viewBox="0 0 300 150"><defs><style>.cls-1{fill:#231f20;}.cls-2{fill:none;}</style></defs><title>Asset 3washington-post</title><g id="Layer_2" data-name="Layer 2"><g id="Layer_1-2" data-name="Layer 1"><g id="twp_full"><g id="g12"><path id="path14" class="cls-1" d="M44.44,68V80.88A7.6,7.6,0,0,0,48,76.46l.14.07c-.38,4.59-3.52,9.19-8.39,9.19s-8.53-3.65-8.53-9.5c0-4.38,2.85-7.13,6.51-9.61a6.38,6.38,0,0,0-1.64-.21c-2.51,0-4,1.71-4,3.45h-.21a5.11,5.11,0,0,1,0-.73c0-3.1,1.64-6.86,5.6-6.86,2.54,0,4.49,2.33,7.45,2.33a3.54,3.54,0,0,0,3.24-1.84h.1C48.23,65,47.54,67.34,44.44,68ZM46.32,81.2c-1.74,1.84-3.62,3.41-6.06,3.41-4.52,0-8-3.55-8-8.7,0-3,1.25-4.66,2.64-6.58h-.14a9.32,9.32,0,0,0-3.17,6.79c0,5.71,3.58,9.22,8.28,9.22a7.6,7.6,0,0,0,6.51-4.11Zm1.39-16.88a4.67,4.67,0,0,1-4.38,2.54c-2.54,0-4.87-1.74-6.93-1.74a4.21,4.21,0,0,0-3.65,2.19l0,.07a4.44,4.44,0,0,1,3.31-1.32c2.71,0,4.45,1.67,7.2,1.67a4.23,4.23,0,0,0,4.49-3.38ZM38,66.72a10.16,10.16,0,0,0-3.41,7.8A7.54,7.54,0,0,0,37,80.29l1-.52V70.44l-.94.49-.17-.35,4.87-2.65C40.44,67.66,39.25,67.07,38,66.72Zm6,1.36a5.44,5.44,0,0,1-.77,0A6.07,6.07,0,0,1,41.9,68V78.13L37.34,80.6a5.76,5.76,0,0,0,3.55,1.11,7.68,7.68,0,0,0,3.17-.66v-13Zm-5,1.78-.66.38v9.33l.66-.35Zm20,1.32v12c0,3.34-3,5.6-6.26,6.26l-.07-.14a4.61,4.61,0,0,0,2.58-4.18V72.7L53.42,71l-.73.8v9.71l1,.94v.07l-2.82,3.06-3.24-3v-.14l1.25-1.32V65.78l3.69-3.93.07,0v9.33l3-3.27,3.17,2.85.59-.63.28.24ZM49.31,82.55v-.07l.73-.73V65.19l-.73.77V81.4L48.2,82.52v.07L50.91,85l.49-.56Zm7.1-10.41L54.15,70.2l-.49.52,2,1.81V85.06a4.45,4.45,0,0,1-.49,2.19l0,0a3.14,3.14,0,0,0,1.18-2.78V72.15Zm8.18,6v1.77L68,82.59l1.95-2.09.28.28-4.52,4.84-4.59-3.69-.7.73-.28-.28.8-.84v-8.8l6.58-4.8,3.45,5.57ZM62,81.23V72.39l-.73.52v8.67l4.32,3.52.56-.59Zm2.65-10.72-.07,0v7.13l3.1-2.26Zm.9-.7-.63.45L68,75.17l.63-.45Z"/><path id="path16" class="cls-1" d="M93.61,85.58,88.77,81.4l-3.69,4.18-5-4.32V74.44h-1a1.55,1.55,0,0,0-1.53,1.22h-.1a5.53,5.53,0,0,1-.17-1.32c0-.91.24-3.27,2.78-3.27v-6c0-1.15-1.36-1.6-1.36-3.13,0-2,1.88-3.93,5.32-5.15l.14.1a3,3,0,0,0-1.91,2.92c0,2.3,2.23,1.71,2.23,5.32v1.39l4.07-4.28,4.28,4.21,4-4.21,3.9,3.83V79ZM81.19,80.71V73.37H79.24a1.42,1.42,0,0,0-1.53,1.25l0,0a1.73,1.73,0,0,1,1.5-.59h1.22v7l4.59,4,.52-.63Zm0-16c0-1.43-1.25-1.91-1.25-2.82a5.17,5.17,0,0,1,1.25-3.27l-.07,0a4.71,4.71,0,0,0-2,3.34c0,1.25,1.36,1.84,1.36,3v6.16h.73Zm7.34,3.48-2.64-2.58-1.39,1.43V79.39l3.17,2.68.87-1Zm1.11,12.42V67.73l-3-2.92-.56.56L88.91,68V81l4.7,4.07.56-.52Zm6.75-12.88L94.2,65.67,92.95,67V79.35l3.41,3,0,0Zm1.11-.49L95,64.8l-.52.56,2.33,2.23V82.14l.73-.7Z"/><path id="path18" class="cls-1" d="M112.29,85.58l-3.31-3-3,3-3.62-3.2-.49.52-.28-.28.63-.66V72.63l6.54-4.73,3.76,2.92.66-.7.28.28-.77.8v9.64l1.84,1.7.59-.63.28.24-3.17,3.41Zm-8.91-3.86v-9.4l-.73.52v9.22l3.34,3,.56-.56-3.17-2.78Zm5.6-9.15-2.85-2.23-.1.07V80.53l2.37,2.05L109,82ZM110.1,82V72l-3-2.4-.7.49,2.92,2.3v10L112.3,85l.52-.56Zm12.32-7.8H126v7.45l-5.53,3.9a4,4,0,0,0-3.06-1.43,4.35,4.35,0,0,0-3,1.29l-.17-.07L119,78.48h-2.92V72l5.81-4a3.06,3.06,0,0,0,2.12.87,4,4,0,0,0,2.47-.77l.14.07Zm-3.9,8.91A4.24,4.24,0,0,0,116,84V84a3.95,3.95,0,0,1,4.52,1l.8-.59a3.46,3.46,0,0,0-2.82-1.36Zm3.72-5.85H120.3l-4.07,5.88,0,.07A5.29,5.29,0,0,1,119.43,82a3.62,3.62,0,0,1,2.78,1.32l0,0Zm-5.08,0V71.7l-.73.52v5.85h2.82l.56-.77h-2.64Zm7.27-6.82a3.29,3.29,0,0,1-2.37.8,3.1,3.1,0,0,1-2.19-1l-.07,0v5.08h1.32l3.34-4.87Zm-1.67-.31a2.52,2.52,0,0,1-1.95-1l-.87.59a2.67,2.67,0,0,0,2.26,1.15,3.76,3.76,0,0,0,2.47-1l0-.1A5.34,5.34,0,0,1,122.77,70.16Zm.59,6H121.1l-.52.73h2.05v6.75l.73-.52Zm14.65-5v12c0,3.34-3,5.6-6.26,6.26l-.07-.14a4.61,4.61,0,0,0,2.58-4.18V72.7L132.38,71l-.73.8v9.71l1,.94v.07l-2.82,3.06-3.24-3v-.14l1.25-1.32V65.78l3.69-3.93.07,0v9.33l3-3.27,3.17,2.85.59-.63.28.24Zm-9.74,11.38v-.07l.73-.73V65.19l-.73.77V81.4l-1.11,1.11v.07L129.87,85l.49-.56Zm7.1-10.41-2.26-1.95-.49.52,2,1.81V85.06a4.45,4.45,0,0,1-.49,2.19l0,0a3.14,3.14,0,0,0,1.18-2.78V72.15Zm9,13.43-3-2.75-.7.73-.28-.28.8-.87V72.36L139.72,71l-.56.63-.28-.28L142,67.9l2.78,2.51.7-.77.31.24-.87.94V81l1.67,1.57.77-.8.28.28-3.31,3.55Zm-2.05-3.41V71.8l-1.81-1.67-.49.56,1.57,1.5V82.52L144.35,85l.52-.56Zm1-14.55L140.48,65l2.61-2.78,2.85,2.61Zm-1.77-3.17L141,65l2.26,2.12.52-.59Z"/><path id="path20" class="cls-1" d="M159.06,85.58l-3-2.75V72.67L154.19,71l-1,1v9.4l1.08,1v.14l-2.85,3-3.24-3v-.1l1.25-1.32V72.43l-1.64-1.5-.66.73-.28-.28L150,67.94l3.17,2.82v.7l3.31-3.52,3.1,2.78.7-.73.31.28-.84.87v10l1.57,1.46.77-.84.28.28-3.34,3.58Zm-9.19-3v-.07a6.58,6.58,0,0,0,.7-.7V71.9l-2-1.81-.49.52,1.74,1.6V81.4l-1.08,1.11v.07L151.44,85l.56-.59Zm7.27-.28V72.08L155,70.13l-.56.59,2,1.77V82.62L159,85.06l.56-.59-2.44-2.19Zm11.73,9.57c-1.15-1.25-1.95-1.77-3-1.77A8.48,8.48,0,0,0,162,91.25l-.1-.1,4.8-5.57-3.41-2.71-.66.7-.28-.24.77-.84V72.63l6.61-4.73,3.69,2.92.63-.7.28.28-.73.8v11.9c0,1.81,1,1.74,1,3.1,0,1.57-2.26,3-5.74,5.64Zm-4.63-9.64V72.36l-.73.52v9.64L167,85.3l.52-.63Zm2.44,7a5.52,5.52,0,0,0-3.17,1v.07a6.06,6.06,0,0,1,2.51-.56,3.86,3.86,0,0,1,2.89,1.64l.7-.56a4,4,0,0,0-2.92-1.6Zm4.25-3.34c-.87-.56-1.08-1.15-1.08-2.64v-.63l-5.78,6.68,0,0a6.69,6.69,0,0,1,3.76-1.15,5,5,0,0,1,3.41,1.46,2.5,2.5,0,0,0,1.11-2c0-.7-.59-1.22-1.46-1.77Zm-1.08-13.26L167,70.3l-.07.07V81.06l2.23,1.74.73-.84ZM172,85.34c-.91-.7-1-1.29-1-2.78V72L168,69.61l-.66.45,2.85,2.26V83c0,1.5.07,1.91,1,2.54s1.5,1.15,1.5,1.95c0,.21,0,.56,0,.56l0,0a1.22,1.22,0,0,0,.38-.91A2.3,2.3,0,0,0,172,85.34Zm8.35.24-3.2-2.51-.66.73-.28-.28.77-.84V70.51h-2l-.07-.07,1.22-1.81H177V66.3l3.69-3.93.07.07v6.19h2.78l.07.07-1.22,1.81h-1.64V81.06l1.91,1.46.73-.8.28.28Zm-2.26-19.87-.73.8v2.12h.73Zm0,16.64V70.51h-.73V82.76l3,2.3.52-.56-2.75-2.16ZM195,71.52v9.74l-5.88,4.35-4.42-3.34-.52.59-.28-.28.63-.7V72.36l6.16-4.42,4.11,3.2.66-.7.28.28-.73.8Zm-9.36,10V72l-.73.52v9.36l4.18,3.2.66-.49-4.11-3.1Zm5.6-8.87-2.92-2.3,0,0V80.78l3,2.23V72.67Zm1.11-.63-3.24-2.51-.66.49,3.17,2.44V83.28l.73-.56V72Zm15.94,13.54-3-2.75V72.67L203.43,71l-1,1v9.4l1.08,1v.14l-2.85,3-3.24-3v-.1l1.25-1.32V72.43l-1.64-1.5-.66.73-.28-.28,3.17-3.45,3.17,2.82v.7l3.31-3.52,3.1,2.78.7-.73.31.28-.84.87v10l1.57,1.46.77-.84.28.28Zm-9.19-3v-.07a6.58,6.58,0,0,0,.7-.7V71.9l-2-1.81-.49.52,1.74,1.6V81.4L198,82.52v.07L200.69,85l.56-.59-2.12-1.88Zm7.27-.28V72.08l-2.16-1.95-.56.59,2,1.77V82.62l2.61,2.44.56-.59Z"/><path id="path22" class="cls-1" d="M229.81,85.58a4.4,4.4,0,0,0-2.47-1.71V90.7l-.07,0-1.39-1.25-4,3.72-.07,0V83.81A7.67,7.67,0,0,0,218,86l-.07,0c.24-2.68,1.57-4.66,3.83-5.43V73.71H221A2.18,2.18,0,0,0,219,75.17h-.1a5.28,5.28,0,0,1-.17-1.6,2.91,2.91,0,0,1,2.85-3h.21V66.82l-1.43-1.29-.7.7L219.4,66l3.51-3.72,3.27,3v3.17l.77-.84v-4h.38v3.65l4.63-5,3.93,3.58V81l-6.09,4.59Zm-8-3.06a4.51,4.51,0,0,0-3.1,2.3l0,.07a6.66,6.66,0,0,1,3.06-1.5v-.87Zm1.11-10H221a1.72,1.72,0,0,0-1.88,1.81l0,0a1.92,1.92,0,0,1,1.67-1h1.36v19l.73-.7Zm0-6.26-1.74-1.6-.56.59,1.57,1.39v3.93h.73V66.27Zm4.07,2-.77.8V89.2l.77.7Zm4.56-.8-2.05-1.88-2.12,2.3V80.12A5.87,5.87,0,0,1,231.48,82l0,0Zm-4.18,15.07v.91a4,4,0,0,1,2.51,1.6l.8-.63a4.5,4.5,0,0,0-3.31-1.88Zm5.29-15.63-2.37-2.19-.56.59,2.19,2V83.49l.73-.56ZM248,71.52v9.74l-5.88,4.35-4.42-3.34-.52.59-.28-.28.63-.7V72.36l6.16-4.42,4.11,3.2.66-.7.28.28Zm-9.36,10V72l-.73.52v9.36l4.18,3.2.66-.49-4.11-3.1Zm5.6-8.87-2.92-2.3,0,0V80.78l3,2.23V72.67ZM245.4,72l-3.24-2.51-.66.49,3.17,2.44V83.28l.73-.56V72Zm10.72,2.19h3.58v7.45l-5.53,3.9a4,4,0,0,0-3.06-1.43,4.35,4.35,0,0,0-3,1.29l-.17-.07,4.73-6.89h-2.92V72l5.81-4a3.06,3.06,0,0,0,2.12.87,4,4,0,0,0,2.47-.77l.14.07-4.18,6.09Zm-3.9,8.91a4.24,4.24,0,0,0-2.51.84V84a3.95,3.95,0,0,1,4.52,1l.8-.59A3.46,3.46,0,0,0,252.22,83.14Zm3.72-5.85H254l-4.07,5.88,0,.07A5.29,5.29,0,0,1,253.12,82a3.62,3.62,0,0,1,2.78,1.32l0,0v-6Zm-5.08,0V71.7l-.73.52v5.85h2.82l.56-.77h-2.64Zm7.27-6.82a3.3,3.3,0,0,1-2.37.8,3.1,3.1,0,0,1-2.19-1l-.07,0v5.08h1.32l3.34-4.87,0,0Zm-1.67-.31a2.52,2.52,0,0,1-1.95-1l-.87.59a2.67,2.67,0,0,0,2.26,1.15,3.76,3.76,0,0,0,2.47-1l0-.1a5.34,5.34,0,0,1-1.95.35Zm.59,6H254.8l-.52.73h2.05v6.75l.73-.52v-7Zm8.42,9.43-3.2-2.51-.66.73-.28-.28.77-.84V70.51h-2l-.07-.07,1.22-1.81h.87V66.3l3.69-3.93.07.07v6.19h2.78l.07.07-1.22,1.81h-1.64V81.06l1.91,1.46.73-.8.28.28-3.31,3.58Zm-2.26-19.87-.73.8v2.12h.73Zm0,16.64V70.51h-.73V82.76l3,2.3.52-.56-2.75-2.16Z"/></g></g><path class="cls-2" d="M300,150H0V0H300ZM2.38,147.68H297.62V2.32H2.38Z"/></g></g></svg>