<svg xmlns="http://www.w3.org/2000/svg" viewBox="0 0 300 150"><defs><style>.cls-1{fill:#3e474f;}.cls-2{fill:none;}</style></defs><title>logo-Asset 1financial-times</title><g id="Layer_2" data-name="Layer 2"><g id="Layer_1-2" data-name="Layer 1"><path id="FinancialTimes" class="cls-1" d="M31.42,81.13c0,1.85.5,2.05,2.6,2.14v.66H25.64v-.66c1.74-.09,2.24-.29,2.24-2.14V69c0-1.86-.5-2.06-2.19-2.14v-.68h14.8l.1,3.9h-.73c-.63-2-1.3-2.6-4.77-2.6H32.41c-.81,0-1,.18-1,.92V74h3c2.76,0,3.36-.5,3.7-2.34h.68V78h-.68c-.36-2.09-1.41-2.61-3.7-2.61h-3v5.78Zm17.45,0c0,1.85.49,2.05,2.6,2.14v.66H42.72v-.66c2.12-.09,2.6-.29,2.6-2.14V69c0-1.86-.49-2.06-2.6-2.14v-.68h8.75v.68c-2.11.08-2.6.28-2.6,2.14ZM69.73,69.55c0-1.72-.47-2.42-2.4-2.64v-.68h6.25v.68c-1.93.21-2.39.92-2.39,2.64V84.36H70.3l-12.08-14V80.63c0,1.72.46,2.42,2.39,2.64v.66H54.36v-.66c1.93-.21,2.4-.92,2.4-2.64V68.72a3.39,3.39,0,0,0-2.4-1.81v-.68h4.82L69.73,78.43Zm9.45,8,2.66-7,2.63,7Zm12.68,6.34v-.66c-1.33,0-1.66-.55-2.34-2.22L83.3,65.82h-.86L76,81.6a2.49,2.49,0,0,1-2.16,1.67v.66h5.62v-.66c-1.22,0-1.82-.27-1.82-1.12a16.21,16.21,0,0,1,1-3.26H85a16.07,16.07,0,0,1,1.07,3.26c0,.86-.65,1.12-1.87,1.12v.66h7.66ZM109,69.55c0-1.72-.47-2.42-2.39-2.64v-.68h6.25v.68c-1.93.21-2.4.92-2.4,2.64V84.36h-.88l-12.09-14V80.63c0,1.72.47,2.42,2.4,2.64v.66H93.66v-.66c1.93-.21,2.4-.92,2.4-2.64V68.72a3.4,3.4,0,0,0-2.4-1.81v-.68h4.82L109,78.43V69.55Zm22.36,10.22a8.39,8.39,0,0,1-7.95,4.59c-5.76,0-9.17-3.78-9.17-9.44a9.2,9.2,0,0,1,9.35-9.11c1.85,0,4.47,1,4.87,1s.68-.28,1.1-1h.88l.37,5.91h-.78c-1-2.74-2.89-4.71-6-4.71-4.17,0-6,4.51-6,7.91,0,4.77,2.06,8,6.46,8,3.44,0,5.34-2.55,6.15-3.67ZM140,81.13c0,1.85.5,2.05,2.61,2.14v.66h-8.75v-.66c2.11-.09,2.61-.29,2.61-2.14V69c0-1.86-.49-2.06-2.61-2.14v-.68h8.75v.68C140.47,67,140,67.19,140,69Zm9.86-3.54,2.66-7,2.63,7Zm12.69,6.34v-.66c-1.33,0-1.67-.55-2.34-2.22l-6.23-15.24h-.86L146.6,81.6a2.49,2.49,0,0,1-2.16,1.67v.66h5.62v-.66c-1.22,0-1.82-.27-1.82-1.12a16,16,0,0,1,1-3.26h6.41a16.07,16.07,0,0,1,1.07,3.26c0,.86-.65,1.12-1.87,1.12v.66h7.66Zm1.55,0v-.66c1.69-.08,2.19-.29,2.19-2.14V69c0-1.86-.49-2.06-2.19-2.14v-.68h8.18v.68c-2,.08-2.45.28-2.45,2.14V81.47c0,1.07.31,1.43,2.29,1.43,3.18,0,5.05-.57,6.56-3.7h.68l-1.2,4.72ZM193,83.09c2-.09,2.5-.29,2.5-2.14V67.36h-2.19c-2.06,0-2.87.83-3.44,3.23h-.78l.42-4.53H205l.42,4.53h-.79c-.57-2.4-1.38-3.23-3.43-3.23H199V81c0,1.85.49,2.05,2.5,2.14v.66H193ZM213.39,81c0,1.85.5,2.05,2.61,2.13v.67h-8.75v-.67c2.12-.08,2.61-.28,2.61-2.13V68.86c0-1.85-.49-2.05-2.61-2.13V66H216v.68c-2.11.08-2.61.28-2.61,2.13Zm21.2-14.9h6.1v.68c-1.69.08-2.19.28-2.19,2.13V81c0,1.85.49,2.05,2.19,2.14v.66h-8v-.66C234.46,83,235,82.8,235,81V68.5h-.05L229,84h-.81L222.4,68.5h-.05v12c0,1.72.47,2.42,2.4,2.64v.66H218.5v-.66c1.93-.21,2.39-.92,2.39-2.64v-12c0-1.22-.52-1.69-2.39-1.69v-.68h6.43l4.71,12.29Zm8.61,17.69v-.66c1.69-.09,2.19-.29,2.19-2.14V68.86c0-1.85-.49-2.05-2.19-2.13v-.68H258l.1,3.9h-.73c-.63-2-1.31-2.6-4.77-2.6h-2.68c-.81,0-1,.18-1,.91v5.6h3c2.76,0,3.36-.5,3.7-2.34h.68v6.25h-.68c-.37-2.08-1.41-2.6-3.7-2.6h-3v6.13c0,1.06.31,1.43,3.44,1.43s5.05-.57,6.56-3.7h.68l-1.2,4.73H243.2Zm18.71-5.56h.68c.75,2.34,3,4.79,5.6,4.79a2.8,2.8,0,0,0,3-2.94c0-4.06-9.17-4.82-9.17-9.86,0-2.45,2.37-4.53,5.08-4.53s3.59.93,4.77.93c.49,0,.81-.39.94-.93h.68v5.62h-.68c-.73-2.55-2.55-4.42-4.95-4.42a2.42,2.42,0,0,0-2.71,2.48c0,3.61,9.17,3.72,9.17,9.94,0,2.78-2.29,4.92-5.47,4.92s-3.93-1.09-5.16-1.09c-.46,0-.78.31-.88.88h-.94V78.19Z"/><path class="cls-2" d="M300,150H0V0H300ZM2.38,147.68H297.62V2.32H2.38Z"/></g></g></svg>