<svg xmlns="http://www.w3.org/2000/svg" viewBox="0 0 300 150"><defs><style>.cls-1{fill:none;}</style></defs><title>Asset 5wsj</title><g id="Layer_2" data-name="Layer 2"><g id="Layer_1-2" data-name="Layer 1"><path d="M33.81,83.63c0,.95.28,1.13.89,1.29l.95.21v.43H29.33v-.43l.8-.18c.61-.15.89-.46.89-1.32V65.06h-.67c-1.9,0-2.67,3.09-2.88,6.37H27v-7H37.82v7h-.46c-.21-3.28-1-6.37-2.88-6.37h-.67Zm4.69,1.5.67-.18c.61-.15.89-.46.89-1.32V66.34c0-.86-.28-1.13-.89-1.29l-.67-.18v-.43h6v.43l-.7.18c-.58.15-.92.4-.92,1.26v8.06h4.63V66.31c0-.86-.34-1.1-.92-1.26l-.7-.18v-.43h6v.43l-.67.18c-.61.15-.89.43-.89,1.29V83.6c0,.86.28,1.2.89,1.35l.67.18v.43h-6v-.43l.7-.15c.58-.15.92-.49.92-1.35V75.08H42.85v8.55c0,.86.34,1.2.92,1.35l.7.15v.43h-6Zm18.35-.18H59c2.76,0,3.28-3.13,3.65-6.37h.46v7H52.5v-.43l.67-.18c.61-.15.89-.46.89-1.32V66.37c0-.86-.28-1.16-.89-1.32l-.67-.18v-.43H62.76v7H62.3c-.34-3.28-1-6.37-3.34-6.37H56.85v9.22l1,0c1.32-.09,1.81-1.23,2.14-3.89h.46v8.52H60c-.28-3.34-.8-3.86-2.18-4l-.95,0V84.94ZM69.62,67.26c-.4-1.81-.64-2.08-1.23-2.24l-.58-.15v-.43h5.73v.43l-.46.09c-1,.21-.89,1.2-.61,2.51l2.42,12,1.78-9.56L76,66.65c-.25-1.16-.34-1.53-.95-1.69l-.4-.09v-.43h5.61v.43l-.67.12c-1,.18-.86,1.29-.61,2.48l2.33,12,2.3-11.37c.43-2.36.21-2.94-.7-3.13l-.64-.12v-.43h4.2v.43l-.58.15c-.74.18-.92.77-1.35,2.82L80.81,85.68H80L77.13,71.77l-2.6,13.91h-1Zm30,17.68h1.23c2.6,0,3.37-3.1,3.68-6.37H105v7H89.29v-.43l.64-.12c1.32-.24,1.32-.61,1-2.45l-.58-2.76H86.57l-.4,2.08c-.46,2.36-.21,2.94.7,3.12l.64.12v.43H83.26v-.43l.52-.15c.83-.25,1-.74,1.47-2.82L89,64.32h.92l3.92,18.42c.4,1.9.58,2.3,1.69,2.3.95,0,1.29-.49,1.29-1.41V66.34c0-.86-.28-1.13-.89-1.29l-.67-.18v-.43h6.07v.46l-.83.18c-.61.12-.89.4-.89,1.26v18.6Zm-12.9-5.85h3.49l-1.78-8.7ZM110,84.94h1.23c2.6,0,3.37-3.1,3.68-6.37h.46v7h-9.71v-.43l.67-.18c.61-.15.89-.46.89-1.32V66.34c0-.86-.28-1.13-.89-1.29l-.67-.18v-.43h6.07v.46l-.83.18c-.61.12-.89.4-.89,1.26v18.6Zm15.35.73c-1.78,0-2.39-1.22-3-1.22-.34,0-.74.09-1,1.1h-.37v-7h.46c.37,4,1.84,6.43,3.89,6.43,1.38,0,2.33-1.26,2.33-3.52,0-4.78-6.83-6.83-6.83-12.13,0-2.85,1.47-5,4.08-5,1.69,0,2.05,1.1,2.76,1.1.4,0,.67-.31.83-1h.37v7h-.46C128,67.91,127,65,124.84,65c-1.53,0-1.84,1.53-1.84,2.57,0,4.57,6.83,6.13,6.83,12.5C129.83,83.32,128.06,85.68,125.33,85.68Zm11.28-2.05c0,.86.28,1.16.89,1.32l.8.18v.43h-6.16v-.43l.8-.18c.61-.15.89-.46.89-1.32V65.06h-.67c-1.9,0-2.67,3.09-2.88,6.37h-.46v-7h10.82v7h-.46c-.21-3.28-1-6.37-2.88-6.37h-.67V83.63Zm4.69,1.5.67-.18c.61-.15.89-.46.89-1.32V66.34c0-.86-.28-1.13-.89-1.29l-.67-.18v-.43h5.85a4.79,4.79,0,0,1,5,5.12c0,2.67-1.26,4.54-3.8,5.21,2.79.52,2.79,1.84,3.06,5.36l.18,2.7c.09,1.5.15,1.84.58,1.84s.64-1,.64-2.05v-.52h.52v.7c0,1.69-.37,2.88-2.11,2.88s-2.51-1-2.64-4.5l-.15-3.92c-.06-1.87-.52-2.15-1.41-2.15h-1.44v8.52c0,.86.28,1.2.89,1.35l.67.15v.43H141.3v-.43Zm4.32-10.63h1c1.72,0,2.57-.46,2.57-4.53s-1.13-4.9-2.36-4.9h-1.23v9.44ZM157.9,84.94H160c2.76,0,3.28-3.13,3.65-6.37h.46v7H153.55v-.43l.67-.18c.61-.15.89-.46.89-1.32V66.37c0-.86-.28-1.16-.89-1.32l-.67-.18v-.43h10.27v7h-.46c-.34-3.28-1-6.37-3.34-6.37H157.9v9.22l1,0c1.32-.09,1.81-1.23,2.14-3.89h.46v8.52H161c-.28-3.34-.8-3.86-2.18-4l-.95,0Zm11.37,0h2.11c2.76,0,3.28-3.13,3.65-6.37h.46v7H164.92v-.43l.67-.18c.61-.15.89-.46.89-1.32V66.37c0-.86-.28-1.16-.89-1.32l-.67-.18v-.43h10.27v7h-.46c-.34-3.28-1-6.37-3.34-6.37h-2.11v9.22l1,0c1.32-.09,1.81-1.23,2.14-3.89h.46v8.52h-.46c-.28-3.34-.8-3.86-2.18-4l-.95,0V84.94ZM183,83.63c0,.95.28,1.13.89,1.29l.95.21v.43h-6.31v-.43l.8-.18c.61-.15.89-.46.89-1.32V65.06h-.67c-1.9,0-2.67,3.09-2.88,6.37h-.46v-7H187v7h-.46c-.21-3.28-1-6.37-2.88-6.37H183Zm16.82-2.94c0,3.28-1.66,5-4.2,5A3.64,3.64,0,0,1,192,81.76a2.08,2.08,0,0,1,2.14-2.27,1.41,1.41,0,0,1,1.26,1.65c-.09,1.53-1.75,1.47-1.81,2.42A1.65,1.65,0,0,0,195.26,85C197,85,197,82.83,197,81.17V66.31c0-.86-.28-1.1-.95-1.26l-.77-.18v-.43h6v.43l-.67.18c-.61.15-.83.43-.83,1.29V80.68Zm7.14,5c-3.58,0-5.33-4.84-5.33-10.72s1.69-10.69,5.33-10.69,5.36,4.84,5.36,10.69S210.64,85.71,206.93,85.71Zm0-20.71c-1.53,0-2.3,1.23-2.3,9.87,0,8.92.7,10.17,2.3,10.17s2.33-1.26,2.33-10.23C209.26,66.22,208.53,65,206.93,65Zm17.5,20.13.67-.18c.61-.15.89-.46.89-1.32V66.34c0-1-.46-1.38-1.53-1.38-1.35,0-1.69.61-1.69,2.36v13.3c0,3.31-1.16,5.09-4,5.09s-4.66-1.78-4.66-5V66.34c0-.86-.21-1.13-.83-1.29l-.67-.18v-.43h6.1v.43l-.83.18c-.67.15-.95.4-.95,1.26V80.93c0,3,.86,3.74,2.42,3.74,1.84,0,2.6-1,2.6-4V68.43c0-2.57,0-3.19-1.13-3.43l-.58-.12v-.43h10.05a4.79,4.79,0,0,1,5,5.12c0,2.67-1.26,4.54-3.8,5.21,2.79.52,2.79,1.84,3.06,5.36l.18,2.7c.09,1.5.15,1.84.58,1.84s.64-1,.64-2.05v-.52h.52v.7c0,1.69-.37,2.88-2.11,2.88s-2.51-1-2.64-4.5l-.15-3.92c-.06-1.87-.52-2.15-1.41-2.15h-1.44v8.52c0,.86.28,1.2.89,1.35l.67.15v.43h-5.88v-.43h0Zm4.32-10.63h1c1.72,0,2.57-.46,2.57-4.53s-1.13-4.9-2.36-4.9h-1.23Zm8.3-9.5-.43-.12v-.43h4l5.49,13.91v-10c0-2.27.06-3.06-1.56-3.34l-.52-.12v-.43h4.53v.43l-.43.12c-1.32.31-1.23,1.38-1.23,3.52v17h-1l-6.86-16.88v13c0,2.48,0,3.19,2,3.46v.43h-4.41v-.43l.55-.09c1.13-.22,1.1-1.32,1.1-3.55V66.83C237.76,65.76,237.54,65.18,237.05,65Zm27,19.95h1.23c2.6,0,3.37-3.1,3.68-6.37h.46v7H253.75v-.43l.64-.12c1.32-.24,1.35-.61,1-2.45l-.58-2.76H251l-.4,2.08c-.46,2.36-.21,2.94.7,3.12l.64.12v.43h-4.26v-.43l.52-.15c.83-.25,1-.74,1.47-2.82l3.74-17.83h.92l3.92,18.42c.4,1.9.55,2.3,1.66,2.3.95,0,1.29-.49,1.29-1.41V66.34c0-.86-.28-1.13-.89-1.29l-.67-.18v-.43h6.07v.46l-.83.18c-.61.12-.89.4-.89,1.26v18.6Zm-12.87-5.85h3.49l-1.78-8.7ZM273,84.21a1.35,1.35,0,1,1-1.35-1.44A1.38,1.38,0,0,1,273,84.21Z"/><path class="cls-1" d="M300,150H0V0H300ZM2.38,147.68H297.62V2.32H2.38Z"/></g></g></svg>