<svg xmlns="http://www.w3.org/2000/svg" viewBox="0 0 300 150"><defs><style>.cls-1{fill:#cf1c23;}.cls-2{fill:none;}</style></defs><title>Asset 8politico</title><g id="Layer_2" data-name="Layer 2"><g id="Layer_1-2" data-name="Layer 1"><path id="path3690" class="cls-1" d="M49,72h1.52q4.94,0,6.58-1.07a4.19,4.19,0,0,0,1.65-3.79q0-2.92-1.76-4.12t-6.47-1.2H49Zm-.37,4.86V93.21H43V56.69h9a28.34,28.34,0,0,1,5.87.44,9.1,9.1,0,0,1,3.28,1.43A8.54,8.54,0,0,1,63.85,62a11.42,11.42,0,0,1,1,4.75,11.65,11.65,0,0,1-1,4.79A8.29,8.29,0,0,1,61.16,75a8.91,8.91,0,0,1-3.28,1.42,29.09,29.09,0,0,1-5.87.42Z"/><path id="path3692" class="cls-1" d="M99.93,75a13.93,13.93,0,0,0-1-5.26A13.64,13.64,0,0,0,96,65.32a12.85,12.85,0,0,0-4.28-3,13,13,0,0,0-5.13-1,13.4,13.4,0,0,0-12.35,8.4,14.14,14.14,0,0,0-1,5.29,13.87,13.87,0,0,0,1,5.24,13.53,13.53,0,0,0,2.89,4.42,13,13,0,0,0,9.45,4,12.86,12.86,0,0,0,5.08-1,13.46,13.46,0,0,0,4.33-3A13.68,13.68,0,0,0,99.93,75m6.19,0a18.6,18.6,0,0,1-5.71,13.55A20,20,0,0,1,94,92.73a19.47,19.47,0,0,1-7.43,1.45,19.75,19.75,0,0,1-7.52-1.46,19.47,19.47,0,0,1-6.32-4.15,18.58,18.58,0,0,1-4.24-6.16,19,19,0,0,1,4.24-21,19.34,19.34,0,0,1,6.33-4.14,20.44,20.44,0,0,1,15,0,19.37,19.37,0,0,1,6.32,4.14,19.13,19.13,0,0,1,4.25,6.25A18.75,18.75,0,0,1,106.12,75"/><path id="path3694" class="cls-1" d="M111.39,93.21V56.69h5.93V87.9H130.6v5.31Z"/><path id="path3696" class="cls-1" d="M134,56.69h5.94V93.21H134Z"/><path id="path3698" class="cls-1" d="M158.71,61.73V93.21h-5.94V61.73h-9.7v-5h25.29v5Z"/><path id="path3700" class="cls-1" d="M171.47,56.69h5.93V93.21h-5.93Z"/><path id="path3702" class="cls-1" d="M213.72,65.57a18.34,18.34,0,0,0-5.33-3.22,16.4,16.4,0,0,0-5.9-1.07,13,13,0,0,0-9.74,3.84,13.63,13.63,0,0,0-3.75,10,13.59,13.59,0,0,0,3.65,9.75,12.18,12.18,0,0,0,9.22,3.84A16.79,16.79,0,0,0,208,87.52a19.58,19.58,0,0,0,5.63-3.47v6.71a17.53,17.53,0,0,1-5.21,2.57,22.53,22.53,0,0,1-13.86-.52A18.25,18.25,0,0,1,184.24,82.6,20,20,0,0,1,182.81,75a19.83,19.83,0,0,1,1.44-7.54A18.7,18.7,0,0,1,194.63,57.2a20.56,20.56,0,0,1,7.61-1.39,20,20,0,0,1,6.14.94A21.56,21.56,0,0,1,214,59.59Z"/><path id="path3704" class="cls-1" d="M250.79,75a13.93,13.93,0,0,0-1-5.26,13.64,13.64,0,0,0-2.91-4.44,12.85,12.85,0,0,0-4.28-3,13,13,0,0,0-5.13-1,13.4,13.4,0,0,0-12.35,8.4,14.14,14.14,0,0,0-1,5.29,13.87,13.87,0,0,0,1,5.24A13.58,13.58,0,0,0,228,84.68a13,13,0,0,0,9.45,4,12.86,12.86,0,0,0,5.08-1,13.46,13.46,0,0,0,4.33-3A13.7,13.7,0,0,0,250.79,75M257,75a18.6,18.6,0,0,1-5.71,13.55,20,20,0,0,1-6.36,4.16,19.47,19.47,0,0,1-7.43,1.45A19.75,19.75,0,0,1,230,92.72a19.43,19.43,0,0,1-6.32-4.15,18.58,18.58,0,0,1-4.24-6.16,19,19,0,0,1,4.24-21A19.34,19.34,0,0,1,230,57.29a20.44,20.44,0,0,1,15,0,19.37,19.37,0,0,1,6.32,4.14,19.13,19.13,0,0,1,4.25,6.25A18.75,18.75,0,0,1,257,75"/><path class="cls-2" d="M300,150H0V0H300ZM2.38,147.68H297.62V2.32H2.38Z"/></g></g></svg>